<svg width="941" height="287" viewBox="0 0 941 287" fill="none" xmlns="http://www.w3.org/2000/svg">
<path d="M139.106 115.613C133.074 115.613 127.43 114.567 122.175 112.477C116.979 110.387 112.41 107.46 108.469 103.698C104.527 99.8757 101.451 95.4264 99.2416 90.35C97.0916 85.2736 96.0166 79.7493 96.0166 73.7771C96.0166 67.8646 97.0916 62.3701 99.2416 57.2938C101.451 52.1576 104.527 47.7083 108.469 43.9458C112.41 40.1236 116.979 37.1375 122.175 34.9875C127.371 32.8375 132.985 31.7625 139.017 31.7625C144.571 31.7625 149.767 32.6882 154.604 34.5396C159.442 36.3312 163.742 38.8993 167.504 42.2437L163.294 59.0854C160.905 55.2035 157.62 51.9785 153.439 49.4104C149.319 46.8424 144.511 45.5583 139.017 45.5583C133.701 45.5583 128.953 46.8125 124.773 49.3208C120.592 51.7694 117.278 55.1437 114.829 59.4437C112.44 63.684 111.246 68.4618 111.246 73.7771C111.246 79.2118 112.44 84.0493 114.829 88.2896C117.278 92.5299 120.592 95.9042 124.773 98.4125C128.953 100.861 133.671 102.085 138.927 102.085C141.614 102.085 144.123 101.817 146.452 101.279C148.781 100.682 150.871 99.8458 152.723 98.7708V81.75H134.896V69.3875H166.16V107.64C162.517 110.148 158.367 112.119 153.708 113.552C149.11 114.926 144.242 115.613 139.106 115.613ZM207.755 115.613C201.842 115.613 196.587 114.358 191.988 111.85C187.449 109.342 183.896 105.908 181.328 101.548C178.82 97.1285 177.565 92.1417 177.565 86.5875C177.565 81.2722 178.79 76.5243 181.238 72.3437C183.747 68.1035 187.121 64.759 191.361 62.3104C195.602 59.8618 200.29 58.6375 205.426 58.6375C210.681 58.6375 215.37 59.8618 219.49 62.3104C223.671 64.6993 226.986 67.9542 229.434 72.075C231.883 76.1958 233.107 80.884 233.107 86.1396V91.2458H199.692C198.199 91.2458 196.736 91.1562 195.303 90.9771C193.87 90.7979 192.436 90.5889 191.003 90.35C191.72 94.2319 193.601 97.4271 196.647 99.9354C199.692 102.444 203.515 103.698 208.113 103.698C211.517 103.698 214.593 102.981 217.34 101.548C220.088 100.115 222.357 98.3229 224.149 96.1729L227.374 109.342C224.686 111.432 221.67 112.985 218.326 114C214.981 115.075 211.458 115.613 207.755 115.613ZM190.645 81.6604C193.69 81.0632 196.706 80.7646 199.692 80.7646H211.249C212.861 80.7646 214.384 80.8243 215.817 80.9438C217.251 81.0632 218.624 81.2424 219.938 81.4813C219.042 78.0174 217.281 75.2403 214.653 73.15C212.085 71.0597 208.979 70.0146 205.336 70.0146C201.753 70.0146 198.647 71.0896 196.02 73.2396C193.392 75.3896 191.6 78.1965 190.645 81.6604ZM249.025 114V71.5375H238.454V60.25H249.294V42.3333H262.821V60.25H274.108V71.5375H263.089V114H249.025ZM312.856 114V33.375H336.327C342 33.375 346.838 34.5097 350.839 36.7792C354.9 38.9889 358.006 41.975 360.156 45.7375C362.306 49.4403 363.381 53.5014 363.381 57.9208C363.381 62.1611 362.366 66.0132 360.335 69.4771C358.364 72.8812 355.587 75.6285 352.004 77.7188L374.758 114H358.543L338.656 81.75H327.01V114H312.856ZM327.01 69.4771H336.058C339.104 69.4771 341.582 68.9097 343.493 67.775C345.464 66.6403 346.927 65.1771 347.883 63.3854C348.838 61.5937 349.316 59.7722 349.316 57.9208C349.316 54.6361 348.092 51.9187 345.643 49.7687C343.195 47.6187 340 46.5437 336.058 46.5437H327.01V69.4771ZM404.782 115.613C398.87 115.613 393.614 114.358 389.016 111.85C384.477 109.342 380.923 105.908 378.355 101.548C375.847 97.1285 374.593 92.1417 374.593 86.5875C374.593 81.2722 375.817 76.5243 378.266 72.3437C380.774 68.1035 384.148 64.759 388.389 62.3104C392.629 59.8618 397.317 58.6375 402.453 58.6375C407.709 58.6375 412.397 59.8618 416.518 62.3104C420.698 64.6993 424.013 67.9542 426.461 72.075C428.91 76.1958 430.134 80.884 430.134 86.1396V91.2458H396.72C395.227 91.2458 393.764 91.1562 392.33 90.9771C390.897 90.7979 389.464 90.5889 388.03 90.35C388.747 94.2319 390.628 97.4271 393.674 99.9354C396.72 102.444 400.542 103.698 405.141 103.698C408.545 103.698 411.621 102.981 414.368 101.548C417.115 100.115 419.384 98.3229 421.176 96.1729L424.401 109.342C421.714 111.432 418.698 112.985 415.353 114C412.009 115.075 408.485 115.613 404.782 115.613ZM387.672 81.6604C390.718 81.0632 393.734 80.7646 396.72 80.7646H408.276C409.889 80.7646 411.411 80.8243 412.845 80.9438C414.278 81.0632 415.652 81.2424 416.966 81.4813C416.07 78.0174 414.308 75.2403 411.68 73.15C409.112 71.0597 406.007 70.0146 402.364 70.0146C398.78 70.0146 395.675 71.0896 393.047 73.2396C390.419 75.3896 388.627 78.1965 387.672 81.6604ZM463.611 115.254C458.713 115.254 454.234 114 450.173 111.492C446.112 108.924 442.857 105.519 440.409 101.279C438.02 96.9792 436.825 92.2611 436.825 87.125C436.825 81.9889 438.02 77.3007 440.409 73.0604C442.857 68.7604 446.112 65.3562 450.173 62.8479C454.234 60.2799 458.713 58.9958 463.611 58.9958C467.134 58.9958 470.389 59.6229 473.375 60.8771C476.361 62.1312 478.899 63.8931 480.99 66.1625V60.25H493.263V114H480.99V108.087C478.899 110.297 476.361 112.059 473.375 113.373C470.389 114.627 467.134 115.254 463.611 115.254ZM465.313 102.802C468.179 102.802 470.747 102.085 473.017 100.652C475.346 99.2187 477.197 97.3375 478.571 95.0083C479.945 92.6194 480.631 89.9917 480.631 87.125C480.631 84.2583 479.945 81.6604 478.571 79.3312C477.197 76.9424 475.346 75.0312 473.017 73.5979C470.747 72.1646 468.209 71.4479 465.402 71.4479C462.536 71.4479 459.938 72.1646 457.609 73.5979C455.339 75.0312 453.518 76.9424 452.144 79.3312C450.77 81.6604 450.084 84.2583 450.084 87.125C450.084 89.9917 450.77 92.6194 452.144 95.0083C453.518 97.3375 455.339 99.2187 457.609 100.652C459.938 102.085 462.506 102.802 465.313 102.802ZM530.468 115.254C525.511 115.254 521.002 114 516.941 111.492C512.88 108.924 509.625 105.519 507.176 101.279C504.787 96.9792 503.593 92.2611 503.593 87.125C503.593 81.9889 504.787 77.3007 507.176 73.0604C509.625 68.7604 512.88 65.3562 516.941 62.8479C521.002 60.2799 525.511 58.9958 530.468 58.9958C533.514 58.9958 536.321 59.4736 538.889 60.4292C541.516 61.3847 543.875 62.6986 545.966 64.3708V28H560.03V114H547.757V108.267C545.667 110.417 543.129 112.119 540.143 113.373C537.157 114.627 533.932 115.254 530.468 115.254ZM532.08 102.802C534.947 102.802 537.515 102.085 539.784 100.652C542.114 99.2187 543.965 97.3375 545.339 95.0083C546.712 92.6194 547.399 89.9917 547.399 87.125C547.399 84.2583 546.712 81.6604 545.339 79.3312C543.965 76.9424 542.114 75.0312 539.784 73.5979C537.515 72.1646 534.977 71.4479 532.17 71.4479C529.303 71.4479 526.705 72.1646 524.376 73.5979C522.107 75.0312 520.285 76.9424 518.911 79.3312C517.538 81.6604 516.851 84.2583 516.851 87.125C516.851 89.9917 517.538 92.6194 518.911 95.0083C520.285 97.3375 522.107 99.2187 524.376 100.652C526.705 102.085 529.273 102.802 532.08 102.802ZM571.704 140.875L589.531 105.221L567.404 60.25H582.992L592.935 80.8542C593.831 82.7056 594.637 84.4375 595.354 86.05C596.071 87.6625 596.698 89.3347 597.235 91.0667C597.833 89.3347 598.489 87.6625 599.206 86.05C599.983 84.4375 600.849 82.7056 601.804 80.8542L611.927 60.25H626.887L586.844 140.875H571.704ZM667.393 114V71.5375H656.822V60.25H667.662V46.0958C667.662 39.825 669.483 35.0771 673.126 31.8521C676.769 28.5674 681.249 26.925 686.564 26.925C688.535 26.925 690.446 27.1639 692.297 27.6417C694.208 28.0597 695.91 28.7465 697.403 29.7021L694.537 41.5271C692.566 39.1979 690.267 38.0333 687.639 38.0333C686.086 38.0333 684.623 38.6007 683.249 39.7354C681.876 40.8104 681.189 42.8708 681.189 45.9167V60.25H692.476V71.5375H681.458V114H667.393ZM724.679 115.613C719.364 115.613 714.496 114.328 710.077 111.76C705.717 109.192 702.253 105.758 699.685 101.458C697.117 97.1583 695.833 92.3806 695.833 87.125C695.833 81.8694 697.117 77.0917 699.685 72.7917C702.253 68.4917 705.717 65.0576 710.077 62.4896C714.496 59.9215 719.334 58.6375 724.589 58.6375C729.964 58.6375 734.832 59.9215 739.191 62.4896C743.551 65.0576 747.015 68.4917 749.583 72.7917C752.211 77.0319 753.525 81.8097 753.525 87.125C753.525 92.3208 752.211 97.0986 749.583 101.458C747.015 105.758 743.551 109.192 739.191 111.76C734.832 114.328 729.994 115.613 724.679 115.613ZM724.589 102.892C727.516 102.892 730.143 102.175 732.473 100.742C734.802 99.3083 736.653 97.3972 738.027 95.0083C739.4 92.6194 740.087 89.9917 740.087 87.125C740.087 84.1986 739.4 81.5708 738.027 79.2417C736.653 76.8528 734.802 74.9417 732.473 73.5083C730.143 72.075 727.516 71.3583 724.589 71.3583C721.723 71.3583 719.125 72.075 716.795 73.5083C714.466 74.9417 712.615 76.8528 711.241 79.2417C709.868 81.5708 709.181 84.1986 709.181 87.125C709.181 89.9917 709.868 92.6194 711.241 95.0083C712.615 97.3972 714.466 99.3083 716.795 100.742C719.125 102.175 721.723 102.892 724.589 102.892ZM763.793 114V60.25H776.424V69.6562C778.335 66.5507 780.724 64.1319 783.591 62.4C786.517 60.6083 789.981 59.7125 793.983 59.7125L797.118 72.4333C795.983 72.075 794.699 71.8958 793.266 71.8958C788.608 71.8958 784.875 73.3889 782.068 76.375C779.261 79.3611 777.858 83.6014 777.858 89.0958V114H763.793ZM100.317 255V174.375H123.519C129.073 174.375 133.761 175.211 137.583 176.883C141.465 178.496 144.571 180.676 146.9 183.423C149.289 186.11 151.021 189.037 152.096 192.202C153.171 195.308 153.708 198.413 153.708 201.519C153.708 204.505 153.171 207.581 152.096 210.746C151.08 213.851 149.378 216.778 146.989 219.525C144.601 222.212 141.495 224.392 137.673 226.065C133.851 227.677 129.133 228.483 123.519 228.483H114.471V255H100.317ZM114.471 215.762H122.712C126.833 215.762 130.058 215.046 132.387 213.612C134.776 212.179 136.478 210.387 137.494 208.237C138.569 206.028 139.106 203.758 139.106 201.429C139.106 199.219 138.599 197.01 137.583 194.8C136.628 192.59 134.955 190.769 132.567 189.335C130.178 187.842 126.893 187.096 122.712 187.096H114.471V215.762ZM185.877 256.613C180.562 256.613 175.694 255.328 171.275 252.76C166.915 250.192 163.451 246.758 160.883 242.458C158.315 238.158 157.031 233.381 157.031 228.125C157.031 222.869 158.315 218.092 160.883 213.792C163.451 209.492 166.915 206.058 171.275 203.49C175.694 200.922 180.532 199.637 185.787 199.637C191.162 199.637 196.03 200.922 200.39 203.49C204.749 206.058 208.213 209.492 210.781 213.792C213.409 218.032 214.723 222.81 214.723 228.125C214.723 233.321 213.409 238.099 210.781 242.458C208.213 246.758 204.749 250.192 200.39 252.76C196.03 255.328 191.192 256.613 185.877 256.613ZM185.787 243.892C188.714 243.892 191.342 243.175 193.671 241.742C196 240.308 197.851 238.397 199.225 236.008C200.599 233.619 201.285 230.992 201.285 228.125C201.285 225.199 200.599 222.571 199.225 220.242C197.851 217.853 196 215.942 193.671 214.508C191.342 213.075 188.714 212.358 185.787 212.358C182.921 212.358 180.323 213.075 177.994 214.508C175.665 215.942 173.813 217.853 172.44 220.242C171.066 222.571 170.379 225.199 170.379 228.125C170.379 230.992 171.066 233.619 172.44 236.008C173.813 238.397 175.665 240.308 177.994 241.742C180.323 243.175 182.921 243.892 185.787 243.892ZM224.991 255V201.25H237.623V210.656C239.534 207.551 241.923 205.132 244.789 203.4C247.716 201.608 251.18 200.712 255.181 200.712L258.316 213.433C257.182 213.075 255.898 212.896 254.464 212.896C249.806 212.896 246.073 214.389 243.266 217.375C240.459 220.361 239.056 224.601 239.056 230.096V255H224.991ZM272.205 255V212.537H261.634V201.25H272.473V183.333H286V201.25H297.288V212.537H286.269V255H272.205ZM312.517 255V212.537H301.946V201.25H312.786V187.096C312.786 180.825 314.607 176.077 318.25 172.852C321.893 169.567 326.373 167.925 331.688 167.925C333.659 167.925 335.57 168.164 337.421 168.642C339.332 169.06 341.034 169.747 342.528 170.702L339.661 182.527C337.69 180.198 335.391 179.033 332.763 179.033C331.21 179.033 329.747 179.601 328.373 180.735C327 181.81 326.313 183.871 326.313 186.917V201.25H337.6V212.537H326.582V255H312.517ZM369.803 256.613C364.488 256.613 359.62 255.328 355.201 252.76C350.841 250.192 347.377 246.758 344.809 242.458C342.241 238.158 340.957 233.381 340.957 228.125C340.957 222.869 342.241 218.092 344.809 213.792C347.377 209.492 350.841 206.058 355.201 203.49C359.62 200.922 364.458 199.637 369.713 199.637C375.088 199.637 379.956 200.922 384.315 203.49C388.675 206.058 392.139 209.492 394.707 213.792C397.335 218.032 398.649 222.81 398.649 228.125C398.649 233.321 397.335 238.099 394.707 242.458C392.139 246.758 388.675 250.192 384.315 252.76C379.956 255.328 375.118 256.613 369.803 256.613ZM369.713 243.892C372.64 243.892 375.267 243.175 377.597 241.742C379.926 240.308 381.777 238.397 383.151 236.008C384.524 233.619 385.211 230.992 385.211 228.125C385.211 225.199 384.524 222.571 383.151 220.242C381.777 217.853 379.926 215.942 377.597 214.508C375.267 213.075 372.64 212.358 369.713 212.358C366.847 212.358 364.249 213.075 361.92 214.508C359.59 215.942 357.739 217.853 356.365 220.242C354.992 222.571 354.305 225.199 354.305 228.125C354.305 230.992 354.992 233.619 356.365 236.008C357.739 238.397 359.59 240.308 361.92 241.742C364.249 243.175 366.847 243.892 369.713 243.892ZM409.007 255V169H423.071V255H409.007ZM436.47 255V201.25H450.534V255H436.47ZM443.547 193.008C441.337 193.008 439.456 192.262 437.903 190.769C436.41 189.216 435.663 187.335 435.663 185.125C435.663 182.856 436.41 180.974 437.903 179.481C439.456 177.988 441.337 177.242 443.547 177.242C445.816 177.242 447.697 177.988 449.19 179.481C450.684 180.974 451.43 182.856 451.43 185.125C451.43 187.335 450.684 189.216 449.19 190.769C447.697 192.262 445.816 193.008 443.547 193.008ZM489.733 256.613C484.417 256.613 479.55 255.328 475.13 252.76C470.771 250.192 467.307 246.758 464.739 242.458C462.171 238.158 460.887 233.381 460.887 228.125C460.887 222.869 462.171 218.092 464.739 213.792C467.307 209.492 470.771 206.058 475.13 203.49C479.55 200.922 484.387 199.637 489.643 199.637C495.018 199.637 499.885 200.922 504.245 203.49C508.605 206.058 512.069 209.492 514.637 213.792C517.264 218.032 518.578 222.81 518.578 228.125C518.578 233.321 517.264 238.099 514.637 242.458C512.069 246.758 508.605 250.192 504.245 252.76C499.885 255.328 495.048 256.613 489.733 256.613ZM489.643 243.892C492.569 243.892 495.197 243.175 497.526 241.742C499.855 240.308 501.707 238.397 503.08 236.008C504.454 233.619 505.141 230.992 505.141 228.125C505.141 225.199 504.454 222.571 503.08 220.242C501.707 217.853 499.855 215.942 497.526 214.508C495.197 213.075 492.569 212.358 489.643 212.358C486.776 212.358 484.178 213.075 481.849 214.508C479.52 215.942 477.669 217.853 476.295 220.242C474.921 222.571 474.235 225.199 474.235 228.125C474.235 230.992 474.921 233.619 476.295 236.008C477.669 238.397 479.52 240.308 481.849 241.742C484.178 243.175 486.776 243.892 489.643 243.892ZM597.157 256.613C591.125 256.613 585.481 255.567 580.226 253.477C575.03 251.387 570.461 248.46 566.519 244.698C562.578 240.876 559.502 236.426 557.292 231.35C555.142 226.274 554.067 220.749 554.067 214.777C554.067 208.865 555.142 203.37 557.292 198.294C559.502 193.158 562.578 188.708 566.519 184.946C570.461 181.124 575.03 178.137 580.226 175.987C585.422 173.838 591.035 172.763 597.067 172.763C602.622 172.763 607.817 173.688 612.655 175.54C617.492 177.331 621.792 179.899 625.555 183.244L621.344 200.085C618.956 196.203 615.671 192.978 611.49 190.41C607.369 187.842 602.562 186.558 597.067 186.558C591.752 186.558 587.004 187.812 582.824 190.321C578.643 192.769 575.328 196.144 572.88 200.444C570.491 204.684 569.297 209.462 569.297 214.777C569.297 220.212 570.491 225.049 572.88 229.29C575.328 233.53 578.643 236.904 582.824 239.412C587.004 241.861 591.722 243.085 596.978 243.085C599.665 243.085 602.174 242.817 604.503 242.279C606.832 241.682 608.922 240.846 610.774 239.771V222.75H592.947V210.388H624.211V248.64C620.568 251.148 616.417 253.119 611.759 254.552C607.16 255.926 602.293 256.613 597.157 256.613ZM662.402 256.254C657.504 256.254 653.025 255 648.964 252.492C644.903 249.924 641.648 246.519 639.2 242.279C636.811 237.979 635.616 233.261 635.616 228.125C635.616 222.989 636.811 218.301 639.2 214.06C641.648 209.76 644.903 206.356 648.964 203.848C653.025 201.28 657.504 199.996 662.402 199.996C665.925 199.996 669.18 200.623 672.166 201.877C675.152 203.131 677.69 204.893 679.781 207.162V201.25H692.054V255H679.781V249.087C677.69 251.297 675.152 253.059 672.166 254.373C669.18 255.627 665.925 256.254 662.402 256.254ZM664.104 243.802C666.97 243.802 669.538 243.085 671.808 241.652C674.137 240.219 675.988 238.337 677.362 236.008C678.736 233.619 679.422 230.992 679.422 228.125C679.422 225.258 678.736 222.66 677.362 220.331C675.988 217.942 674.137 216.031 671.808 214.598C669.538 213.165 667 212.448 664.193 212.448C661.327 212.448 658.729 213.165 656.4 214.598C654.13 216.031 652.309 217.942 650.935 220.331C649.561 222.66 648.875 225.258 648.875 228.125C648.875 230.992 649.561 233.619 650.935 236.008C652.309 238.337 654.13 240.219 656.4 241.652C658.729 243.085 661.297 243.802 664.104 243.802ZM705.34 255V201.25H717.971V207.61C719.942 204.983 722.361 203.012 725.228 201.698C728.094 200.324 731.11 199.637 734.275 199.637C737.56 199.637 740.636 200.354 743.503 201.787C746.369 203.161 748.758 205.192 750.669 207.879C752.759 205.192 755.387 203.161 758.553 201.787C761.718 200.354 765.122 199.637 768.765 199.637C772.647 199.637 776.26 200.533 779.605 202.325C782.949 204.117 785.666 206.715 787.757 210.119C789.847 213.523 790.892 217.614 790.892 222.392V255H776.738V224.362C776.738 220.958 775.753 218.122 773.782 215.852C771.871 213.583 769.273 212.448 765.988 212.448C764.137 212.448 762.375 212.866 760.703 213.702C759.03 214.538 757.687 215.822 756.671 217.554C755.656 219.286 755.148 221.496 755.148 224.183V255H740.994V224.362C740.994 222.093 740.546 220.062 739.65 218.271C738.755 216.419 737.5 214.986 735.888 213.971C734.275 212.896 732.394 212.358 730.244 212.358C728.453 212.358 726.721 212.806 725.048 213.702C723.376 214.538 722.003 215.822 720.928 217.554C719.912 219.286 719.405 221.496 719.405 224.183V255H705.34ZM830.205 256.613C824.293 256.613 819.037 255.358 814.439 252.85C809.9 250.342 806.346 246.908 803.778 242.548C801.27 238.128 800.016 233.142 800.016 227.587C800.016 222.272 801.24 217.524 803.689 213.344C806.197 209.103 809.571 205.759 813.811 203.31C818.052 200.862 822.74 199.637 827.876 199.637C833.132 199.637 837.82 200.862 841.941 203.31C846.121 205.699 849.436 208.954 851.884 213.075C854.333 217.196 855.557 221.884 855.557 227.14V232.246H822.143C820.65 232.246 819.186 232.156 817.753 231.977C816.32 231.798 814.886 231.589 813.453 231.35C814.17 235.232 816.051 238.427 819.097 240.935C822.143 243.444 825.965 244.698 830.564 244.698C833.968 244.698 837.043 243.981 839.791 242.548C842.538 241.115 844.807 239.323 846.599 237.173L849.824 250.342C847.136 252.432 844.12 253.985 840.776 255C837.432 256.075 833.908 256.613 830.205 256.613ZM813.095 222.66C816.141 222.063 819.157 221.765 822.143 221.765H833.699C835.311 221.765 836.834 221.824 838.268 221.944C839.701 222.063 841.075 222.242 842.389 222.481C841.493 219.017 839.731 216.24 837.103 214.15C834.535 212.06 831.429 211.015 827.786 211.015C824.203 211.015 821.098 212.09 818.47 214.24C815.842 216.39 814.05 219.197 813.095 222.66Z" fill="white"/>
<path d="M919.107 210C913.827 210 910.074 211.701 906.412 214.158L879 232.509L906.412 250.842C910.11 253.28 913.992 255 919.107 255C931.194 255 941 244.927 941 232.509C941 220.092 931.194 210 919.107 210Z" fill="#38D200"/>
<path d="M22.2584 104C27.6221 104 31.4346 102.338 35.1537 99.9362L63 82L35.1537 64.0638C31.3972 61.6809 27.4539 60 22.2584 60C9.96114 60.0185 0 69.864 0 82C0 94.136 9.96114 104 22.2584 103.982" fill="#0473EA"/>
</svg>
