<svg width="626" height="213" viewBox="0 0 626 213" fill="none" xmlns="http://www.w3.org/2000/svg">
<path d="M91.6979 76.0625C87.7234 76.0625 84.0046 75.3738 80.5417 73.9965C77.1181 72.6192 74.1076 70.691 71.5104 68.2118C68.9132 65.6933 66.8866 62.7616 65.4306 59.4167C64.0139 56.0718 63.3056 52.4317 63.3056 48.4965C63.3056 44.6007 64.0139 40.9803 65.4306 37.6354C66.8866 34.2512 68.9132 31.3194 71.5104 28.8403C74.1076 26.3218 77.1181 24.3542 80.5417 22.9375C83.9653 21.5208 87.6644 20.8125 91.6389 20.8125C95.2986 20.8125 98.7222 21.4225 101.91 22.6424C105.097 23.8229 107.931 25.515 110.41 27.7187L107.635 38.816C106.061 36.2581 103.897 34.1331 101.142 32.441C98.4271 30.7488 95.2593 29.9028 91.6389 29.9028C88.1366 29.9028 85.0081 30.7292 82.2535 32.3819C79.4988 33.9954 77.3148 36.2187 75.7014 39.0521C74.1273 41.8461 73.3403 44.9942 73.3403 48.4965C73.3403 52.0775 74.1273 55.265 75.7014 58.059C77.3148 60.853 79.4988 63.0764 82.2535 64.7292C85.0081 66.3426 88.1169 67.1493 91.5799 67.1493C93.3507 67.1493 95.0035 66.9722 96.5382 66.6181C98.0729 66.2245 99.4502 65.6736 100.67 64.9653V53.75H88.9236V45.6042H109.524V70.809C107.124 72.4618 104.389 73.7604 101.319 74.7049C98.2894 75.61 95.0822 76.0625 91.6979 76.0625ZM136.932 76.0625C133.036 76.0625 129.573 75.2361 126.543 73.5833C123.552 71.9306 121.211 69.6678 119.518 66.7951C117.866 63.8831 117.039 60.5972 117.039 56.9375C117.039 53.4352 117.846 50.3067 119.459 47.5521C121.112 44.7581 123.336 42.5544 126.13 40.941C128.924 39.3275 132.013 38.5208 135.397 38.5208C138.86 38.5208 141.949 39.3275 144.664 40.941C147.419 42.515 149.603 44.6597 151.216 47.375C152.83 50.0903 153.637 53.1794 153.637 56.6424V60.0069H131.619C130.635 60.0069 129.671 59.9479 128.727 59.8299C127.782 59.7118 126.838 59.5741 125.893 59.4167C126.366 61.9745 127.605 64.0799 129.612 65.7326C131.619 67.3854 134.138 68.2118 137.168 68.2118C139.411 68.2118 141.437 67.7396 143.248 66.7951C145.058 65.8507 146.553 64.6701 147.734 63.2535L149.859 71.9306C148.088 73.3079 146.101 74.331 143.897 75C141.693 75.7083 139.371 76.0625 136.932 76.0625ZM125.657 53.691C127.664 53.2975 129.652 53.1007 131.619 53.1007H139.234C140.296 53.1007 141.3 53.14 142.244 53.2188C143.189 53.2975 144.094 53.4155 144.959 53.5729C144.369 51.2905 143.208 49.4606 141.477 48.0833C139.785 46.706 137.738 46.0174 135.338 46.0174C132.977 46.0174 130.93 46.7257 129.199 48.1424C127.468 49.559 126.287 51.4086 125.657 53.691ZM164.125 75V47.0208H157.16V39.5833H164.302V27.7778H173.215V39.5833H180.653V47.0208H173.392V75H164.125ZM206.184 75V21.875H221.649C225.388 21.875 228.575 22.6227 231.212 24.1181C233.888 25.5741 235.934 27.5417 237.351 30.0208C238.767 32.4606 239.476 35.1366 239.476 38.0486C239.476 40.8426 238.807 43.3808 237.469 45.6632C236.17 47.9062 234.34 49.7164 231.979 51.0938L246.972 75H236.288L223.184 53.75H215.511V75H206.184ZM215.511 45.6632H221.472C223.479 45.6632 225.112 45.2894 226.372 44.5417C227.67 43.794 228.634 42.8299 229.264 41.6493C229.894 40.4687 230.208 39.2685 230.208 38.0486C230.208 35.8843 229.402 34.0937 227.788 32.6771C226.175 31.2604 224.07 30.5521 221.472 30.5521H215.511V45.6632ZM266.756 76.0625C262.86 76.0625 259.397 75.2361 256.367 73.5833C253.376 71.9306 251.035 69.6678 249.343 66.7951C247.69 63.8831 246.863 60.5972 246.863 56.9375C246.863 53.4352 247.67 50.3067 249.284 47.5521C250.936 44.7581 253.16 42.5544 255.954 40.941C258.748 39.3275 261.837 38.5208 265.221 38.5208C268.684 38.5208 271.773 39.3275 274.488 40.941C277.243 42.515 279.427 44.6597 281.041 47.375C282.654 50.0903 283.461 53.1794 283.461 56.6424V60.0069H261.443C260.46 60.0069 259.495 59.9479 258.551 59.8299C257.607 59.7118 256.662 59.5741 255.718 59.4167C256.19 61.9745 257.429 64.0799 259.436 65.7326C261.443 67.3854 263.962 68.2118 266.992 68.2118C269.235 68.2118 271.262 67.7396 273.072 66.7951C274.882 65.8507 276.377 64.6701 277.558 63.2535L279.683 71.9306C277.912 73.3079 275.925 74.331 273.721 75C271.517 75.7083 269.196 76.0625 266.756 76.0625ZM255.482 53.691C257.488 53.2975 259.476 53.1007 261.443 53.1007H269.058C270.12 53.1007 271.124 53.14 272.068 53.2188C273.013 53.2975 273.918 53.4155 274.784 53.5729C274.193 51.2905 273.032 49.4606 271.301 48.0833C269.609 46.706 267.563 46.0174 265.162 46.0174C262.801 46.0174 260.755 46.7257 259.023 48.1424C257.292 49.559 256.111 51.4086 255.482 53.691ZM305.519 75.8264C302.292 75.8264 299.34 75 296.664 73.3472C293.989 71.6551 291.844 69.412 290.23 66.6181C288.656 63.7847 287.869 60.6759 287.869 57.2917C287.869 53.9074 288.656 50.8183 290.23 48.0243C291.844 45.191 293.989 42.9479 296.664 41.2951C299.34 39.603 302.292 38.7569 305.519 38.7569C307.84 38.7569 309.985 39.1701 311.953 39.9965C313.92 40.8229 315.593 41.9838 316.97 43.4792V39.5833H325.057V75H316.97V71.1042C315.593 72.5602 313.92 73.7211 311.953 74.5868C309.985 75.4132 307.84 75.8264 305.519 75.8264ZM306.64 67.6215C308.529 67.6215 310.221 67.1493 311.717 66.2049C313.251 65.2604 314.471 64.0208 315.376 62.4861C316.281 60.912 316.734 59.1806 316.734 57.2917C316.734 55.4028 316.281 53.691 315.376 52.1562C314.471 50.5822 313.251 49.3229 311.717 48.3785C310.221 47.434 308.549 46.9618 306.699 46.9618C304.81 46.9618 303.099 47.434 301.564 48.3785C300.068 49.3229 298.868 50.5822 297.963 52.1562C297.058 53.691 296.605 55.4028 296.605 57.2917C296.605 59.1806 297.058 60.912 297.963 62.4861C298.868 64.0208 300.068 65.2604 301.564 66.2049C303.099 67.1493 304.791 67.6215 306.64 67.6215ZM349.572 75.8264C346.306 75.8264 343.335 75 340.659 73.3472C337.983 71.6551 335.838 69.412 334.225 66.6181C332.651 63.7847 331.863 60.6759 331.863 57.2917C331.863 53.9074 332.651 50.8183 334.225 48.0243C335.838 45.191 337.983 42.9479 340.659 41.2951C343.335 39.603 346.306 38.7569 349.572 38.7569C351.579 38.7569 353.428 39.0718 355.12 39.7014C356.852 40.331 358.406 41.1968 359.784 42.2986V18.3333H369.051V75H360.964V71.2222C359.587 72.6389 357.914 73.7604 355.947 74.5868C353.979 75.4132 351.854 75.8264 349.572 75.8264ZM350.634 67.6215C352.523 67.6215 354.215 67.1493 355.711 66.2049C357.245 65.2604 358.465 64.0208 359.37 62.4861C360.276 60.912 360.728 59.1806 360.728 57.2917C360.728 55.4028 360.276 53.691 359.37 52.1562C358.465 50.5822 357.245 49.3229 355.711 48.3785C354.215 47.434 352.543 46.9618 350.693 46.9618C348.804 46.9618 347.093 47.434 345.558 48.3785C344.063 49.3229 342.862 50.5822 341.957 52.1562C341.052 53.691 340.6 55.4028 340.6 57.2917C340.6 59.1806 341.052 60.912 341.957 62.4861C342.862 64.0208 344.063 65.2604 345.558 66.2049C347.093 67.1493 348.785 67.6215 350.634 67.6215ZM376.743 92.7083L388.49 69.2153L373.91 39.5833H384.181L390.733 53.1597C391.323 54.3796 391.854 55.5208 392.326 56.5833C392.799 57.6458 393.212 58.7477 393.566 59.8889C393.959 58.7477 394.392 57.6458 394.865 56.5833C395.376 55.5208 395.947 54.3796 396.576 53.1597L403.247 39.5833H413.104L386.719 92.7083H376.743ZM439.794 75V47.0208H432.829V39.5833H439.971V30.2569C439.971 26.125 441.171 22.9965 443.572 20.8715C445.972 18.7072 448.924 17.625 452.426 17.625C453.725 17.625 454.984 17.7824 456.204 18.0972C457.463 18.3727 458.584 18.8252 459.568 19.4549L457.679 27.2465C456.381 25.7118 454.866 24.9444 453.134 24.9444C452.111 24.9444 451.147 25.3183 450.242 26.066C449.337 26.7743 448.884 28.1319 448.884 30.1389V39.5833H456.322V47.0208H449.061V75H439.794ZM477.54 76.0625C474.038 76.0625 470.831 75.2164 467.919 73.5243C465.046 71.8322 462.764 69.5694 461.072 66.7361C459.379 63.9028 458.533 60.7546 458.533 57.2917C458.533 53.8287 459.379 50.6806 461.072 47.8472C462.764 45.0139 465.046 42.7512 467.919 41.059C470.831 39.3669 474.018 38.5208 477.481 38.5208C481.023 38.5208 484.23 39.3669 487.103 41.059C489.976 42.7512 492.258 45.0139 493.95 47.8472C495.682 50.6412 496.547 53.7894 496.547 57.2917C496.547 60.7153 495.682 63.8634 493.95 66.7361C492.258 69.5694 489.976 71.8322 487.103 73.5243C484.23 75.2164 481.043 76.0625 477.54 76.0625ZM477.481 67.6806C479.41 67.6806 481.141 67.2083 482.676 66.2639C484.211 65.3194 485.43 64.0602 486.336 62.4861C487.241 60.912 487.693 59.1806 487.693 57.2917C487.693 55.3634 487.241 53.6319 486.336 52.0972C485.43 50.5231 484.211 49.2639 482.676 48.3194C481.141 47.375 479.41 46.9028 477.481 46.9028C475.592 46.9028 473.881 47.375 472.346 48.3194C470.811 49.2639 469.591 50.5231 468.686 52.0972C467.781 53.6319 467.329 55.3634 467.329 57.2917C467.329 59.1806 467.781 60.912 468.686 62.4861C469.591 64.0602 470.811 65.3194 472.346 66.2639C473.881 67.2083 475.592 67.6806 477.481 67.6806ZM503.313 75V39.5833H511.636V45.7812C512.896 43.735 514.47 42.1412 516.359 41C518.287 39.8194 520.569 39.2292 523.206 39.2292L525.272 47.6111C524.524 47.375 523.678 47.2569 522.734 47.2569C519.664 47.2569 517.205 48.2407 515.355 50.2083C513.505 52.1759 512.581 54.9699 512.581 58.5903V75H503.313ZM66.1389 168V114.875H81.4271C85.0868 114.875 88.1759 115.426 90.6944 116.528C93.2523 117.59 95.2986 119.027 96.8333 120.837C98.4074 122.608 99.5486 124.536 100.257 126.622C100.965 128.668 101.319 130.714 101.319 132.76C101.319 134.728 100.965 136.755 100.257 138.84C99.588 140.887 98.4664 142.815 96.8924 144.625C95.3183 146.396 93.272 147.832 90.7535 148.934C88.235 149.997 85.1262 150.528 81.4271 150.528H75.4653V168H66.1389ZM75.4653 142.146H80.8958C83.6111 142.146 85.7361 141.674 87.2708 140.729C88.8449 139.785 89.9664 138.604 90.6354 137.187C91.3438 135.731 91.6979 134.236 91.6979 132.701C91.6979 131.245 91.3634 129.789 90.6944 128.333C90.0648 126.877 88.963 125.677 87.3889 124.733C85.8148 123.749 83.6505 123.257 80.8958 123.257H75.4653V142.146ZM122.516 169.063C119.014 169.063 115.806 168.216 112.894 166.524C110.022 164.832 107.739 162.569 106.047 159.736C104.355 156.903 103.509 153.755 103.509 150.292C103.509 146.829 104.355 143.681 106.047 140.847C107.739 138.014 110.022 135.751 112.894 134.059C115.806 132.367 118.994 131.521 122.457 131.521C125.999 131.521 129.206 132.367 132.078 134.059C134.951 135.751 137.234 138.014 138.926 140.847C140.657 143.641 141.523 146.789 141.523 150.292C141.523 153.715 140.657 156.863 138.926 159.736C137.234 162.569 134.951 164.832 132.078 166.524C129.206 168.216 126.018 169.063 122.516 169.063ZM122.457 160.681C124.385 160.681 126.117 160.208 127.651 159.264C129.186 158.319 130.406 157.06 131.311 155.486C132.216 153.912 132.669 152.181 132.669 150.292C132.669 148.363 132.216 146.632 131.311 145.097C130.406 143.523 129.186 142.264 127.651 141.319C126.117 140.375 124.385 139.903 122.457 139.903C120.568 139.903 118.856 140.375 117.322 141.319C115.787 142.264 114.567 143.523 113.662 145.097C112.757 146.632 112.304 148.363 112.304 150.292C112.304 152.181 112.757 153.912 113.662 155.486C114.567 157.06 115.787 158.319 117.322 159.264C118.856 160.208 120.568 160.681 122.457 160.681ZM148.289 168V132.583H156.612V138.781C157.871 136.735 159.445 135.141 161.334 134C163.262 132.819 165.545 132.229 168.181 132.229L170.247 140.611C169.5 140.375 168.654 140.257 167.709 140.257C164.64 140.257 162.18 141.241 160.331 143.208C158.481 145.176 157.556 147.97 157.556 151.59V168H148.289ZM179.398 168V140.021H172.433V132.583H179.576V120.778H188.489V132.583H195.926V140.021H188.666V168H179.398ZM205.961 168V140.021H198.996V132.583H206.138V123.257C206.138 119.125 207.338 115.997 209.739 113.872C212.139 111.707 215.091 110.625 218.593 110.625C219.891 110.625 221.151 110.782 222.371 111.097C223.63 111.373 224.751 111.825 225.735 112.455L223.846 120.247C222.548 118.712 221.033 117.944 219.301 117.944C218.278 117.944 217.314 118.318 216.409 119.066C215.504 119.774 215.051 121.132 215.051 123.139V132.583H222.489V140.021H215.228V168H205.961ZM243.707 169.063C240.205 169.063 236.998 168.216 234.086 166.524C231.213 164.832 228.931 162.569 227.239 159.736C225.546 156.903 224.7 153.755 224.7 150.292C224.7 146.829 225.546 143.681 227.239 140.847C228.931 138.014 231.213 135.751 234.086 134.059C236.998 132.367 240.185 131.521 243.648 131.521C247.19 131.521 250.397 132.367 253.27 134.059C256.143 135.751 258.425 138.014 260.117 140.847C261.849 143.641 262.714 146.789 262.714 150.292C262.714 153.715 261.849 156.863 260.117 159.736C258.425 162.569 256.143 164.832 253.27 166.524C250.397 168.216 247.21 169.063 243.707 169.063ZM243.648 160.681C245.577 160.681 247.308 160.208 248.843 159.264C250.377 158.319 251.597 157.06 252.502 155.486C253.408 153.912 253.86 152.181 253.86 150.292C253.86 148.363 253.408 146.632 252.502 145.097C251.597 143.523 250.377 142.264 248.843 141.319C247.308 140.375 245.577 139.903 243.648 139.903C241.759 139.903 240.048 140.375 238.513 141.319C236.978 142.264 235.758 143.523 234.853 145.097C233.948 146.632 233.496 148.363 233.496 150.292C233.496 152.181 233.948 153.912 234.853 155.486C235.758 157.06 236.978 158.319 238.513 159.264C240.048 160.208 241.759 160.681 243.648 160.681ZM269.539 168V111.333H278.807V168H269.539ZM287.635 168V132.583H296.902V168H287.635ZM292.298 127.153C290.842 127.153 289.603 126.661 288.58 125.677C287.596 124.654 287.104 123.414 287.104 121.958C287.104 120.463 287.596 119.223 288.58 118.24C289.603 117.256 290.842 116.764 292.298 116.764C293.794 116.764 295.033 117.256 296.017 118.24C297.001 119.223 297.493 120.463 297.493 121.958C297.493 123.414 297.001 124.654 296.017 125.677C295.033 126.661 293.794 127.153 292.298 127.153ZM322.731 169.063C319.228 169.063 316.021 168.216 313.109 166.524C310.237 164.832 307.954 162.569 306.262 159.736C304.57 156.903 303.724 153.755 303.724 150.292C303.724 146.829 304.57 143.681 306.262 140.847C307.954 138.014 310.237 135.751 313.109 134.059C316.021 132.367 319.209 131.521 322.672 131.521C326.213 131.521 329.421 132.367 332.293 134.059C335.166 135.751 337.448 138.014 339.141 140.847C340.872 143.641 341.738 146.789 341.738 150.292C341.738 153.715 340.872 156.863 339.141 159.736C337.448 162.569 335.166 164.832 332.293 166.524C329.421 168.216 326.233 169.063 322.731 169.063ZM322.672 160.681C324.6 160.681 326.331 160.208 327.866 159.264C329.401 158.319 330.621 157.06 331.526 155.486C332.431 153.912 332.884 152.181 332.884 150.292C332.884 148.363 332.431 146.632 331.526 145.097C330.621 143.523 329.401 142.264 327.866 141.319C326.331 140.375 324.6 139.903 322.672 139.903C320.783 139.903 319.071 140.375 317.536 141.319C316.002 142.264 314.782 143.523 313.877 145.097C312.972 146.632 312.519 148.363 312.519 150.292C312.519 152.181 312.972 153.912 313.877 155.486C314.782 157.06 316.002 158.319 317.536 159.264C319.071 160.208 320.783 160.681 322.672 160.681ZM393.514 169.063C389.54 169.063 385.821 168.374 382.358 166.997C378.934 165.619 375.924 163.691 373.327 161.212C370.73 158.693 368.703 155.762 367.247 152.417C365.83 149.072 365.122 145.432 365.122 141.497C365.122 137.601 365.83 133.98 367.247 130.635C368.703 127.251 370.73 124.319 373.327 121.84C375.924 119.322 378.934 117.354 382.358 115.937C385.782 114.521 389.481 113.813 393.455 113.813C397.115 113.813 400.539 114.422 403.726 115.642C406.914 116.823 409.747 118.515 412.226 120.719L409.452 131.816C407.878 129.258 405.713 127.133 402.959 125.441C400.243 123.749 397.076 122.903 393.455 122.903C389.953 122.903 386.825 123.729 384.07 125.382C381.315 126.995 379.131 129.219 377.518 132.052C375.944 134.846 375.157 137.994 375.157 141.497C375.157 145.078 375.944 148.265 377.518 151.059C379.131 153.853 381.315 156.076 384.07 157.729C386.825 159.343 389.933 160.149 393.396 160.149C395.167 160.149 396.82 159.972 398.355 159.618C399.889 159.225 401.267 158.674 402.487 157.965V146.75H390.74V138.604H411.341V163.809C408.94 165.462 406.205 166.76 403.136 167.705C400.106 168.61 396.899 169.063 393.514 169.063ZM436.505 168.826C433.278 168.826 430.327 168 427.651 166.347C424.975 164.655 422.83 162.412 421.217 159.618C419.643 156.785 418.856 153.676 418.856 150.292C418.856 146.907 419.643 143.818 421.217 141.024C422.83 138.191 424.975 135.948 427.651 134.295C430.327 132.603 433.278 131.757 436.505 131.757C438.827 131.757 440.971 132.17 442.939 132.997C444.907 133.823 446.579 134.984 447.956 136.479V132.583H456.043V168H447.956V164.104C446.579 165.56 444.907 166.721 442.939 167.587C440.971 168.413 438.827 168.826 436.505 168.826ZM437.627 160.622C439.515 160.622 441.208 160.149 442.703 159.205C444.238 158.26 445.458 157.021 446.363 155.486C447.268 153.912 447.72 152.181 447.72 150.292C447.72 148.403 447.268 146.691 446.363 145.156C445.458 143.582 444.238 142.323 442.703 141.378C441.208 140.434 439.535 139.962 437.686 139.962C435.797 139.962 434.085 140.434 432.55 141.378C431.055 142.323 429.855 143.582 428.949 145.156C428.044 146.691 427.592 148.403 427.592 150.292C427.592 152.181 428.044 153.912 428.949 155.486C429.855 157.021 431.055 158.26 432.55 159.205C434.085 160.149 435.777 160.622 437.627 160.622ZM464.798 168V132.583H473.121V136.774C474.419 135.043 476.013 133.744 477.902 132.878C479.791 131.973 481.778 131.521 483.864 131.521C486.028 131.521 488.055 131.993 489.944 132.937C491.832 133.843 493.407 135.181 494.666 136.951C496.043 135.181 497.775 133.843 499.86 132.937C501.946 131.993 504.189 131.521 506.589 131.521C509.147 131.521 511.528 132.111 513.732 133.292C515.935 134.472 517.726 136.184 519.103 138.427C520.481 140.67 521.169 143.366 521.169 146.514V168H511.843V147.812C511.843 145.569 511.194 143.7 509.895 142.205C508.636 140.709 506.924 139.962 504.76 139.962C503.54 139.962 502.379 140.237 501.277 140.788C500.175 141.339 499.29 142.185 498.621 143.326C497.952 144.468 497.617 145.924 497.617 147.694V168H488.291V147.812C488.291 146.317 487.996 144.979 487.405 143.799C486.815 142.579 485.989 141.634 484.926 140.965C483.864 140.257 482.624 139.903 481.207 139.903C480.027 139.903 478.886 140.198 477.784 140.788C476.682 141.339 475.777 142.185 475.069 143.326C474.4 144.468 474.065 145.924 474.065 147.694V168H464.798ZM547.073 169.063C543.177 169.063 539.714 168.236 536.684 166.583C533.694 164.931 531.352 162.668 529.66 159.795C528.007 156.883 527.181 153.597 527.181 149.937C527.181 146.435 527.988 143.307 529.601 140.552C531.254 137.758 533.477 135.554 536.271 133.941C539.065 132.328 542.154 131.521 545.539 131.521C549.001 131.521 552.091 132.328 554.806 133.941C557.561 135.515 559.745 137.66 561.358 140.375C562.971 143.09 563.778 146.179 563.778 149.642V153.007H541.761C540.777 153.007 539.813 152.948 538.868 152.83C537.924 152.712 536.979 152.574 536.035 152.417C536.507 154.975 537.747 157.08 539.754 158.733C541.761 160.385 544.279 161.212 547.309 161.212C549.552 161.212 551.579 160.74 553.389 159.795C555.199 158.851 556.695 157.67 557.875 156.253L560 164.931C558.229 166.308 556.242 167.331 554.039 168C551.835 168.708 549.513 169.063 547.073 169.063ZM535.799 146.691C537.806 146.297 539.793 146.101 541.761 146.101H549.375C550.438 146.101 551.441 146.14 552.386 146.219C553.33 146.297 554.235 146.416 555.101 146.573C554.511 144.291 553.35 142.461 551.618 141.083C549.926 139.706 547.88 139.017 545.479 139.017C543.118 139.017 541.072 139.726 539.341 141.142C537.609 142.559 536.429 144.409 535.799 146.691Z" fill="white"/>
<path d="M611.522 138C608.031 138 605.549 139.134 603.128 140.772L585 153.006L603.128 165.228C605.573 166.853 608.14 168 611.522 168C619.515 168 626 161.284 626 153.006C626 144.728 619.515 138 611.522 138Z" fill="#38D200"/>
<path d="M14.4856 60C17.9763 60 20.4574 58.9043 22.8778 57.3216L41 45.5L22.8778 33.6784C20.4331 32.1079 17.8668 31 14.4856 31C6.48265 31.0122 0 37.5013 0 45.5C0 53.4987 6.48265 60 14.4856 59.9878" fill="#0473EA"/>
</svg>
