<svg width="626" height="260" viewBox="0 0 626 260" fill="none" xmlns="http://www.w3.org/2000/svg">
<path d="M91.6979 76.0625C87.7234 76.0625 84.0046 75.3738 80.5417 73.9965C77.1181 72.6192 74.1076 70.691 71.5104 68.2118C68.9132 65.6933 66.8866 62.7616 65.4306 59.4167C64.0139 56.0718 63.3056 52.4317 63.3056 48.4965C63.3056 44.6007 64.0139 40.9803 65.4306 37.6354C66.8866 34.2512 68.9132 31.3194 71.5104 28.8403C74.1076 26.3218 77.1181 24.3542 80.5417 22.9375C83.9653 21.5208 87.6644 20.8125 91.6389 20.8125C95.2986 20.8125 98.7222 21.4225 101.91 22.6424C105.097 23.8229 107.931 25.515 110.41 27.7187L107.635 38.816C106.061 36.2581 103.897 34.1331 101.142 32.441C98.4271 30.7488 95.2593 29.9028 91.6389 29.9028C88.1366 29.9028 85.0081 30.7292 82.2535 32.3819C79.4988 33.9954 77.3148 36.2187 75.7014 39.0521C74.1273 41.8461 73.3403 44.9942 73.3403 48.4965C73.3403 52.0775 74.1273 55.265 75.7014 58.059C77.3148 60.853 79.4988 63.0764 82.2535 64.7292C85.0081 66.3426 88.1169 67.1493 91.5799 67.1493C93.3507 67.1493 95.0035 66.9722 96.5382 66.6181C98.0729 66.2245 99.4502 65.6736 100.67 64.9653V53.75H88.9236V45.6042H109.524V70.809C107.124 72.4618 104.389 73.7604 101.319 74.7049C98.2894 75.61 95.0822 76.0625 91.6979 76.0625ZM136.932 76.0625C133.036 76.0625 129.573 75.2361 126.543 73.5833C123.552 71.9306 121.211 69.6678 119.518 66.7951C117.866 63.8831 117.039 60.5972 117.039 56.9375C117.039 53.4352 117.846 50.3067 119.459 47.5521C121.112 44.7581 123.336 42.5544 126.13 40.941C128.924 39.3275 132.013 38.5208 135.397 38.5208C138.86 38.5208 141.949 39.3275 144.664 40.941C147.419 42.515 149.603 44.6597 151.216 47.375C152.83 50.0903 153.637 53.1794 153.637 56.6424V60.0069H131.619C130.635 60.0069 129.671 59.9479 128.727 59.8299C127.782 59.7118 126.838 59.5741 125.893 59.4167C126.366 61.9745 127.605 64.0799 129.612 65.7326C131.619 67.3854 134.138 68.2118 137.168 68.2118C139.411 68.2118 141.437 67.7396 143.248 66.7951C145.058 65.8507 146.553 64.6701 147.734 63.2535L149.859 71.9306C148.088 73.3079 146.101 74.331 143.897 75C141.693 75.7083 139.371 76.0625 136.932 76.0625ZM125.657 53.691C127.664 53.2975 129.652 53.1007 131.619 53.1007H139.234C140.296 53.1007 141.3 53.14 142.244 53.2188C143.189 53.2975 144.094 53.4155 144.959 53.5729C144.369 51.2905 143.208 49.4606 141.477 48.0833C139.785 46.706 137.738 46.0174 135.338 46.0174C132.977 46.0174 130.93 46.7257 129.199 48.1424C127.468 49.559 126.287 51.4086 125.657 53.691ZM164.125 75V47.0208H157.16V39.5833H164.302V27.7778H173.215V39.5833H180.653V47.0208H173.392V75H164.125ZM206.184 75V21.875H221.649C225.388 21.875 228.575 22.6227 231.212 24.1181C233.888 25.5741 235.934 27.5417 237.351 30.0208C238.767 32.4606 239.476 35.1366 239.476 38.0486C239.476 40.8426 238.807 43.3808 237.469 45.6632C236.17 47.9062 234.34 49.7164 231.979 51.0938L246.972 75H236.288L223.184 53.75H215.511V75H206.184ZM215.511 45.6632H221.472C223.479 45.6632 225.112 45.2894 226.372 44.5417C227.67 43.794 228.634 42.8299 229.264 41.6493C229.894 40.4687 230.208 39.2685 230.208 38.0486C230.208 35.8843 229.402 34.0937 227.788 32.6771C226.175 31.2604 224.07 30.5521 221.472 30.5521H215.511V45.6632ZM266.756 76.0625C262.86 76.0625 259.397 75.2361 256.367 73.5833C253.376 71.9306 251.035 69.6678 249.343 66.7951C247.69 63.8831 246.863 60.5972 246.863 56.9375C246.863 53.4352 247.67 50.3067 249.284 47.5521C250.936 44.7581 253.16 42.5544 255.954 40.941C258.748 39.3275 261.837 38.5208 265.221 38.5208C268.684 38.5208 271.773 39.3275 274.488 40.941C277.243 42.515 279.427 44.6597 281.041 47.375C282.654 50.0903 283.461 53.1794 283.461 56.6424V60.0069H261.443C260.46 60.0069 259.495 59.9479 258.551 59.8299C257.607 59.7118 256.662 59.5741 255.718 59.4167C256.19 61.9745 257.429 64.0799 259.436 65.7326C261.443 67.3854 263.962 68.2118 266.992 68.2118C269.235 68.2118 271.262 67.7396 273.072 66.7951C274.882 65.8507 276.377 64.6701 277.558 63.2535L279.683 71.9306C277.912 73.3079 275.925 74.331 273.721 75C271.517 75.7083 269.196 76.0625 266.756 76.0625ZM255.482 53.691C257.488 53.2975 259.476 53.1007 261.443 53.1007H269.058C270.12 53.1007 271.124 53.14 272.068 53.2188C273.013 53.2975 273.918 53.4155 274.784 53.5729C274.193 51.2905 273.032 49.4606 271.301 48.0833C269.609 46.706 267.563 46.0174 265.162 46.0174C262.801 46.0174 260.755 46.7257 259.023 48.1424C257.292 49.559 256.111 51.4086 255.482 53.691ZM305.519 75.8264C302.292 75.8264 299.34 75 296.664 73.3472C293.989 71.6551 291.844 69.412 290.23 66.6181C288.656 63.7847 287.869 60.6759 287.869 57.2917C287.869 53.9074 288.656 50.8183 290.23 48.0243C291.844 45.191 293.989 42.9479 296.664 41.2951C299.34 39.603 302.292 38.7569 305.519 38.7569C307.84 38.7569 309.985 39.1701 311.953 39.9965C313.92 40.8229 315.593 41.9838 316.97 43.4792V39.5833H325.057V75H316.97V71.1042C315.593 72.5602 313.92 73.7211 311.953 74.5868C309.985 75.4132 307.84 75.8264 305.519 75.8264ZM306.64 67.6215C308.529 67.6215 310.221 67.1493 311.717 66.2049C313.251 65.2604 314.471 64.0208 315.376 62.4861C316.281 60.912 316.734 59.1806 316.734 57.2917C316.734 55.4028 316.281 53.691 315.376 52.1562C314.471 50.5822 313.251 49.3229 311.717 48.3785C310.221 47.434 308.549 46.9618 306.699 46.9618C304.81 46.9618 303.099 47.434 301.564 48.3785C300.068 49.3229 298.868 50.5822 297.963 52.1562C297.058 53.691 296.605 55.4028 296.605 57.2917C296.605 59.1806 297.058 60.912 297.963 62.4861C298.868 64.0208 300.068 65.2604 301.564 66.2049C303.099 67.1493 304.791 67.6215 306.64 67.6215ZM349.572 75.8264C346.306 75.8264 343.335 75 340.659 73.3472C337.983 71.6551 335.838 69.412 334.225 66.6181C332.651 63.7847 331.863 60.6759 331.863 57.2917C331.863 53.9074 332.651 50.8183 334.225 48.0243C335.838 45.191 337.983 42.9479 340.659 41.2951C343.335 39.603 346.306 38.7569 349.572 38.7569C351.579 38.7569 353.428 39.0718 355.12 39.7014C356.852 40.331 358.406 41.1968 359.784 42.2986V18.3333H369.051V75H360.964V71.2222C359.587 72.6389 357.914 73.7604 355.947 74.5868C353.979 75.4132 351.854 75.8264 349.572 75.8264ZM350.634 67.6215C352.523 67.6215 354.215 67.1493 355.711 66.2049C357.245 65.2604 358.465 64.0208 359.37 62.4861C360.276 60.912 360.728 59.1806 360.728 57.2917C360.728 55.4028 360.276 53.691 359.37 52.1562C358.465 50.5822 357.245 49.3229 355.711 48.3785C354.215 47.434 352.543 46.9618 350.693 46.9618C348.804 46.9618 347.093 47.434 345.558 48.3785C344.063 49.3229 342.862 50.5822 341.957 52.1562C341.052 53.691 340.6 55.4028 340.6 57.2917C340.6 59.1806 341.052 60.912 341.957 62.4861C342.862 64.0208 344.063 65.2604 345.558 66.2049C347.093 67.1493 348.785 67.6215 350.634 67.6215ZM376.743 92.7083L388.49 69.2153L373.91 39.5833H384.181L390.733 53.1597C391.323 54.3796 391.854 55.5208 392.326 56.5833C392.799 57.6458 393.212 58.7477 393.566 59.8889C393.959 58.7477 394.392 57.6458 394.865 56.5833C395.376 55.5208 395.947 54.3796 396.576 53.1597L403.247 39.5833H413.104L386.719 92.7083H376.743ZM439.794 75V47.0208H432.829V39.5833H439.971V30.2569C439.971 26.125 441.171 22.9965 443.572 20.8715C445.972 18.7072 448.924 17.625 452.426 17.625C453.725 17.625 454.984 17.7824 456.204 18.0972C457.463 18.3727 458.584 18.8252 459.568 19.4549L457.679 27.2465C456.381 25.7118 454.866 24.9444 453.134 24.9444C452.111 24.9444 451.147 25.3183 450.242 26.066C449.337 26.7743 448.884 28.1319 448.884 30.1389V39.5833H456.322V47.0208H449.061V75H439.794ZM477.54 76.0625C474.038 76.0625 470.831 75.2164 467.919 73.5243C465.046 71.8322 462.764 69.5694 461.072 66.7361C459.379 63.9028 458.533 60.7546 458.533 57.2917C458.533 53.8287 459.379 50.6806 461.072 47.8472C462.764 45.0139 465.046 42.7512 467.919 41.059C470.831 39.3669 474.018 38.5208 477.481 38.5208C481.023 38.5208 484.23 39.3669 487.103 41.059C489.976 42.7512 492.258 45.0139 493.95 47.8472C495.682 50.6412 496.547 53.7894 496.547 57.2917C496.547 60.7153 495.682 63.8634 493.95 66.7361C492.258 69.5694 489.976 71.8322 487.103 73.5243C484.23 75.2164 481.043 76.0625 477.54 76.0625ZM477.481 67.6806C479.41 67.6806 481.141 67.2083 482.676 66.2639C484.211 65.3194 485.43 64.0602 486.336 62.4861C487.241 60.912 487.693 59.1806 487.693 57.2917C487.693 55.3634 487.241 53.6319 486.336 52.0972C485.43 50.5231 484.211 49.2639 482.676 48.3194C481.141 47.375 479.41 46.9028 477.481 46.9028C475.592 46.9028 473.881 47.375 472.346 48.3194C470.811 49.2639 469.591 50.5231 468.686 52.0972C467.781 53.6319 467.329 55.3634 467.329 57.2917C467.329 59.1806 467.781 60.912 468.686 62.4861C469.591 64.0602 470.811 65.3194 472.346 66.2639C473.881 67.2083 475.592 67.6806 477.481 67.6806ZM503.313 75V39.5833H511.636V45.7812C512.896 43.735 514.47 42.1412 516.359 41C518.287 39.8194 520.569 39.2292 523.206 39.2292L525.272 47.6111C524.524 47.375 523.678 47.2569 522.734 47.2569C519.664 47.2569 517.205 48.2407 515.355 50.2083C513.505 52.1759 512.581 54.9699 512.581 58.5903V75H503.313ZM66.1389 168V114.875H81.4271C85.0868 114.875 88.1759 115.426 90.6944 116.528C93.2523 117.59 95.2986 119.027 96.8333 120.837C98.4074 122.608 99.5486 124.536 100.257 126.622C100.965 128.668 101.319 130.714 101.319 132.76C101.319 134.728 100.965 136.755 100.257 138.84C99.588 140.887 98.4664 142.815 96.8924 144.625C95.3183 146.396 93.272 147.832 90.7535 148.934C88.235 149.997 85.1262 150.528 81.4271 150.528H75.4653V168H66.1389ZM75.4653 142.146H80.8958C83.6111 142.146 85.7361 141.674 87.2708 140.729C88.8449 139.785 89.9664 138.604 90.6354 137.187C91.3438 135.731 91.6979 134.236 91.6979 132.701C91.6979 131.245 91.3634 129.789 90.6944 128.333C90.0648 126.877 88.963 125.677 87.3889 124.733C85.8148 123.749 83.6505 123.257 80.8958 123.257H75.4653V142.146ZM122.516 169.063C119.014 169.063 115.806 168.216 112.894 166.524C110.022 164.832 107.739 162.569 106.047 159.736C104.355 156.903 103.509 153.755 103.509 150.292C103.509 146.829 104.355 143.681 106.047 140.847C107.739 138.014 110.022 135.751 112.894 134.059C115.806 132.367 118.994 131.521 122.457 131.521C125.999 131.521 129.206 132.367 132.078 134.059C134.951 135.751 137.234 138.014 138.926 140.847C140.657 143.641 141.523 146.789 141.523 150.292C141.523 153.715 140.657 156.863 138.926 159.736C137.234 162.569 134.951 164.832 132.078 166.524C129.206 168.216 126.018 169.063 122.516 169.063ZM122.457 160.681C124.385 160.681 126.117 160.208 127.651 159.264C129.186 158.319 130.406 157.06 131.311 155.486C132.216 153.912 132.669 152.181 132.669 150.292C132.669 148.363 132.216 146.632 131.311 145.097C130.406 143.523 129.186 142.264 127.651 141.319C126.117 140.375 124.385 139.903 122.457 139.903C120.568 139.903 118.856 140.375 117.322 141.319C115.787 142.264 114.567 143.523 113.662 145.097C112.757 146.632 112.304 148.363 112.304 150.292C112.304 152.181 112.757 153.912 113.662 155.486C114.567 157.06 115.787 158.319 117.322 159.264C118.856 160.208 120.568 160.681 122.457 160.681ZM148.289 168V132.583H156.612V138.781C157.871 136.735 159.445 135.141 161.334 134C163.262 132.819 165.545 132.229 168.181 132.229L170.247 140.611C169.5 140.375 168.654 140.257 167.709 140.257C164.64 140.257 162.18 141.241 160.331 143.208C158.481 145.176 157.556 147.97 157.556 151.59V168H148.289ZM179.398 168V140.021H172.433V132.583H179.576V120.778H188.489V132.583H195.926V140.021H188.666V168H179.398ZM205.961 168V140.021H198.996V132.583H206.138V123.257C206.138 119.125 207.338 115.997 209.739 113.872C212.139 111.707 215.091 110.625 218.593 110.625C219.891 110.625 221.151 110.782 222.371 111.097C223.63 111.373 224.751 111.825 225.735 112.455L223.846 120.247C222.548 118.712 221.033 117.944 219.301 117.944C218.278 117.944 217.314 118.318 216.409 119.066C215.504 119.774 215.051 121.132 215.051 123.139V132.583H222.489V140.021H215.228V168H205.961ZM243.707 169.063C240.205 169.063 236.998 168.216 234.086 166.524C231.213 164.832 228.931 162.569 227.239 159.736C225.546 156.903 224.7 153.755 224.7 150.292C224.7 146.829 225.546 143.681 227.239 140.847C228.931 138.014 231.213 135.751 234.086 134.059C236.998 132.367 240.185 131.521 243.648 131.521C247.19 131.521 250.397 132.367 253.27 134.059C256.143 135.751 258.425 138.014 260.117 140.847C261.849 143.641 262.714 146.789 262.714 150.292C262.714 153.715 261.849 156.863 260.117 159.736C258.425 162.569 256.143 164.832 253.27 166.524C250.397 168.216 247.21 169.063 243.707 169.063ZM243.648 160.681C245.577 160.681 247.308 160.208 248.843 159.264C250.377 158.319 251.597 157.06 252.502 155.486C253.408 153.912 253.86 152.181 253.86 150.292C253.86 148.363 253.408 146.632 252.502 145.097C251.597 143.523 250.377 142.264 248.843 141.319C247.308 140.375 245.577 139.903 243.648 139.903C241.759 139.903 240.048 140.375 238.513 141.319C236.978 142.264 235.758 143.523 234.853 145.097C233.948 146.632 233.496 148.363 233.496 150.292C233.496 152.181 233.948 153.912 234.853 155.486C235.758 157.06 236.978 158.319 238.513 159.264C240.048 160.208 241.759 160.681 243.648 160.681ZM269.539 168V111.333H278.807V168H269.539ZM287.635 168V132.583H296.902V168H287.635ZM292.298 127.153C290.842 127.153 289.603 126.661 288.58 125.677C287.596 124.654 287.104 123.414 287.104 121.958C287.104 120.463 287.596 119.223 288.58 118.24C289.603 117.256 290.842 116.764 292.298 116.764C293.794 116.764 295.033 117.256 296.017 118.24C297.001 119.223 297.493 120.463 297.493 121.958C297.493 123.414 297.001 124.654 296.017 125.677C295.033 126.661 293.794 127.153 292.298 127.153ZM322.731 169.063C319.228 169.063 316.021 168.216 313.109 166.524C310.237 164.832 307.954 162.569 306.262 159.736C304.57 156.903 303.724 153.755 303.724 150.292C303.724 146.829 304.57 143.681 306.262 140.847C307.954 138.014 310.237 135.751 313.109 134.059C316.021 132.367 319.209 131.521 322.672 131.521C326.213 131.521 329.421 132.367 332.293 134.059C335.166 135.751 337.448 138.014 339.141 140.847C340.872 143.641 341.738 146.789 341.738 150.292C341.738 153.715 340.872 156.863 339.141 159.736C337.448 162.569 335.166 164.832 332.293 166.524C329.421 168.216 326.233 169.063 322.731 169.063ZM322.672 160.681C324.6 160.681 326.331 160.208 327.866 159.264C329.401 158.319 330.621 157.06 331.526 155.486C332.431 153.912 332.884 152.181 332.884 150.292C332.884 148.363 332.431 146.632 331.526 145.097C330.621 143.523 329.401 142.264 327.866 141.319C326.331 140.375 324.6 139.903 322.672 139.903C320.783 139.903 319.071 140.375 317.536 141.319C316.002 142.264 314.782 143.523 313.877 145.097C312.972 146.632 312.519 148.363 312.519 150.292C312.519 152.181 312.972 153.912 313.877 155.486C314.782 157.06 316.002 158.319 317.536 159.264C319.071 160.208 320.783 160.681 322.672 160.681ZM393.514 169.063C389.54 169.063 385.821 168.374 382.358 166.997C378.934 165.619 375.924 163.691 373.327 161.212C370.73 158.693 368.703 155.762 367.247 152.417C365.83 149.072 365.122 145.432 365.122 141.497C365.122 137.601 365.83 133.98 367.247 130.635C368.703 127.251 370.73 124.319 373.327 121.84C375.924 119.322 378.934 117.354 382.358 115.937C385.782 114.521 389.481 113.813 393.455 113.813C397.115 113.813 400.539 114.422 403.726 115.642C406.914 116.823 409.747 118.515 412.226 120.719L409.452 131.816C407.878 129.258 405.713 127.133 402.959 125.441C400.243 123.749 397.076 122.903 393.455 122.903C389.953 122.903 386.825 123.729 384.07 125.382C381.315 126.995 379.131 129.219 377.518 132.052C375.944 134.846 375.157 137.994 375.157 141.497C375.157 145.078 375.944 148.265 377.518 151.059C379.131 153.853 381.315 156.076 384.07 157.729C386.825 159.343 389.933 160.149 393.396 160.149C395.167 160.149 396.82 159.972 398.355 159.618C399.889 159.225 401.267 158.674 402.487 157.965V146.75H390.74V138.604H411.341V163.809C408.94 165.462 406.205 166.76 403.136 167.705C400.106 168.61 396.899 169.063 393.514 169.063ZM436.505 168.826C433.278 168.826 430.327 168 427.651 166.347C424.975 164.655 422.83 162.412 421.217 159.618C419.643 156.785 418.856 153.676 418.856 150.292C418.856 146.907 419.643 143.818 421.217 141.024C422.83 138.191 424.975 135.948 427.651 134.295C430.327 132.603 433.278 131.757 436.505 131.757C438.827 131.757 440.971 132.17 442.939 132.997C444.907 133.823 446.579 134.984 447.956 136.479V132.583H456.043V168H447.956V164.104C446.579 165.56 444.907 166.721 442.939 167.587C440.971 168.413 438.827 168.826 436.505 168.826ZM437.627 160.622C439.515 160.622 441.208 160.149 442.703 159.205C444.238 158.26 445.458 157.021 446.363 155.486C447.268 153.912 447.72 152.181 447.72 150.292C447.72 148.403 447.268 146.691 446.363 145.156C445.458 143.582 444.238 142.323 442.703 141.378C441.208 140.434 439.535 139.962 437.686 139.962C435.797 139.962 434.085 140.434 432.55 141.378C431.055 142.323 429.855 143.582 428.949 145.156C428.044 146.691 427.592 148.403 427.592 150.292C427.592 152.181 428.044 153.912 428.949 155.486C429.855 157.021 431.055 158.26 432.55 159.205C434.085 160.149 435.777 160.622 437.627 160.622ZM464.798 168V132.583H473.121V136.774C474.419 135.043 476.013 133.744 477.902 132.878C479.791 131.973 481.778 131.521 483.864 131.521C486.028 131.521 488.055 131.993 489.944 132.937C491.832 133.843 493.407 135.181 494.666 136.951C496.043 135.181 497.775 133.843 499.86 132.937C501.946 131.993 504.189 131.521 506.589 131.521C509.147 131.521 511.528 132.111 513.732 133.292C515.935 134.472 517.726 136.184 519.103 138.427C520.481 140.67 521.169 143.366 521.169 146.514V168H511.843V147.812C511.843 145.569 511.194 143.7 509.895 142.205C508.636 140.709 506.924 139.962 504.76 139.962C503.54 139.962 502.379 140.237 501.277 140.788C500.175 141.339 499.29 142.185 498.621 143.326C497.952 144.468 497.617 145.924 497.617 147.694V168H488.291V147.812C488.291 146.317 487.996 144.979 487.405 143.799C486.815 142.579 485.989 141.634 484.926 140.965C483.864 140.257 482.624 139.903 481.207 139.903C480.027 139.903 478.886 140.198 477.784 140.788C476.682 141.339 475.777 142.185 475.069 143.326C474.4 144.468 474.065 145.924 474.065 147.694V168H464.798ZM547.073 169.063C543.177 169.063 539.714 168.236 536.684 166.583C533.694 164.931 531.352 162.668 529.66 159.795C528.007 156.883 527.181 153.597 527.181 149.937C527.181 146.435 527.988 143.307 529.601 140.552C531.254 137.758 533.477 135.554 536.271 133.941C539.065 132.328 542.154 131.521 545.539 131.521C549.001 131.521 552.091 132.328 554.806 133.941C557.561 135.515 559.745 137.66 561.358 140.375C562.971 143.09 563.778 146.179 563.778 149.642V153.007H541.761C540.777 153.007 539.813 152.948 538.868 152.83C537.924 152.712 536.979 152.574 536.035 152.417C536.507 154.975 537.747 157.08 539.754 158.733C541.761 160.385 544.279 161.212 547.309 161.212C549.552 161.212 551.579 160.74 553.389 159.795C555.199 158.851 556.695 157.67 557.875 156.253L560 164.931C558.229 166.308 556.242 167.331 554.039 168C551.835 168.708 549.513 169.063 547.073 169.063ZM535.799 146.691C537.806 146.297 539.793 146.101 541.761 146.101H549.375C550.438 146.101 551.441 146.14 552.386 146.219C553.33 146.297 554.235 146.416 555.101 146.573C554.511 144.291 553.35 142.461 551.618 141.083C549.926 139.706 547.88 139.017 545.479 139.017C543.118 139.017 541.072 139.726 539.341 141.142C537.609 142.559 536.429 144.409 535.799 146.691Z" fill="white"/>
<path d="M611.522 138C608.031 138 605.549 139.134 603.128 140.772L585 153.006L603.128 165.228C605.573 166.853 608.14 168 611.522 168C619.515 168 626 161.284 626 153.006C626 144.728 619.515 138 611.522 138Z" fill="#38D200"/>
<path d="M14.4856 60C17.9763 60 20.4574 58.9043 22.8778 57.3216L41 45.5L22.8778 33.6784C20.4331 32.1079 17.8668 31 14.4856 31C6.48265 31.0122 0 37.5013 0 45.5C0 53.4987 6.48265 60 14.4856 59.9878" fill="#0473EA"/>
<path d="M68.7257 248.729L60.2917 226.125H63.1111L68.0694 239.25C68.2477 239.704 68.3935 240.141 68.5069 240.562C68.6204 240.968 68.7419 241.454 68.8715 242.021C69.0012 241.454 69.1227 240.968 69.2361 240.562C69.3657 240.141 69.5116 239.704 69.6736 239.25L74.6806 225.396L79.6632 239.25C79.809 239.655 79.9468 240.068 80.0764 240.49C80.2222 240.895 80.3519 241.405 80.4653 242.021C80.5949 241.405 80.7245 240.895 80.8542 240.49C80.9838 240.068 81.1296 239.655 81.2917 239.25L86.25 226.125H88.875L80.4653 248.729L75.4097 234.535C75.2639 234.113 75.1262 233.708 74.9965 233.319C74.8669 232.914 74.7373 232.404 74.6076 231.788C74.478 232.404 74.3484 232.914 74.2188 233.319C74.0891 233.708 73.9514 234.113 73.8056 234.535L68.7257 248.729ZM95.5476 248.194C94.2189 248.194 93.0037 247.862 91.9018 247.198C90.7999 246.517 89.9168 245.61 89.2525 244.476C88.6043 243.341 88.2803 242.086 88.2803 240.708C88.2803 239.331 88.6043 238.075 89.2525 236.941C89.9168 235.807 90.7999 234.907 91.9018 234.243C93.0037 233.562 94.2189 233.222 95.5476 233.222C96.5523 233.222 97.4921 233.409 98.3671 233.781C99.2583 234.154 100.028 234.672 100.676 235.337V233.417H103.107V248H100.676V246.08C100.028 246.728 99.2583 247.247 98.3671 247.635C97.4921 248.008 96.5523 248.194 95.5476 248.194ZM95.8879 245.812C96.8115 245.812 97.646 245.586 98.3914 245.132C99.153 244.662 99.7525 244.046 100.19 243.285C100.644 242.507 100.871 241.648 100.871 240.708C100.871 239.769 100.644 238.918 100.19 238.156C99.7525 237.378 99.153 236.763 98.3914 236.309C97.646 235.839 96.8115 235.604 95.8879 235.604C94.9643 235.604 94.1217 235.839 93.3601 236.309C92.6148 236.763 92.0152 237.378 91.5615 238.156C91.124 238.918 90.9053 239.769 90.9053 240.708C90.9053 241.648 91.124 242.507 91.5615 243.285C92.0152 244.046 92.6148 244.662 93.3601 245.132C94.1217 245.586 94.9643 245.812 95.8879 245.812ZM107.758 248V233.417H110.383V248H107.758ZM109.071 230.792C108.585 230.792 108.171 230.622 107.831 230.281C107.491 229.941 107.321 229.528 107.321 229.042C107.321 228.539 107.491 228.126 107.831 227.802C108.171 227.462 108.585 227.292 109.071 227.292C109.573 227.292 109.986 227.462 110.31 227.802C110.65 228.126 110.821 228.539 110.821 229.042C110.821 229.528 110.65 229.941 110.31 230.281C109.986 230.622 109.573 230.792 109.071 230.792ZM116.74 248V235.604H113.434V233.417H116.813V228.556H119.292V233.417H122.913V235.604H119.365V248H116.74ZM138.822 248.292C137.801 248.292 136.845 248.041 135.954 247.538C135.063 247.02 134.342 246.274 133.791 245.302C133.24 244.33 132.965 243.163 132.965 241.802V233.417H135.59V241.438C135.59 242.588 135.93 243.609 136.61 244.5C137.307 245.375 138.279 245.812 139.527 245.812C140.548 245.812 141.455 245.448 142.249 244.719C143.059 243.973 143.465 242.904 143.465 241.51V233.417H146.09V248H143.659V245.642C143.124 246.501 142.427 247.157 141.569 247.611C140.726 248.065 139.811 248.292 138.822 248.292ZM150.756 248V233.417H153.187V235.774C153.721 234.916 154.41 234.259 155.253 233.806C156.112 233.352 157.035 233.125 158.024 233.125C159.061 233.125 160.017 233.384 160.892 233.903C161.783 234.405 162.504 235.142 163.055 236.115C163.606 237.071 163.881 238.237 163.881 239.615V248H161.256V239.979C161.256 238.829 160.908 237.816 160.211 236.941C159.53 236.05 158.566 235.604 157.319 235.604C156.298 235.604 155.382 235.977 154.572 236.722C153.778 237.451 153.381 238.513 153.381 239.906V248H150.756ZM169.479 248V235.604H166.174V233.417H169.552V228.556H172.031V233.417H175.653V235.604H172.104V248H169.479ZM178.715 248V233.417H181.34V248H178.715ZM180.028 230.792C179.542 230.792 179.128 230.622 178.788 230.281C178.448 229.941 178.278 229.528 178.278 229.042C178.278 228.539 178.448 228.126 178.788 227.802C179.128 227.462 179.542 227.292 180.028 227.292C180.53 227.292 180.943 227.462 181.267 227.802C181.608 228.126 181.778 228.539 181.778 229.042C181.778 229.528 181.608 229.941 181.267 230.281C180.943 230.622 180.53 230.792 180.028 230.792ZM185.995 248V224.667H188.62V248H185.995ZM206.803 248.194C205.474 248.194 204.259 247.862 203.157 247.198C202.055 246.517 201.172 245.61 200.507 244.476C199.859 243.341 199.535 242.086 199.535 240.708C199.535 239.331 199.859 238.075 200.507 236.941C201.172 235.807 202.055 234.907 203.157 234.243C204.259 233.562 205.474 233.222 206.803 233.222C207.807 233.222 208.747 233.409 209.622 233.781C210.513 234.154 211.283 234.672 211.931 235.337V233.417H214.362V248H211.931V246.08C211.283 246.728 210.513 247.247 209.622 247.635C208.747 248.008 207.807 248.194 206.803 248.194ZM207.143 245.812C208.066 245.812 208.901 245.586 209.646 245.132C210.408 244.662 211.007 244.046 211.445 243.285C211.899 242.507 212.125 241.648 212.125 240.708C212.125 239.769 211.899 238.918 211.445 238.156C211.007 237.378 210.408 236.763 209.646 236.309C208.901 235.839 208.066 235.604 207.143 235.604C206.219 235.604 205.377 235.839 204.615 236.309C203.87 236.763 203.27 237.378 202.816 238.156C202.379 238.918 202.16 239.769 202.16 240.708C202.16 241.648 202.379 242.507 202.816 243.285C203.27 244.046 203.87 244.662 204.615 245.132C205.377 245.586 206.219 245.812 207.143 245.812ZM219.013 248V224.667H221.638V248H219.013ZM226.293 248V224.667H228.918V248H226.293ZM240.854 255.292V233.417H243.284V235.337C243.949 234.672 244.718 234.154 245.593 233.781C246.468 233.409 247.408 233.222 248.413 233.222C249.758 233.222 250.973 233.562 252.059 234.243C253.161 234.907 254.036 235.807 254.684 236.941C255.348 238.075 255.68 239.331 255.68 240.708C255.68 242.086 255.348 243.341 254.684 244.476C254.036 245.61 253.161 246.517 252.059 247.198C250.973 247.862 249.758 248.194 248.413 248.194C247.457 248.194 246.558 248.024 245.715 247.684C244.872 247.344 244.127 246.874 243.479 246.274V255.292H240.854ZM248.073 245.812C248.996 245.812 249.831 245.586 250.576 245.132C251.338 244.662 251.937 244.046 252.375 243.285C252.828 242.507 253.055 241.648 253.055 240.708C253.055 239.769 252.828 238.918 252.375 238.156C251.937 237.378 251.338 236.763 250.576 236.309C249.831 235.839 248.996 235.604 248.073 235.604C247.149 235.604 246.306 235.839 245.545 236.309C244.799 236.763 244.2 237.378 243.746 238.156C243.309 238.918 243.09 239.769 243.09 240.708C243.09 241.648 243.309 242.507 243.746 243.285C244.2 244.046 244.799 244.662 245.545 245.132C246.306 245.586 247.149 245.812 248.073 245.812ZM265.557 248.194C264.229 248.194 263.013 247.862 261.912 247.198C260.81 246.517 259.927 245.61 259.262 244.476C258.614 243.341 258.29 242.086 258.29 240.708C258.29 239.331 258.614 238.075 259.262 236.941C259.927 235.807 260.81 234.907 261.912 234.243C263.013 233.562 264.229 233.222 265.557 233.222C266.562 233.222 267.502 233.409 268.377 233.781C269.268 234.154 270.038 234.672 270.686 235.337V233.417H273.116V248H270.686V246.08C270.038 246.728 269.268 247.247 268.377 247.635C267.502 248.008 266.562 248.194 265.557 248.194ZM265.898 245.812C266.821 245.812 267.656 245.586 268.401 245.132C269.163 244.662 269.762 244.046 270.2 243.285C270.653 242.507 270.88 241.648 270.88 240.708C270.88 239.769 270.653 238.918 270.2 238.156C269.762 237.378 269.163 236.763 268.401 236.309C267.656 235.839 266.821 235.604 265.898 235.604C264.974 235.604 264.131 235.839 263.37 236.309C262.625 236.763 262.025 237.378 261.571 238.156C261.134 238.918 260.915 239.769 260.915 240.708C260.915 241.648 261.134 242.507 261.571 243.285C262.025 244.046 262.625 244.662 263.37 245.132C264.131 245.586 264.974 245.812 265.898 245.812ZM277.768 248V233.417H280.198V236.09C280.717 235.231 281.406 234.551 282.264 234.049C283.123 233.53 284.144 233.271 285.327 233.271L285.983 235.896C285.675 235.799 285.319 235.75 284.914 235.75C283.553 235.75 282.459 236.188 281.632 237.062C280.806 237.921 280.393 239.153 280.393 240.757V248H277.768ZM290.407 248V235.604H287.101V233.417H290.48V228.556H292.959V233.417H296.58V235.604H293.032V248H290.407ZM299.643 248V233.417H302.268V248H299.643ZM300.955 230.792C300.469 230.792 300.056 230.622 299.716 230.281C299.376 229.941 299.205 229.528 299.205 229.042C299.205 228.539 299.376 228.126 299.716 227.802C300.056 227.462 300.469 227.292 300.955 227.292C301.458 227.292 301.871 227.462 302.195 227.802C302.535 228.126 302.705 228.539 302.705 229.042C302.705 229.528 302.535 229.941 302.195 230.281C301.871 230.622 301.458 230.792 300.955 230.792ZM313.632 248.292C312.206 248.292 310.909 247.951 309.743 247.271C308.576 246.59 307.644 245.675 306.947 244.524C306.251 243.374 305.902 242.102 305.902 240.708C305.902 239.315 306.251 238.043 306.947 236.892C307.644 235.742 308.576 234.826 309.743 234.146C310.909 233.465 312.206 233.125 313.632 233.125C314.685 233.125 315.673 233.311 316.597 233.684C317.52 234.057 318.331 234.551 319.027 235.167L318.225 238.472C317.82 237.662 317.204 236.981 316.378 236.431C315.568 235.88 314.644 235.604 313.607 235.604C312.667 235.604 311.809 235.839 311.031 236.309C310.269 236.763 309.662 237.378 309.208 238.156C308.754 238.918 308.527 239.769 308.527 240.708C308.527 241.632 308.754 242.483 309.208 243.26C309.662 244.038 310.269 244.662 311.031 245.132C311.809 245.586 312.667 245.812 313.607 245.812C314.644 245.812 315.568 245.545 316.378 245.01C317.204 244.476 317.82 243.787 318.225 242.944L319.027 246.25C318.331 246.866 317.52 247.36 316.597 247.733C315.673 248.105 314.685 248.292 313.632 248.292ZM322.236 248V233.417H324.861V248H322.236ZM323.548 230.792C323.062 230.792 322.649 230.622 322.309 230.281C321.968 229.941 321.798 229.528 321.798 229.042C321.798 228.539 321.968 228.126 322.309 227.802C322.649 227.462 323.062 227.292 323.548 227.292C324.05 227.292 324.464 227.462 324.788 227.802C325.128 228.126 325.298 228.539 325.298 229.042C325.298 229.528 325.128 229.941 324.788 230.281C324.464 230.622 324.05 230.792 323.548 230.792ZM329.516 255.292V233.417H331.947V235.337C332.611 234.672 333.381 234.154 334.256 233.781C335.131 233.409 336.07 233.222 337.075 233.222C338.42 233.222 339.635 233.562 340.721 234.243C341.823 234.907 342.698 235.807 343.346 236.941C344.01 238.075 344.342 239.331 344.342 240.708C344.342 242.086 344.01 243.341 343.346 244.476C342.698 245.61 341.823 246.517 340.721 247.198C339.635 247.862 338.42 248.194 337.075 248.194C336.119 248.194 335.22 248.024 334.377 247.684C333.534 247.344 332.789 246.874 332.141 246.274V255.292H329.516ZM336.735 245.812C337.658 245.812 338.493 245.586 339.238 245.132C340 244.662 340.599 244.046 341.037 243.285C341.49 242.507 341.717 241.648 341.717 240.708C341.717 239.769 341.49 238.918 341.037 238.156C340.599 237.378 340 236.763 339.238 236.309C338.493 235.839 337.658 235.604 336.735 235.604C335.811 235.604 334.968 235.839 334.207 236.309C333.462 236.763 332.862 237.378 332.408 238.156C331.971 238.918 331.752 239.769 331.752 240.708C331.752 241.648 331.971 242.507 332.408 243.285C332.862 244.046 333.462 244.662 334.207 245.132C334.968 245.586 335.811 245.812 336.735 245.812ZM354.22 248.194C352.891 248.194 351.676 247.862 350.574 247.198C349.472 246.517 348.589 245.61 347.924 244.476C347.276 243.341 346.952 242.086 346.952 240.708C346.952 239.331 347.276 238.075 347.924 236.941C348.589 235.807 349.472 234.907 350.574 234.243C351.676 233.562 352.891 233.222 354.22 233.222C355.224 233.222 356.164 233.409 357.039 233.781C357.93 234.154 358.7 234.672 359.348 235.337V233.417H361.779V248H359.348V246.08C358.7 246.728 357.93 247.247 357.039 247.635C356.164 248.008 355.224 248.194 354.22 248.194ZM354.56 245.812C355.483 245.812 356.318 245.586 357.063 245.132C357.825 244.662 358.424 244.046 358.862 243.285C359.316 242.507 359.542 241.648 359.542 240.708C359.542 239.769 359.316 238.918 358.862 238.156C358.424 237.378 357.825 236.763 357.063 236.309C356.318 235.839 355.483 235.604 354.56 235.604C353.636 235.604 352.794 235.839 352.032 236.309C351.287 236.763 350.687 237.378 350.233 238.156C349.796 238.918 349.577 239.769 349.577 240.708C349.577 241.648 349.796 242.507 350.233 243.285C350.687 244.046 351.287 244.662 352.032 245.132C352.794 245.586 353.636 245.812 354.56 245.812ZM366.43 248V233.417H368.861V235.774C369.395 234.916 370.084 234.259 370.927 233.806C371.785 233.352 372.709 233.125 373.697 233.125C374.734 233.125 375.69 233.384 376.565 233.903C377.457 234.405 378.178 235.142 378.729 236.115C379.28 237.071 379.555 238.237 379.555 239.615V248H376.93V239.979C376.93 238.829 376.582 237.816 375.885 236.941C375.204 236.05 374.24 235.604 372.993 235.604C371.972 235.604 371.056 235.977 370.246 236.722C369.452 237.451 369.055 238.513 369.055 239.906V248H366.43ZM385.153 248V235.604H381.847V233.417H385.226V228.556H387.705V233.417H391.326V235.604H387.778V248H385.153ZM398.156 248.292C397.411 248.292 396.609 248.154 395.75 247.878C394.908 247.587 394.178 247.109 393.563 246.444L394.292 243.576C394.745 244.338 395.329 244.946 396.042 245.399C396.755 245.837 397.516 246.056 398.326 246.056C399.104 246.056 399.688 245.869 400.076 245.497C400.465 245.108 400.66 244.638 400.66 244.087C400.66 243.455 400.449 242.993 400.028 242.701C399.623 242.41 399.258 242.207 398.934 242.094L396.965 241.34C396.609 241.194 396.18 240.984 395.677 240.708C395.175 240.417 394.737 240.003 394.365 239.469C393.992 238.934 393.806 238.237 393.806 237.378C393.806 236.601 393.992 235.888 394.365 235.24C394.737 234.591 395.264 234.081 395.945 233.708C396.625 233.319 397.427 233.125 398.351 233.125C399.08 233.125 399.842 233.255 400.636 233.514C401.43 233.773 402.102 234.211 402.653 234.826L401.924 237.694C401.535 236.981 401.008 236.414 400.344 235.993C399.68 235.572 398.991 235.361 398.278 235.361C397.614 235.361 397.087 235.547 396.698 235.92C396.325 236.293 396.139 236.722 396.139 237.208C396.139 237.597 396.269 237.946 396.528 238.253C396.787 238.561 397.176 238.813 397.695 239.007L399.663 239.76C400.02 239.89 400.457 240.101 400.976 240.392C401.511 240.684 401.98 241.105 402.386 241.656C402.791 242.207 402.993 242.953 402.993 243.892C402.993 245.205 402.531 246.266 401.608 247.076C400.7 247.887 399.55 248.292 398.156 248.292ZM420.323 248.194C418.994 248.194 417.779 247.862 416.677 247.198C415.575 246.517 414.692 245.61 414.028 244.476C413.38 243.341 413.056 242.086 413.056 240.708C413.056 239.331 413.38 238.075 414.028 236.941C414.692 235.807 415.575 234.907 416.677 234.243C417.779 233.562 418.994 233.222 420.323 233.222C421.328 233.222 422.267 233.409 423.142 233.781C424.034 234.154 424.803 234.672 425.451 235.337V233.417H427.882V248H425.451V246.08C424.803 246.728 424.034 247.247 423.142 247.635C422.267 248.008 421.328 248.194 420.323 248.194ZM420.663 245.812C421.587 245.812 422.421 245.586 423.167 245.132C423.928 244.662 424.528 244.046 424.965 243.285C425.419 242.507 425.646 241.648 425.646 240.708C425.646 239.769 425.419 238.918 424.965 238.156C424.528 237.378 423.928 236.763 423.167 236.309C422.421 235.839 421.587 235.604 420.663 235.604C419.74 235.604 418.897 235.839 418.136 236.309C417.39 236.763 416.791 237.378 416.337 238.156C415.899 238.918 415.681 239.769 415.681 240.708C415.681 241.648 415.899 242.507 416.337 243.285C416.791 244.046 417.39 244.662 418.136 245.132C418.897 245.586 419.74 245.812 420.663 245.812ZM432.534 248V233.417H434.964V236.09C435.483 235.231 436.171 234.551 437.03 234.049C437.889 233.53 438.91 233.271 440.093 233.271L440.749 235.896C440.441 235.799 440.084 235.75 439.679 235.75C438.318 235.75 437.225 236.188 436.398 237.062C435.572 237.921 435.159 239.153 435.159 240.757V248H432.534ZM449.944 248.292C448.421 248.292 447.052 247.951 445.836 247.271C444.637 246.59 443.689 245.667 442.993 244.5C442.312 243.317 441.972 242.005 441.972 240.562C441.972 239.185 442.304 237.937 442.968 236.819C443.633 235.685 444.524 234.786 445.642 234.122C446.776 233.457 448.024 233.125 449.385 233.125C450.73 233.125 451.961 233.449 453.079 234.097C454.197 234.729 455.089 235.588 455.753 236.674C456.417 237.759 456.749 238.991 456.749 240.368V241.438H447.222C446.8 241.438 446.371 241.421 445.933 241.389C445.496 241.356 445.067 241.308 444.645 241.243C444.824 242.539 445.407 243.625 446.395 244.5C447.4 245.375 448.591 245.812 449.968 245.812C450.892 245.812 451.751 245.602 452.545 245.181C453.339 244.759 453.979 244.2 454.465 243.503L455.194 246.493C454.497 247.06 453.695 247.506 452.788 247.83C451.896 248.138 450.949 248.292 449.944 248.292ZM444.572 239.469C445.447 239.323 446.33 239.25 447.222 239.25H452.058C452.415 239.25 452.763 239.266 453.104 239.299C453.46 239.315 453.817 239.339 454.173 239.372C453.946 238.237 453.379 237.306 452.472 236.576C451.564 235.831 450.535 235.458 449.385 235.458C448.202 235.458 447.165 235.855 446.274 236.649C445.383 237.427 444.815 238.367 444.572 239.469ZM467.534 248V233.417H469.964V236.09C470.483 235.231 471.171 234.551 472.03 234.049C472.889 233.53 473.91 233.271 475.093 233.271L475.749 235.896C475.441 235.799 475.084 235.75 474.679 235.75C473.318 235.75 472.225 236.188 471.398 237.062C470.572 237.921 470.159 239.153 470.159 240.757V248H467.534ZM484.944 248.292C483.421 248.292 482.052 247.951 480.836 247.271C479.637 246.59 478.689 245.667 477.993 244.5C477.312 243.317 476.972 242.005 476.972 240.562C476.972 239.185 477.304 237.937 477.968 236.819C478.633 235.685 479.524 234.786 480.642 234.122C481.776 233.457 483.024 233.125 484.385 233.125C485.73 233.125 486.961 233.449 488.079 234.097C489.197 234.729 490.089 235.588 490.753 236.674C491.417 237.759 491.749 238.991 491.749 240.368V241.438H482.222C481.8 241.438 481.371 241.421 480.933 241.389C480.496 241.356 480.067 241.308 479.645 241.243C479.824 242.539 480.407 243.625 481.395 244.5C482.4 245.375 483.591 245.812 484.968 245.812C485.892 245.812 486.751 245.602 487.545 245.181C488.339 244.759 488.979 244.2 489.465 243.503L490.194 246.493C489.497 247.06 488.695 247.506 487.788 247.83C486.896 248.138 485.949 248.292 484.944 248.292ZM479.572 239.469C480.447 239.323 481.33 239.25 482.222 239.25H487.058C487.415 239.25 487.763 239.266 488.104 239.299C488.46 239.315 488.817 239.339 489.173 239.372C488.946 238.237 488.379 237.306 487.472 236.576C486.564 235.831 485.535 235.458 484.385 235.458C483.202 235.458 482.165 235.855 481.274 236.649C480.383 237.427 479.815 238.367 479.572 239.469ZM501.5 248.194C500.171 248.194 498.956 247.862 497.854 247.198C496.752 246.517 495.869 245.61 495.205 244.476C494.556 243.341 494.232 242.086 494.232 240.708C494.232 239.331 494.556 238.075 495.205 236.941C495.869 235.807 496.752 234.907 497.854 234.243C498.956 233.562 500.171 233.222 501.5 233.222C502.504 233.222 503.444 233.409 504.319 233.781C505.21 234.154 505.98 234.672 506.628 235.337V233.417H509.059V248H506.628V246.08C505.98 246.728 505.21 247.247 504.319 247.635C503.444 248.008 502.504 248.194 501.5 248.194ZM501.84 245.812C502.764 245.812 503.598 245.586 504.344 245.132C505.105 244.662 505.705 244.046 506.142 243.285C506.596 242.507 506.823 241.648 506.823 240.708C506.823 239.769 506.596 238.918 506.142 238.156C505.705 237.378 505.105 236.763 504.344 236.309C503.598 235.839 502.764 235.604 501.84 235.604C500.916 235.604 500.074 235.839 499.312 236.309C498.567 236.763 497.967 237.378 497.514 238.156C497.076 238.918 496.857 239.769 496.857 240.708C496.857 241.648 497.076 242.507 497.514 243.285C497.967 244.046 498.567 244.662 499.312 245.132C500.074 245.586 500.916 245.812 501.84 245.812ZM519.957 248.194C518.628 248.194 517.413 247.862 516.311 247.198C515.209 246.517 514.326 245.61 513.662 244.476C513.014 243.341 512.689 242.086 512.689 240.708C512.689 239.331 513.014 238.075 513.662 236.941C514.326 235.807 515.209 234.907 516.311 234.243C517.413 233.562 518.628 233.222 519.957 233.222C520.913 233.222 521.812 233.392 522.655 233.733C523.497 234.073 524.243 234.543 524.891 235.142V224.667H527.516V248H525.085V246.08C524.437 246.728 523.667 247.247 522.776 247.635C521.901 248.008 520.961 248.194 519.957 248.194ZM520.297 245.812C521.221 245.812 522.055 245.586 522.801 245.132C523.562 244.662 524.162 244.046 524.599 243.285C525.053 242.507 525.28 241.648 525.28 240.708C525.28 239.769 525.053 238.918 524.599 238.156C524.162 237.378 523.562 236.763 522.801 236.309C522.055 235.839 521.221 235.604 520.297 235.604C519.373 235.604 518.531 235.839 517.769 236.309C517.024 236.763 516.424 237.378 515.971 238.156C515.533 238.918 515.314 239.769 515.314 240.708C515.314 241.648 515.533 242.507 515.971 243.285C516.424 244.046 517.024 244.662 517.769 245.132C518.531 245.586 519.373 245.812 520.297 245.812ZM531.56 255.292L536.299 245.861L530.126 233.417H533.091L536.202 239.736C536.478 240.303 536.745 240.862 537.004 241.413C537.263 241.964 537.523 242.628 537.782 243.406C538.057 242.628 538.317 241.964 538.56 241.413C538.819 240.846 539.094 240.287 539.386 239.736L542.546 233.417H545.341L534.403 255.292H531.56Z" fill="white"/>
</svg>
