<svg width="1022" height="287" viewBox="0 0 1022 287" fill="none" xmlns="http://www.w3.org/2000/svg">
<path d="M129.8 86.2C125.311 86.2 121.111 85.4222 117.2 83.8667C113.333 82.3111 109.933 80.1333 107 77.3333C104.067 74.4889 101.778 71.1778 100.133 67.4C98.5332 63.6222 97.7332 59.5111 97.7332 55.0667C97.7332 50.6667 98.5332 46.5778 100.133 42.8C101.778 38.9778 104.067 35.6667 107 32.8667C109.933 30.0222 113.333 27.8 117.2 26.2C121.067 24.6 125.244 23.8 129.733 23.8C133.867 23.8 137.733 24.4889 141.333 25.8667C144.933 27.2 148.133 29.1111 150.933 31.6L147.8 44.1333C146.022 41.2444 143.578 38.8444 140.467 36.9333C137.4 35.0222 133.822 34.0667 129.733 34.0667C125.778 34.0667 122.244 35 119.133 36.8667C116.022 38.6889 113.555 41.2 111.733 44.4C109.955 47.5556 109.067 51.1111 109.067 55.0667C109.067 59.1111 109.955 62.7111 111.733 65.8667C113.555 69.0222 116.022 71.5333 119.133 73.4C122.244 75.2222 125.755 76.1333 129.667 76.1333C131.667 76.1333 133.533 75.9333 135.267 75.5333C137 75.0889 138.555 74.4667 139.933 73.6667V61H126.667V51.8H149.933V80.2667C147.222 82.1333 144.133 83.6 140.667 84.6667C137.244 85.6889 133.622 86.2 129.8 86.2ZM180.887 86.2C176.487 86.2 172.576 85.2667 169.154 83.4C165.776 81.5333 163.132 78.9778 161.221 75.7333C159.354 72.4444 158.421 68.7333 158.421 64.6C158.421 60.6444 159.332 57.1111 161.154 54C163.021 50.8444 165.532 48.3556 168.687 46.5333C171.843 44.7111 175.332 43.8 179.154 43.8C183.065 43.8 186.554 44.7111 189.621 46.5333C192.732 48.3111 195.199 50.7333 197.021 53.8C198.843 56.8667 199.754 60.3556 199.754 64.2667V68.0667H174.887C173.776 68.0667 172.687 68 171.621 67.8667C170.554 67.7333 169.487 67.5778 168.421 67.4C168.954 70.2889 170.354 72.6667 172.621 74.5333C174.887 76.4 177.732 77.3333 181.154 77.3333C183.687 77.3333 185.976 76.8 188.021 75.7333C190.065 74.6667 191.754 73.3333 193.087 71.7333L195.487 81.5333C193.487 83.0889 191.243 84.2444 188.754 85C186.265 85.8 183.643 86.2 180.887 86.2ZM168.154 60.9333C170.421 60.4889 172.665 60.2667 174.887 60.2667H183.487C184.687 60.2667 185.821 60.3111 186.887 60.4C187.954 60.4889 188.976 60.6222 189.954 60.8C189.287 58.2222 187.976 56.1556 186.021 54.6C184.11 53.0444 181.799 52.2667 179.087 52.2667C176.421 52.2667 174.11 53.0667 172.154 54.6667C170.199 56.2667 168.865 58.3556 168.154 60.9333ZM211.6 85V53.4H203.733V45H211.8V31.6667H221.867V45H230.267V53.4H222.067V85H211.6ZM259.102 85V25H276.569C280.791 25 284.391 25.8444 287.369 27.5333C290.391 29.1778 292.702 31.4 294.302 34.2C295.902 36.9556 296.702 39.9778 296.702 43.2667C296.702 46.4222 295.946 49.2889 294.435 51.8667C292.969 54.4 290.902 56.4444 288.235 58L305.169 85H293.102L278.302 61H269.635V85H259.102ZM269.635 51.8667H276.369C278.635 51.8667 280.48 51.4444 281.902 50.6C283.369 49.7556 284.458 48.6667 285.169 47.3333C285.88 46 286.235 44.6444 286.235 43.2667C286.235 40.8222 285.324 38.8 283.502 37.2C281.68 35.6 279.302 34.8 276.369 34.8H269.635V51.8667ZM327.512 86.2C323.112 86.2 319.201 85.2667 315.779 83.4C312.401 81.5333 309.757 78.9778 307.846 75.7333C305.979 72.4444 305.046 68.7333 305.046 64.6C305.046 60.6444 305.957 57.1111 307.779 54C309.646 50.8444 312.157 48.3556 315.312 46.5333C318.468 44.7111 321.957 43.8 325.779 43.8C329.69 43.8 333.179 44.7111 336.246 46.5333C339.357 48.3111 341.824 50.7333 343.646 53.8C345.468 56.8667 346.379 60.3556 346.379 64.2667V68.0667H321.512C320.401 68.0667 319.312 68 318.246 67.8667C317.179 67.7333 316.112 67.5778 315.046 67.4C315.579 70.2889 316.979 72.6667 319.246 74.5333C321.512 76.4 324.357 77.3333 327.779 77.3333C330.312 77.3333 332.601 76.8 334.646 75.7333C336.69 74.6667 338.379 73.3333 339.712 71.7333L342.112 81.5333C340.112 83.0889 337.868 84.2444 335.379 85C332.89 85.8 330.268 86.2 327.512 86.2ZM314.779 60.9333C317.046 60.4889 319.29 60.2667 321.512 60.2667H330.112C331.312 60.2667 332.446 60.3111 333.512 60.4C334.579 60.4889 335.601 60.6222 336.579 60.8C335.912 58.2222 334.601 56.1556 332.646 54.6C330.735 53.0444 328.424 52.2667 325.712 52.2667C323.046 52.2667 320.735 53.0667 318.779 54.6667C316.824 56.2667 315.49 58.3556 314.779 60.9333ZM371.292 85.9333C367.647 85.9333 364.314 85 361.292 83.1333C358.269 81.2222 355.847 78.6889 354.025 75.5333C352.247 72.3333 351.358 68.8222 351.358 65C351.358 61.1778 352.247 57.6889 354.025 54.5333C355.847 51.3333 358.269 48.8 361.292 46.9333C364.314 45.0222 367.647 44.0667 371.292 44.0667C373.914 44.0667 376.336 44.5333 378.558 45.4667C380.78 46.4 382.669 47.7111 384.225 49.4V45H393.358V85H384.225V80.6C382.669 82.2444 380.78 83.5556 378.558 84.5333C376.336 85.4667 373.914 85.9333 371.292 85.9333ZM372.558 76.6667C374.692 76.6667 376.603 76.1333 378.292 75.0667C380.025 74 381.403 72.6 382.425 70.8667C383.447 69.0889 383.958 67.1333 383.958 65C383.958 62.8667 383.447 60.9333 382.425 59.2C381.403 57.4222 380.025 56 378.292 54.9333C376.603 53.8667 374.714 53.3333 372.625 53.3333C370.492 53.3333 368.558 53.8667 366.825 54.9333C365.136 56 363.78 57.4222 362.758 59.2C361.736 60.9333 361.225 62.8667 361.225 65C361.225 67.1333 361.736 69.0889 362.758 70.8667C363.78 72.6 365.136 74 366.825 75.0667C368.558 76.1333 370.469 76.6667 372.558 76.6667ZM421.046 85.9333C417.357 85.9333 414.001 85 410.979 83.1333C407.957 81.2222 405.535 78.6889 403.712 75.5333C401.935 72.3333 401.046 68.8222 401.046 65C401.046 61.1778 401.935 57.6889 403.712 54.5333C405.535 51.3333 407.957 48.8 410.979 46.9333C414.001 45.0222 417.357 44.0667 421.046 44.0667C423.312 44.0667 425.401 44.4222 427.312 45.1333C429.268 45.8444 431.024 46.8222 432.579 48.0667V21H443.046V85H433.912V80.7333C432.357 82.3333 430.468 83.6 428.246 84.5333C426.024 85.4667 423.624 85.9333 421.046 85.9333ZM422.246 76.6667C424.379 76.6667 426.29 76.1333 427.979 75.0667C429.712 74 431.09 72.6 432.112 70.8667C433.135 69.0889 433.646 67.1333 433.646 65C433.646 62.8667 433.135 60.9333 432.112 59.2C431.09 57.4222 429.712 56 427.979 54.9333C426.29 53.8667 424.401 53.3333 422.312 53.3333C420.179 53.3333 418.246 53.8667 416.512 54.9333C414.824 56 413.468 57.4222 412.446 59.2C411.424 60.9333 410.912 62.8667 410.912 65C410.912 67.1333 411.424 69.0889 412.446 70.8667C413.468 72.6 414.824 74 416.512 75.0667C418.246 76.1333 420.157 76.6667 422.246 76.6667ZM451.733 105L465 78.4667L448.533 45H460.133L467.533 60.3333C468.2 61.7111 468.8 63 469.333 64.2C469.867 65.4 470.333 66.6444 470.733 67.9333C471.178 66.6444 471.667 65.4 472.2 64.2C472.778 63 473.422 61.7111 474.133 60.3333L481.667 45H492.8L463 105H451.733ZM522.944 85V53.4H515.077V45H523.144V34.4667C523.144 29.8 524.499 26.2667 527.21 23.8667C529.921 21.4222 533.255 20.2 537.21 20.2C538.677 20.2 540.099 20.3778 541.477 20.7333C542.899 21.0444 544.166 21.5556 545.277 22.2667L543.144 31.0667C541.677 29.3333 539.966 28.4667 538.01 28.4667C536.855 28.4667 535.766 28.8889 534.744 29.7333C533.721 30.5333 533.21 32.0667 533.21 34.3333V45H541.61V53.4H533.41V85H522.944ZM565.575 86.2C561.619 86.2 557.997 85.2444 554.708 83.3333C551.464 81.4222 548.886 78.8667 546.975 75.6667C545.064 72.4667 544.108 68.9111 544.108 65C544.108 61.0889 545.064 57.5333 546.975 54.3333C548.886 51.1333 551.464 48.5778 554.708 46.6667C557.997 44.7556 561.597 43.8 565.508 43.8C569.508 43.8 573.13 44.7556 576.375 46.6667C579.619 48.5778 582.197 51.1333 584.108 54.3333C586.064 57.4889 587.042 61.0444 587.042 65C587.042 68.8667 586.064 72.4222 584.108 75.6667C582.197 78.8667 579.619 81.4222 576.375 83.3333C573.13 85.2444 569.53 86.2 565.575 86.2ZM565.508 76.7333C567.686 76.7333 569.642 76.2 571.375 75.1333C573.108 74.0667 574.486 72.6444 575.508 70.8667C576.53 69.0889 577.042 67.1333 577.042 65C577.042 62.8222 576.53 60.8667 575.508 59.1333C574.486 57.3556 573.108 55.9333 571.375 54.8667C569.642 53.8 567.686 53.2667 565.508 53.2667C563.375 53.2667 561.442 53.8 559.708 54.8667C557.975 55.9333 556.597 57.3556 555.575 59.1333C554.553 60.8667 554.042 62.8222 554.042 65C554.042 67.1333 554.553 69.0889 555.575 70.8667C556.597 72.6444 557.975 74.0667 559.708 75.1333C561.442 76.2 563.375 76.7333 565.508 76.7333ZM594.683 85V45H604.083V52C605.505 49.6889 607.283 47.8889 609.417 46.6C611.594 45.2667 614.172 44.6 617.15 44.6L619.483 54.0667C618.639 53.8 617.683 53.6667 616.617 53.6667C613.15 53.6667 610.372 54.7778 608.283 57C606.194 59.2222 605.15 62.3778 605.15 66.4667V85H594.683ZM643.121 34.8V25H684.254V34.8H669.254V85H658.121V34.8H643.121ZM692.089 85V21H702.556V48.6667C703.978 47.0667 705.667 45.8667 707.623 45.0667C709.578 44.2222 711.645 43.8 713.823 43.8C716.667 43.8 719.312 44.4889 721.756 45.8667C724.245 47.2444 726.245 49.2444 727.756 51.8667C729.267 54.4444 730.023 57.6 730.023 61.3333V85H719.556V62.7333C719.556 60.2444 718.823 58.0444 717.356 56.1333C715.889 54.2222 713.801 53.2667 711.089 53.2667C708.867 53.2667 706.889 54.0444 705.156 55.6C703.423 57.1111 702.556 59.4222 702.556 62.5333V85H692.089ZM759.325 86.2C754.925 86.2 751.014 85.2667 747.592 83.4C744.214 81.5333 741.569 78.9778 739.658 75.7333C737.792 72.4444 736.858 68.7333 736.858 64.6C736.858 60.6444 737.769 57.1111 739.592 54C741.458 50.8444 743.969 48.3556 747.125 46.5333C750.28 44.7111 753.769 43.8 757.592 43.8C761.503 43.8 764.992 44.7111 768.058 46.5333C771.169 48.3111 773.636 50.7333 775.458 53.8C777.28 56.8667 778.192 60.3556 778.192 64.2667V68.0667H753.325C752.214 68.0667 751.125 68 750.058 67.8667C748.992 67.7333 747.925 67.5778 746.858 67.4C747.392 70.2889 748.792 72.6667 751.058 74.5333C753.325 76.4 756.169 77.3333 759.592 77.3333C762.125 77.3333 764.414 76.8 766.458 75.7333C768.503 74.6667 770.192 73.3333 771.525 71.7333L773.925 81.5333C771.925 83.0889 769.68 84.2444 767.192 85C764.703 85.8 762.08 86.2 759.325 86.2ZM746.592 60.9333C748.858 60.4889 751.103 60.2667 753.325 60.2667H761.925C763.125 60.2667 764.258 60.3111 765.325 60.4C766.392 60.4889 767.414 60.6222 768.392 60.8C767.725 58.2222 766.414 56.1556 764.458 54.6C762.547 53.0444 760.236 52.2667 757.525 52.2667C754.858 52.2667 752.547 53.0667 750.592 54.6667C748.636 56.2667 747.303 58.3556 746.592 60.9333ZM836.206 86.2C831.717 86.2 827.517 85.4222 823.606 83.8667C819.739 82.3111 816.339 80.1333 813.406 77.3333C810.473 74.4889 808.184 71.1778 806.539 67.4C804.939 63.6222 804.139 59.5111 804.139 55.0667C804.139 50.6667 804.939 46.5778 806.539 42.8C808.184 38.9778 810.473 35.6667 813.406 32.8667C816.339 30.0222 819.739 27.8 823.606 26.2C827.473 24.6 831.651 23.8 836.139 23.8C840.273 23.8 844.139 24.4889 847.739 25.8667C851.339 27.2 854.539 29.1111 857.339 31.6L854.206 44.1333C852.428 41.2444 849.984 38.8444 846.873 36.9333C843.806 35.0222 840.228 34.0667 836.139 34.0667C832.184 34.0667 828.651 35 825.539 36.8667C822.428 38.6889 819.962 41.2 818.139 44.4C816.362 47.5556 815.473 51.1111 815.473 55.0667C815.473 59.1111 816.362 62.7111 818.139 65.8667C819.962 69.0222 822.428 71.5333 825.539 73.4C828.651 75.2222 832.162 76.1333 836.073 76.1333C838.073 76.1333 839.939 75.9333 841.673 75.5333C843.406 75.0889 844.962 74.4667 846.339 73.6667V61H833.073V51.8H856.339V80.2667C853.628 82.1333 850.539 83.6 847.073 84.6667C843.651 85.6889 840.028 86.2 836.206 86.2ZM867.027 85V45H876.427V52C877.849 49.6889 879.627 47.8889 881.76 46.6C883.938 45.2667 886.516 44.6 889.494 44.6L891.827 54.0667C890.983 53.8 890.027 53.6667 888.96 53.6667C885.494 53.6667 882.716 54.7778 880.627 57C878.538 59.2222 877.494 62.3778 877.494 66.4667V85H867.027ZM916.45 86.2C912.05 86.2 908.139 85.2667 904.717 83.4C901.339 81.5333 898.694 78.9778 896.783 75.7333C894.917 72.4444 893.983 68.7333 893.983 64.6C893.983 60.6444 894.894 57.1111 896.717 54C898.583 50.8444 901.094 48.3556 904.25 46.5333C907.405 44.7111 910.894 43.8 914.717 43.8C918.628 43.8 922.117 44.7111 925.183 46.5333C928.294 48.3111 930.761 50.7333 932.583 53.8C934.405 56.8667 935.317 60.3556 935.317 64.2667V68.0667H910.45C909.339 68.0667 908.25 68 907.183 67.8667C906.117 67.7333 905.05 67.5778 903.983 67.4C904.517 70.2889 905.917 72.6667 908.183 74.5333C910.45 76.4 913.294 77.3333 916.717 77.3333C919.25 77.3333 921.539 76.8 923.583 75.7333C925.628 74.6667 927.317 73.3333 928.65 71.7333L931.05 81.5333C929.05 83.0889 926.805 84.2444 924.317 85C921.828 85.8 919.205 86.2 916.45 86.2ZM903.717 60.9333C905.983 60.4889 908.228 60.2667 910.45 60.2667H919.05C920.25 60.2667 921.383 60.3111 922.45 60.4C923.517 60.4889 924.539 60.6222 925.517 60.8C924.85 58.2222 923.539 56.1556 921.583 54.6C919.672 53.0444 917.361 52.2667 914.65 52.2667C911.983 52.2667 909.672 53.0667 907.717 54.6667C905.761 56.2667 904.428 58.3556 903.717 60.9333ZM960.229 85.9333C956.585 85.9333 953.251 85 950.229 83.1333C947.207 81.2222 944.785 78.6889 942.962 75.5333C941.185 72.3333 940.296 68.8222 940.296 65C940.296 61.1778 941.185 57.6889 942.962 54.5333C944.785 51.3333 947.207 48.8 950.229 46.9333C953.251 45.0222 956.585 44.0667 960.229 44.0667C962.851 44.0667 965.274 44.5333 967.496 45.4667C969.718 46.4 971.607 47.7111 973.162 49.4V45H982.296V85H973.162V80.6C971.607 82.2444 969.718 83.5556 967.496 84.5333C965.274 85.4667 962.851 85.9333 960.229 85.9333ZM961.496 76.6667C963.629 76.6667 965.54 76.1333 967.229 75.0667C968.962 74 970.34 72.6 971.362 70.8667C972.385 69.0889 972.896 67.1333 972.896 65C972.896 62.8667 972.385 60.9333 971.362 59.2C970.34 57.4222 968.962 56 967.229 54.9333C965.54 53.8667 963.651 53.3333 961.562 53.3333C959.429 53.3333 957.496 53.8667 955.762 54.9333C954.074 56 952.718 57.4222 951.696 59.2C950.674 60.9333 950.162 62.8667 950.162 65C950.162 67.1333 950.674 69.0889 951.696 70.8667C952.718 72.6 954.074 74 955.762 75.0667C957.496 76.1333 959.407 76.6667 961.496 76.6667ZM996.85 85V53.4H988.983V45H997.05V31.6667H1007.12V45H1015.52V53.4H1007.32V85H996.85ZM100.933 190V130H118.2C122.333 130 125.822 130.622 128.667 131.867C131.555 133.067 133.867 134.689 135.6 136.733C137.378 138.733 138.667 140.911 139.467 143.267C140.267 145.578 140.667 147.889 140.667 150.2C140.667 152.422 140.267 154.711 139.467 157.067C138.711 159.378 137.444 161.556 135.667 163.6C133.889 165.6 131.578 167.222 128.733 168.467C125.889 169.667 122.378 170.267 118.2 170.267H111.467V190H100.933ZM111.467 160.8H117.6C120.667 160.8 123.067 160.267 124.8 159.2C126.578 158.133 127.844 156.8 128.6 155.2C129.4 153.556 129.8 151.867 129.8 150.133C129.8 148.489 129.422 146.844 128.667 145.2C127.955 143.556 126.711 142.2 124.933 141.133C123.155 140.022 120.711 139.467 117.6 139.467H111.467V160.8ZM164.606 191.2C160.651 191.2 157.028 190.244 153.739 188.333C150.495 186.422 147.917 183.867 146.006 180.667C144.095 177.467 143.139 173.911 143.139 170C143.139 166.089 144.095 162.533 146.006 159.333C147.917 156.133 150.495 153.578 153.739 151.667C157.028 149.756 160.628 148.8 164.539 148.8C168.539 148.8 172.162 149.756 175.406 151.667C178.651 153.578 181.228 156.133 183.139 159.333C185.095 162.489 186.073 166.044 186.073 170C186.073 173.867 185.095 177.422 183.139 180.667C181.228 183.867 178.651 186.422 175.406 188.333C172.162 190.244 168.562 191.2 164.606 191.2ZM164.539 181.733C166.717 181.733 168.673 181.2 170.406 180.133C172.139 179.067 173.517 177.644 174.539 175.867C175.562 174.089 176.073 172.133 176.073 170C176.073 167.822 175.562 165.867 174.539 164.133C173.517 162.356 172.139 160.933 170.406 159.867C168.673 158.8 166.717 158.267 164.539 158.267C162.406 158.267 160.473 158.8 158.739 159.867C157.006 160.933 155.628 162.356 154.606 164.133C153.584 165.867 153.073 167.822 153.073 170C153.073 172.133 153.584 174.089 154.606 175.867C155.628 177.644 157.006 179.067 158.739 180.133C160.473 181.2 162.406 181.733 164.539 181.733ZM193.714 190V150H203.114V157C204.537 154.689 206.314 152.889 208.448 151.6C210.626 150.267 213.203 149.6 216.181 149.6L218.514 159.067C217.67 158.8 216.714 158.667 215.648 158.667C212.181 158.667 209.403 159.778 207.314 162C205.226 164.222 204.181 167.378 204.181 171.467V190H193.714ZM228.85 190V158.4H220.983V150H229.05V136.667H239.117V150H247.517V158.4H239.317V190H228.85ZM258.85 190V158.4H250.983V150H259.05V139.467C259.05 134.8 260.405 131.267 263.117 128.867C265.828 126.422 269.161 125.2 273.117 125.2C274.583 125.2 276.005 125.378 277.383 125.733C278.805 126.044 280.072 126.556 281.183 127.267L279.05 136.067C277.583 134.333 275.872 133.467 273.917 133.467C272.761 133.467 271.672 133.889 270.65 134.733C269.628 135.533 269.117 137.067 269.117 139.333V150H277.517V158.4H269.317V190H258.85ZM301.481 191.2C297.526 191.2 293.903 190.244 290.614 188.333C287.37 186.422 284.792 183.867 282.881 180.667C280.97 177.467 280.014 173.911 280.014 170C280.014 166.089 280.97 162.533 282.881 159.333C284.792 156.133 287.37 153.578 290.614 151.667C293.903 149.756 297.503 148.8 301.414 148.8C305.414 148.8 309.037 149.756 312.281 151.667C315.526 153.578 318.103 156.133 320.014 159.333C321.97 162.489 322.948 166.044 322.948 170C322.948 173.867 321.97 177.422 320.014 180.667C318.103 183.867 315.526 186.422 312.281 188.333C309.037 190.244 305.437 191.2 301.481 191.2ZM301.414 181.733C303.592 181.733 305.548 181.2 307.281 180.133C309.014 179.067 310.392 177.644 311.414 175.867C312.437 174.089 312.948 172.133 312.948 170C312.948 167.822 312.437 165.867 311.414 164.133C310.392 162.356 309.014 160.933 307.281 159.867C305.548 158.8 303.592 158.267 301.414 158.267C299.281 158.267 297.348 158.8 295.614 159.867C293.881 160.933 292.503 162.356 291.481 164.133C290.459 165.867 289.948 167.822 289.948 170C289.948 172.133 290.459 174.089 291.481 175.867C292.503 177.644 293.881 179.067 295.614 180.133C297.348 181.2 299.281 181.733 301.414 181.733ZM330.656 190V126H341.123V190H330.656ZM351.094 190V150H361.56V190H351.094ZM356.36 143.867C354.716 143.867 353.316 143.311 352.16 142.2C351.049 141.044 350.494 139.644 350.494 138C350.494 136.311 351.049 134.911 352.16 133.8C353.316 132.689 354.716 132.133 356.36 132.133C358.049 132.133 359.449 132.689 360.56 133.8C361.671 134.911 362.227 136.311 362.227 138C362.227 139.644 361.671 141.044 360.56 142.2C359.449 143.311 358.049 143.867 356.36 143.867ZM390.731 191.2C386.776 191.2 383.153 190.244 379.864 188.333C376.62 186.422 374.042 183.867 372.131 180.667C370.22 177.467 369.264 173.911 369.264 170C369.264 166.089 370.22 162.533 372.131 159.333C374.042 156.133 376.62 153.578 379.864 151.667C383.153 149.756 386.753 148.8 390.664 148.8C394.664 148.8 398.287 149.756 401.531 151.667C404.776 153.578 407.353 156.133 409.264 159.333C411.22 162.489 412.198 166.044 412.198 170C412.198 173.867 411.22 177.422 409.264 180.667C407.353 183.867 404.776 186.422 401.531 188.333C398.287 190.244 394.687 191.2 390.731 191.2ZM390.664 181.733C392.842 181.733 394.798 181.2 396.531 180.133C398.264 179.067 399.642 177.644 400.664 175.867C401.687 174.089 402.198 172.133 402.198 170C402.198 167.822 401.687 165.867 400.664 164.133C399.642 162.356 398.264 160.933 396.531 159.867C394.798 158.8 392.842 158.267 390.664 158.267C388.531 158.267 386.598 158.8 384.864 159.867C383.131 160.933 381.753 162.356 380.731 164.133C379.709 165.867 379.198 167.822 379.198 170C379.198 172.133 379.709 174.089 380.731 175.867C381.753 177.644 383.131 179.067 384.864 180.133C386.598 181.2 388.531 181.733 390.664 181.733ZM456.542 191.2C452.942 191.2 449.542 190.511 446.342 189.133C443.186 187.756 440.675 186.089 438.808 184.133L441.808 171.867C443.275 174.533 445.386 176.8 448.142 178.667C450.897 180.489 453.83 181.4 456.942 181.4C459.564 181.4 461.653 180.667 463.208 179.2C464.764 177.689 465.542 175.844 465.542 173.667C465.542 171.933 465.142 170.511 464.342 169.4C463.542 168.289 462.608 167.4 461.542 166.733C460.475 166.022 459.564 165.489 458.808 165.133L451.675 161.533C449.853 160.6 448.03 159.489 446.208 158.2C444.386 156.867 442.853 155.178 441.608 153.133C440.408 151.044 439.808 148.467 439.808 145.4C439.808 142.111 440.564 139.222 442.075 136.733C443.586 134.244 445.697 132.311 448.408 130.933C451.164 129.511 454.342 128.8 457.942 128.8C461.408 128.8 464.497 129.378 467.208 130.533C469.919 131.644 472.097 132.844 473.742 134.133L470.875 146.133C469.275 143.956 467.275 142.133 464.875 140.667C462.475 139.2 460.008 138.467 457.475 138.467C455.164 138.467 453.364 139.089 452.075 140.333C450.83 141.533 450.208 143.044 450.208 144.867C450.208 146.067 450.475 147.111 451.008 148C451.586 148.889 452.319 149.667 453.208 150.333C454.142 150.956 455.142 151.533 456.208 152.067L463.475 155.667C464.586 156.2 465.83 156.911 467.208 157.8C468.63 158.689 470.008 159.822 471.342 161.2C472.675 162.533 473.764 164.178 474.608 166.133C475.497 168.044 475.942 170.333 475.942 173C475.942 176.467 475.119 179.578 473.475 182.333C471.875 185.044 469.63 187.2 466.742 188.8C463.897 190.4 460.497 191.2 456.542 191.2ZM483.777 190V126H494.244V153.667C495.666 152.067 497.355 150.867 499.31 150.067C501.266 149.222 503.333 148.8 505.51 148.8C508.355 148.8 510.999 149.489 513.444 150.867C515.933 152.244 517.933 154.244 519.444 156.867C520.955 159.444 521.71 162.6 521.71 166.333V190H511.244V167.733C511.244 165.244 510.51 163.044 509.044 161.133C507.577 159.222 505.488 158.267 502.777 158.267C500.555 158.267 498.577 159.044 496.844 160.6C495.11 162.111 494.244 164.422 494.244 167.533V190H483.777ZM550.012 191.2C546.057 191.2 542.435 190.244 539.146 188.333C535.901 186.422 533.324 183.867 531.412 180.667C529.501 177.467 528.546 173.911 528.546 170C528.546 166.089 529.501 162.533 531.412 159.333C533.324 156.133 535.901 153.578 539.146 151.667C542.435 149.756 546.035 148.8 549.946 148.8C553.946 148.8 557.568 149.756 560.812 151.667C564.057 153.578 566.635 156.133 568.546 159.333C570.501 162.489 571.479 166.044 571.479 170C571.479 173.867 570.501 177.422 568.546 180.667C566.635 183.867 564.057 186.422 560.812 188.333C557.568 190.244 553.968 191.2 550.012 191.2ZM549.946 181.733C552.124 181.733 554.079 181.2 555.812 180.133C557.546 179.067 558.924 177.644 559.946 175.867C560.968 174.089 561.479 172.133 561.479 170C561.479 167.822 560.968 165.867 559.946 164.133C558.924 162.356 557.546 160.933 555.812 159.867C554.079 158.8 552.124 158.267 549.946 158.267C547.812 158.267 545.879 158.8 544.146 159.867C542.412 160.933 541.035 162.356 540.012 164.133C538.99 165.867 538.479 167.822 538.479 170C538.479 172.133 538.99 174.089 540.012 175.867C541.035 177.644 542.412 179.067 544.146 180.133C545.879 181.2 547.812 181.733 549.946 181.733ZM593.408 192L573.408 150H584.742L591.408 164C592.03 165.244 592.63 166.556 593.208 167.933C593.83 169.311 594.43 170.911 595.008 172.733C595.675 170.956 596.319 169.444 596.942 168.2C597.564 166.911 598.186 165.644 598.808 164.4L606.475 148.533L614.342 164.4C614.919 165.556 615.519 166.778 616.142 168.067C616.764 169.356 617.364 170.911 617.942 172.733C618.564 170.778 619.164 169.156 619.742 167.867C620.364 166.533 620.964 165.244 621.542 164L628.208 150H639.008L619.008 192L610.142 176C609.43 174.711 608.764 173.422 608.142 172.133C607.519 170.844 606.875 169.422 606.208 167.867C605.586 169.422 604.942 170.844 604.275 172.133C603.653 173.422 602.964 174.711 602.208 176L593.408 192ZM660.296 190.933C656.607 190.933 653.251 190 650.229 188.133C647.207 186.222 644.785 183.689 642.962 180.533C641.185 177.333 640.296 173.822 640.296 170C640.296 166.178 641.185 162.689 642.962 159.533C644.785 156.333 647.207 153.8 650.229 151.933C653.251 150.022 656.607 149.067 660.296 149.067C662.562 149.067 664.651 149.422 666.562 150.133C668.518 150.844 670.274 151.822 671.829 153.067V126H682.296V190H673.162V185.733C671.607 187.333 669.718 188.6 667.496 189.533C665.274 190.467 662.874 190.933 660.296 190.933ZM661.496 181.667C663.629 181.667 665.54 181.133 667.229 180.067C668.962 179 670.34 177.6 671.362 175.867C672.385 174.089 672.896 172.133 672.896 170C672.896 167.867 672.385 165.933 671.362 164.2C670.34 162.422 668.962 161 667.229 159.933C665.54 158.867 663.651 158.333 661.562 158.333C659.429 158.333 657.496 158.867 655.762 159.933C654.074 161 652.718 162.422 651.696 164.2C650.674 165.933 650.162 167.867 650.162 170C650.162 172.133 650.674 174.089 651.696 175.867C652.718 177.6 654.074 179 655.762 180.067C657.496 181.133 659.407 181.667 661.496 181.667ZM711.45 191.2C707.494 191.2 703.872 190.244 700.583 188.333C697.339 186.422 694.761 183.867 692.85 180.667C690.939 177.467 689.983 173.911 689.983 170C689.983 166.089 690.939 162.533 692.85 159.333C694.761 156.133 697.339 153.578 700.583 151.667C703.872 149.756 707.472 148.8 711.383 148.8C715.383 148.8 719.005 149.756 722.25 151.667C725.494 153.578 728.072 156.133 729.983 159.333C731.939 162.489 732.917 166.044 732.917 170C732.917 173.867 731.939 177.422 729.983 180.667C728.072 183.867 725.494 186.422 722.25 188.333C719.005 190.244 715.405 191.2 711.45 191.2ZM711.383 181.733C713.561 181.733 715.517 181.2 717.25 180.133C718.983 179.067 720.361 177.644 721.383 175.867C722.405 174.089 722.917 172.133 722.917 170C722.917 167.822 722.405 165.867 721.383 164.133C720.361 162.356 718.983 160.933 717.25 159.867C715.517 158.8 713.561 158.267 711.383 158.267C709.25 158.267 707.317 158.8 705.583 159.867C703.85 160.933 702.472 162.356 701.45 164.133C700.428 165.867 699.917 167.822 699.917 170C699.917 172.133 700.428 174.089 701.45 175.867C702.472 177.644 703.85 179.067 705.583 180.133C707.317 181.2 709.25 181.733 711.383 181.733ZM754.846 192L734.846 150H746.179L752.846 164C753.468 165.244 754.068 166.556 754.646 167.933C755.268 169.311 755.868 170.911 756.446 172.733C757.112 170.956 757.757 169.444 758.379 168.2C759.001 166.911 759.624 165.644 760.246 164.4L767.912 148.533L775.779 164.4C776.357 165.556 776.957 166.778 777.579 168.067C778.201 169.356 778.801 170.911 779.379 172.733C780.001 170.778 780.601 169.156 781.179 167.867C781.801 166.533 782.401 165.244 782.979 164L789.646 150H800.446L780.446 192L771.579 176C770.868 174.711 770.201 173.422 769.579 172.133C768.957 170.844 768.312 169.422 767.646 167.867C767.024 169.422 766.379 170.844 765.712 172.133C765.09 173.422 764.401 174.711 763.646 176L754.846 192ZM805.902 190V150H815.302V154.933C816.769 152.933 818.569 151.422 820.702 150.4C822.835 149.333 825.146 148.8 827.635 148.8C830.48 148.8 833.124 149.489 835.569 150.867C838.058 152.244 840.058 154.244 841.569 156.867C843.08 159.444 843.835 162.6 843.835 166.333V190H833.369V167.733C833.369 165.244 832.635 163.044 831.169 161.133C829.702 159.222 827.613 158.267 824.902 158.267C822.68 158.267 820.702 159.044 818.969 160.6C817.235 162.111 816.369 164.422 816.369 167.533V190H805.902Z" fill="white"/>
<path d="M932.107 145C926.827 145 923.074 146.701 919.412 149.158L892 167.509L919.412 185.842C923.11 188.28 926.992 190 932.107 190C944.194 190 954 179.927 954 167.509C954 155.092 944.194 145 932.107 145Z" fill="#38D200"/>
<path d="M22.2584 78C27.6221 78 31.4346 76.3375 35.1537 73.9362L63 56L35.1537 38.0638C31.3972 35.6809 27.4539 34 22.2584 34C9.96114 34.0185 0 43.864 0 56C0 68.136 9.96114 78 22.2584 77.9815" fill="#0473EA"/>
</svg>
