<svg width="113" height="180" viewBox="0 0 113 180" fill="none" xmlns="http://www.w3.org/2000/svg">
<g clip-path="url(#clip0_192_448)">
<mask id="mask0_192_448" style="mask-type:luminance" maskUnits="userSpaceOnUse" x="0" y="0" width="113" height="180">
<path d="M113 0H0V180H113V0Z" fill="white"/>
</mask>
<g mask="url(#mask0_192_448)">
<path d="M87.6757 177.352L12.3109 128.241C12.3109 128.241 2.86157 122.81 0.688235 112.677C-2.34904 98.4507 7.66721 86.2507 7.66721 86.2507L105.494 150.007C113.04 154.924 115.106 165.003 110.246 172.596C105.265 180.405 95.0191 182.121 87.6757 177.352Z" fill="#38D200"/>
<path d="M16.2799 75.7261C16.2799 75.7261 4.73828 68.7547 4.73828 52.6097C4.73828 36.4647 16.2799 29.6419 16.2799 29.6419L57.4788 2.63444C65.0382 -2.28338 75.1355 -0.135212 80.0491 7.41714C84.9627 14.983 82.8164 25.0888 75.2705 29.9931L40.5376 52.6232L99.7036 91.1956C99.7036 91.1956 110.354 97.3023 112.46 107.611C115.389 121.999 105.495 133.848 105.495 133.848L16.2799 75.7261Z" fill="#0473EA"/>
<path d="M93.8448 36.5593C89.9706 36.5593 87.2168 37.7753 84.5305 39.5316L64.417 52.6503L84.5305 65.7555C87.2438 67.4983 90.0921 68.7278 93.8448 68.7278C102.714 68.7278 109.909 61.5267 109.909 52.6503C109.909 43.7739 102.714 36.5593 93.8448 36.5593Z" fill="#38D200"/>
<path d="M16.0773 179.959C19.9515 179.959 22.7053 178.743 25.3916 176.987L45.5051 163.868L25.3916 150.75C22.6783 149.007 19.83 147.777 16.0773 147.777C7.19496 147.791 0 154.992 0 163.868C0 172.745 7.19496 179.959 16.0773 179.946" fill="#0473EA"/>
</g>
</g>
<defs>
<clipPath id="clip0_192_448">
<rect width="113" height="180" fill="white"/>
</clipPath>
</defs>
</svg>
