<svg width="593" height="215" viewBox="0 0 593 215" fill="none" xmlns="http://www.w3.org/2000/svg">
<path d="M91.3479 61.8625C88.2174 61.8625 85.2944 61.2875 82.5792 60.1375C79.8639 58.9556 77.4681 57.3424 75.3917 55.2979C73.3472 53.2215 71.75 50.8417 70.6 48.1583C69.45 45.4431 68.875 42.5361 68.875 39.4375C68.875 36.3389 69.45 33.4479 70.6 30.7646C71.7819 28.0493 73.3951 25.6694 75.4396 23.625C77.516 21.5486 79.9118 19.9354 82.6271 18.7854C85.3424 17.6035 88.2653 17.0125 91.3958 17.0125C94.4625 17.0125 97.3375 17.5875 100.021 18.7375C102.704 19.8556 105.068 21.4049 107.113 23.3854L105.531 29.9979C104.062 27.634 102.081 25.7493 99.5896 24.3438C97.1299 22.9062 94.3986 22.1875 91.3958 22.1875C88.2333 22.1875 85.3743 22.9701 82.8188 24.5354C80.2951 26.0687 78.2826 28.1451 76.7812 30.7646C75.2799 33.3521 74.5292 36.2431 74.5292 39.4375C74.5292 42.5681 75.2639 45.4431 76.7333 48.0625C78.2347 50.6819 80.2472 52.7743 82.7708 54.3396C85.3264 55.9049 88.1854 56.6875 91.3479 56.6875C93.1368 56.6875 94.8299 56.4799 96.4271 56.0646C98.0563 55.6174 99.5417 54.9944 100.883 54.1958V42.8875H89V38H106.154V56.975C104.206 58.6042 101.938 59.834 99.35 60.6646C96.7944 61.4632 94.1271 61.8625 91.3479 61.8625ZM129.316 61.575C126.313 61.575 123.614 60.9042 121.218 59.5625C118.854 58.2208 116.985 56.4 115.612 54.1C114.27 51.7681 113.599 49.1806 113.599 46.3375C113.599 43.6222 114.254 41.1625 115.564 38.9583C116.874 36.7222 118.63 34.9493 120.835 33.6396C123.071 32.3299 125.53 31.675 128.214 31.675C130.865 31.675 133.293 32.3139 135.497 33.5917C137.701 34.8375 139.458 36.5306 140.768 38.6708C142.078 40.8111 142.733 43.2389 142.733 45.9542V48.0625H123.949C123.119 48.0625 122.272 48.0306 121.41 47.9667C120.547 47.9028 119.701 47.8069 118.87 47.6792C119.221 50.2347 120.371 52.375 122.32 54.1C124.301 55.825 126.649 56.6875 129.364 56.6875C131.185 56.6875 132.878 56.2722 134.443 55.4417C136.008 54.6111 137.27 53.509 138.228 52.1354L139.666 58.0292C138.292 59.1472 136.711 60.0257 134.922 60.6646C133.165 61.2715 131.296 61.575 129.316 61.575ZM118.726 44.1812C120.451 43.8937 122.192 43.75 123.949 43.75H133.485C134.187 43.75 134.874 43.7819 135.545 43.8458C136.248 43.8778 136.951 43.9257 137.653 43.9896C137.206 41.7535 136.088 39.9167 134.299 38.4792C132.51 37.0097 130.482 36.275 128.214 36.275C125.882 36.275 123.837 37.0576 122.08 38.6229C120.324 40.1562 119.205 42.009 118.726 44.1812ZM152.994 61V36.5625H146.478V32.25H153.138V22.6667H158.025V32.25H165.165V36.5625H158.169V61H152.994ZM187.136 61V17.875H197.965C200.681 17.875 203.013 18.4181 204.961 19.5042C206.91 20.5903 208.411 22.0278 209.465 23.8167C210.552 25.5736 211.095 27.5062 211.095 29.6146C211.095 31.9785 210.424 34.1028 209.082 35.9875C207.74 37.8722 205.904 39.2618 203.572 40.1562L218.043 61H211.67L197.965 41.1625H192.599V61H187.136ZM192.599 36.5625H197.965C199.818 36.5625 201.32 36.2271 202.47 35.5562C203.652 34.8535 204.514 33.975 205.057 32.9208C205.632 31.8347 205.92 30.7326 205.92 29.6146C205.92 27.6021 205.185 25.9569 203.715 24.6792C202.278 23.4014 200.361 22.7625 197.965 22.7625H192.599V36.5625ZM234.77 61.575C231.767 61.575 229.068 60.9042 226.672 59.5625C224.308 58.2208 222.439 56.4 221.066 54.1C219.724 51.7681 219.053 49.1806 219.053 46.3375C219.053 43.6222 219.708 41.1625 221.018 38.9583C222.328 36.7222 224.085 34.9493 226.289 33.6396C228.525 32.3299 230.985 31.675 233.668 31.675C236.319 31.675 238.747 32.3139 240.951 33.5917C243.155 34.8375 244.912 36.5306 246.222 38.6708C247.532 40.8111 248.187 43.2389 248.187 45.9542V48.0625H229.403C228.573 48.0625 227.726 48.0306 226.864 47.9667C226.001 47.9028 225.155 47.8069 224.324 47.6792C224.676 50.2347 225.826 52.375 227.774 54.1C229.755 55.825 232.103 56.6875 234.818 56.6875C236.639 56.6875 238.332 56.2722 239.897 55.4417C241.462 54.6111 242.724 53.509 243.682 52.1354L245.12 58.0292C243.746 59.1472 242.165 60.0257 240.376 60.6646C238.619 61.2715 236.751 61.575 234.77 61.575ZM224.18 44.1812C225.905 43.8937 227.646 43.75 229.403 43.75H238.939C239.642 43.75 240.328 43.7819 240.999 43.8458C241.702 43.8778 242.405 43.9257 243.107 43.9896C242.66 41.7535 241.542 39.9167 239.753 38.4792C237.964 37.0097 235.936 36.275 233.668 36.275C231.336 36.275 229.292 37.0576 227.535 38.6229C225.778 40.1562 224.66 42.009 224.18 44.1812ZM267.409 61.3833C264.789 61.3833 262.393 60.7285 260.221 59.4187C258.049 58.0771 256.308 56.2882 254.998 54.0521C253.721 51.816 253.082 49.3403 253.082 46.625C253.082 43.9097 253.721 41.434 254.998 39.1979C256.308 36.9618 258.049 35.1889 260.221 33.8792C262.393 32.5375 264.789 31.8667 267.409 31.8667C269.389 31.8667 271.242 32.234 272.967 32.9688C274.724 33.7035 276.241 34.7257 277.519 36.0354V32.25H282.311V61H277.519V57.2146C276.241 58.4924 274.724 59.5146 272.967 60.2812C271.242 61.016 269.389 61.3833 267.409 61.3833ZM268.08 56.6875C269.9 56.6875 271.546 56.2403 273.015 55.3458C274.516 54.4194 275.698 53.2056 276.561 51.7042C277.455 50.1708 277.902 48.4778 277.902 46.625C277.902 44.7722 277.455 43.0951 276.561 41.5938C275.698 40.0604 274.516 38.8465 273.015 37.9521C271.546 37.0257 269.9 36.5625 268.08 36.5625C266.259 36.5625 264.598 37.0257 263.096 37.9521C261.627 38.8465 260.445 40.0604 259.55 41.5938C258.688 43.0951 258.257 44.7722 258.257 46.625C258.257 48.4778 258.688 50.1708 259.55 51.7042C260.445 53.2056 261.627 54.4194 263.096 55.3458C264.598 56.2403 266.259 56.6875 268.08 56.6875ZM303.795 61.3833C301.176 61.3833 298.78 60.7285 296.608 59.4187C294.436 58.0771 292.695 56.2882 291.385 54.0521C290.107 51.816 289.468 49.3403 289.468 46.625C289.468 43.9097 290.107 41.434 291.385 39.1979C292.695 36.9618 294.436 35.1889 296.608 33.8792C298.78 32.5375 301.176 31.8667 303.795 31.8667C305.68 31.8667 307.453 32.2021 309.114 32.8729C310.775 33.5437 312.245 34.4701 313.523 35.6521V15H318.698V61H313.906V57.2146C312.628 58.4924 311.111 59.5146 309.354 60.2812C307.629 61.016 305.776 61.3833 303.795 61.3833ZM304.466 56.6875C306.287 56.6875 307.932 56.2403 309.402 55.3458C310.903 54.4194 312.085 53.2056 312.948 51.7042C313.842 50.1708 314.289 48.4778 314.289 46.625C314.289 44.7722 313.842 43.0951 312.948 41.5938C312.085 40.0604 310.903 38.8465 309.402 37.9521C307.932 37.0257 306.287 36.5625 304.466 36.5625C302.645 36.5625 300.984 37.0257 299.483 37.9521C298.013 38.8465 296.832 40.0604 295.937 41.5938C295.075 43.0951 294.643 44.7722 294.643 46.625C294.643 48.4778 295.075 50.1708 295.937 51.7042C296.832 53.2056 298.013 54.4194 299.483 55.3458C300.984 56.2403 302.645 56.6875 304.466 56.6875ZM326.67 75.375L336.013 56.7833L323.843 32.25H329.688L335.822 44.7083C336.365 45.8264 336.892 46.9285 337.403 48.0146C337.914 49.1007 338.425 50.4104 338.936 51.9437C339.479 50.4104 339.99 49.1007 340.47 48.0146C340.981 46.8965 341.524 45.7944 342.099 44.7083L348.328 32.25H353.838L332.276 75.375H326.67ZM376.705 61V36.5625H370.188V32.25H376.849V24.0083C376.849 20.8778 377.775 18.4979 379.628 16.8687C381.481 15.2396 383.685 14.425 386.241 14.425C387.199 14.425 388.173 14.5368 389.163 14.7604C390.186 14.984 391.144 15.3674 392.038 15.9104L390.793 20.9417C389.451 19.4722 387.886 18.7375 386.097 18.7375C385.011 18.7375 384.004 19.1049 383.078 19.8396C382.184 20.5743 381.736 21.9958 381.736 24.1042V32.25H388.876V36.5625H381.88V61H376.705ZM406.628 61.575C403.848 61.575 401.309 60.9042 399.009 59.5625C396.709 58.2208 394.872 56.416 393.498 54.1479C392.157 51.8799 391.486 49.3722 391.486 46.625C391.486 43.8458 392.157 41.3382 393.498 39.1021C394.872 36.834 396.709 35.0292 399.009 33.6875C401.309 32.3458 403.848 31.675 406.628 31.675C409.439 31.675 411.978 32.3458 414.246 33.6875C416.546 35.0292 418.367 36.834 419.709 39.1021C421.082 41.3382 421.769 43.8458 421.769 46.625C421.769 49.3722 421.082 51.8799 419.709 54.1479C418.367 56.416 416.546 58.2208 414.246 59.5625C411.978 60.9042 409.439 61.575 406.628 61.575ZM406.628 56.6875C408.48 56.6875 410.157 56.2403 411.659 55.3458C413.16 54.4194 414.358 53.2056 415.253 51.7042C416.147 50.1708 416.594 48.4778 416.594 46.625C416.594 44.7722 416.147 43.0951 415.253 41.5938C414.358 40.0604 413.16 38.8465 411.659 37.9521C410.157 37.0257 408.48 36.5625 406.628 36.5625C404.775 36.5625 403.098 37.0257 401.596 37.9521C400.095 38.8465 398.897 40.0604 398.003 41.5938C397.108 43.0951 396.661 44.7722 396.661 46.625C396.661 48.4778 397.108 50.1708 398.003 51.7042C398.897 53.2056 400.095 54.4194 401.596 55.3458C403.098 56.2403 404.775 56.6875 406.628 56.6875ZM428.942 61V32.25H433.733V37.5208C434.756 35.8278 436.113 34.4861 437.806 33.4958C439.499 32.4736 441.512 31.9625 443.844 31.9625L445.138 37.1375C444.531 36.9458 443.828 36.85 443.029 36.85C440.346 36.85 438.19 37.7125 436.561 39.4375C434.931 41.1306 434.117 43.5583 434.117 46.7208V61H428.942ZM68.1083 100.919V93.875H97.6729V100.919H86.8917V137H78.8896V100.919H68.1083ZM103.305 137V91H110.828V110.885C111.85 109.735 113.064 108.873 114.469 108.298C115.875 107.691 117.36 107.387 118.925 107.387C120.97 107.387 122.871 107.883 124.628 108.873C126.416 109.863 127.854 111.301 128.94 113.185C130.026 115.038 130.569 117.306 130.569 119.99V137H123.046V120.996C123.046 119.207 122.519 117.626 121.465 116.252C120.411 114.878 118.909 114.192 116.961 114.192C115.364 114.192 113.942 114.751 112.696 115.869C111.45 116.955 110.828 118.616 110.828 120.852V137H103.305ZM151.63 137.863C148.468 137.863 145.656 137.192 143.197 135.85C140.769 134.508 138.868 132.672 137.495 130.34C136.153 127.976 135.482 125.308 135.482 122.337C135.482 119.494 136.137 116.955 137.447 114.719C138.788 112.451 140.593 110.662 142.861 109.352C145.129 108.042 147.637 107.387 150.384 107.387C153.195 107.387 155.703 108.042 157.907 109.352C160.143 110.63 161.916 112.371 163.226 114.575C164.536 116.779 165.19 119.287 165.19 122.098V124.829H147.318C146.519 124.829 145.736 124.781 144.97 124.685C144.203 124.59 143.436 124.478 142.67 124.35C143.053 126.426 144.059 128.135 145.688 129.477C147.318 130.819 149.362 131.49 151.822 131.49C153.643 131.49 155.288 131.106 156.757 130.34C158.227 129.573 159.44 128.615 160.399 127.465L162.124 134.508C160.686 135.626 159.073 136.457 157.284 137C155.495 137.575 153.611 137.863 151.63 137.863ZM142.478 119.702C144.107 119.383 145.72 119.223 147.318 119.223H153.499C154.361 119.223 155.176 119.255 155.943 119.319C156.709 119.383 157.444 119.478 158.147 119.606C157.668 117.753 156.725 116.268 155.32 115.15C153.946 114.032 152.285 113.473 150.336 113.473C148.42 113.473 146.759 114.048 145.353 115.198C143.947 116.348 142.989 117.849 142.478 119.702ZM206.888 137.863C203.662 137.863 200.643 137.303 197.832 136.185C195.053 135.067 192.609 133.502 190.501 131.49C188.393 129.445 186.748 127.065 185.566 124.35C184.416 121.635 183.841 118.68 183.841 115.485C183.841 112.323 184.416 109.384 185.566 106.669C186.748 103.922 188.393 101.542 190.501 99.5292C192.609 97.4847 195.053 95.8875 197.832 94.7375C200.611 93.5875 203.614 93.0125 206.841 93.0125C209.811 93.0125 212.591 93.5076 215.178 94.4979C217.766 95.4562 220.066 96.8299 222.078 98.6187L219.826 107.627C218.548 105.551 216.791 103.826 214.555 102.452C212.351 101.078 209.779 100.392 206.841 100.392C203.998 100.392 201.458 101.062 199.222 102.404C196.986 103.714 195.213 105.519 193.903 107.819C192.625 110.087 191.986 112.642 191.986 115.485C191.986 118.392 192.625 120.98 193.903 123.248C195.213 125.516 196.986 127.321 199.222 128.662C201.458 129.972 203.982 130.627 206.793 130.627C208.23 130.627 209.572 130.483 210.818 130.196C212.063 129.876 213.182 129.429 214.172 128.854V119.75H204.636V113.138H221.359V133.598C219.411 134.94 217.191 135.994 214.699 136.76C212.239 137.495 209.636 137.863 206.888 137.863ZM229.041 137V108.25H235.797V113.281C236.819 111.62 238.097 110.326 239.631 109.4C241.196 108.442 243.049 107.962 245.189 107.962L246.866 114.767C246.259 114.575 245.572 114.479 244.806 114.479C242.314 114.479 240.317 115.278 238.816 116.875C237.315 118.472 236.564 120.74 236.564 123.679V137H229.041ZM264.564 137.863C261.401 137.863 258.59 137.192 256.13 135.85C253.703 134.508 251.802 132.672 250.428 130.34C249.087 127.976 248.416 125.308 248.416 122.337C248.416 119.494 249.071 116.955 250.38 114.719C251.722 112.451 253.527 110.662 255.795 109.352C258.063 108.042 260.571 107.387 263.318 107.387C266.129 107.387 268.637 108.042 270.841 109.352C273.077 110.63 274.85 112.371 276.16 114.575C277.469 116.779 278.124 119.287 278.124 122.098V124.829H260.251C259.453 124.829 258.67 124.781 257.903 124.685C257.137 124.59 256.37 124.478 255.603 124.35C255.987 126.426 256.993 128.135 258.622 129.477C260.251 130.819 262.296 131.49 264.755 131.49C266.576 131.49 268.221 131.106 269.691 130.34C271.16 129.573 272.374 128.615 273.332 127.465L275.057 134.508C273.62 135.626 272.007 136.457 270.218 137C268.429 137.575 266.544 137.863 264.564 137.863ZM255.412 119.702C257.041 119.383 258.654 119.223 260.251 119.223H266.432C267.295 119.223 268.11 119.255 268.876 119.319C269.643 119.383 270.378 119.478 271.08 119.606C270.601 117.753 269.659 116.268 268.253 115.15C266.88 114.032 265.219 113.473 263.27 113.473C261.353 113.473 259.692 114.048 258.287 115.198C256.881 116.348 255.923 117.849 255.412 119.702ZM296.03 137.671C293.411 137.671 291.015 137 288.842 135.658C286.67 134.285 284.929 132.464 283.62 130.196C282.342 127.896 281.703 125.372 281.703 122.625C281.703 119.878 282.342 117.37 283.62 115.102C284.929 112.802 286.67 110.981 288.842 109.64C291.015 108.266 293.411 107.579 296.03 107.579C297.915 107.579 299.656 107.915 301.253 108.585C302.85 109.256 304.208 110.199 305.326 111.412V108.25H311.89V137H305.326V133.837C304.208 135.019 302.85 135.962 301.253 136.665C299.656 137.335 297.915 137.671 296.03 137.671ZM296.94 131.01C298.474 131.01 299.847 130.627 301.061 129.86C302.307 129.094 303.297 128.087 304.032 126.842C304.767 125.564 305.134 124.158 305.134 122.625C305.134 121.092 304.767 119.702 304.032 118.456C303.297 117.178 302.307 116.156 301.061 115.39C299.847 114.623 298.49 114.24 296.988 114.24C295.455 114.24 294.065 114.623 292.82 115.39C291.606 116.156 290.631 117.178 289.897 118.456C289.162 119.702 288.795 121.092 288.795 122.625C288.795 124.158 289.162 125.564 289.897 126.842C290.631 128.087 291.606 129.094 292.82 129.86C294.065 130.627 295.439 131.01 296.94 131.01ZM322.351 137V114.287H316.697V108.25H322.495V98.6667H329.73V108.25H335.768V114.287H329.874V137H322.351ZM356.35 137V93.875H368.76C371.731 93.875 374.238 94.3222 376.283 95.2167C378.359 96.0792 380.02 97.2451 381.266 98.7146C382.544 100.152 383.47 101.717 384.045 103.41C384.62 105.072 384.908 106.733 384.908 108.394C384.908 109.991 384.62 111.636 384.045 113.329C383.502 114.99 382.592 116.556 381.314 118.025C380.036 119.462 378.375 120.628 376.331 121.523C374.286 122.385 371.763 122.817 368.76 122.817H363.92V137H356.35ZM363.92 116.012H368.329C370.533 116.012 372.258 115.629 373.504 114.862C374.781 114.096 375.692 113.137 376.235 111.987C376.81 110.806 377.097 109.592 377.097 108.346C377.097 107.164 376.826 105.982 376.283 104.8C375.772 103.618 374.877 102.644 373.6 101.877C372.322 101.078 370.565 100.679 368.329 100.679H363.92V116.012ZM402.114 137.863C399.271 137.863 396.668 137.176 394.304 135.802C391.972 134.428 390.119 132.592 388.746 130.292C387.372 127.992 386.685 125.436 386.685 122.625C386.685 119.814 387.372 117.258 388.746 114.958C390.119 112.658 391.972 110.822 394.304 109.448C396.668 108.074 399.255 107.387 402.067 107.387C404.942 107.387 407.545 108.074 409.877 109.448C412.209 110.822 414.062 112.658 415.435 114.958C416.841 117.226 417.544 119.782 417.544 122.625C417.544 125.404 416.841 127.96 415.435 130.292C414.062 132.592 412.209 134.428 409.877 135.802C407.545 137.176 404.958 137.863 402.114 137.863ZM402.067 131.058C403.632 131.058 405.037 130.675 406.283 129.908C407.529 129.142 408.519 128.119 409.254 126.842C409.989 125.564 410.356 124.158 410.356 122.625C410.356 121.06 409.989 119.654 409.254 118.408C408.519 117.131 407.529 116.108 406.283 115.342C405.037 114.575 403.632 114.192 402.067 114.192C400.533 114.192 399.144 114.575 397.898 115.342C396.652 116.108 395.662 117.131 394.927 118.408C394.192 119.654 393.825 121.06 393.825 122.625C393.825 124.158 394.192 125.564 394.927 126.842C395.662 128.119 396.652 129.142 397.898 129.908C399.144 130.675 400.533 131.058 402.067 131.058ZM423.036 137V108.25H429.792V113.281C430.815 111.62 432.092 110.326 433.626 109.4C435.191 108.442 437.044 107.962 439.184 107.962L440.861 114.767C440.254 114.575 439.567 114.479 438.801 114.479C436.309 114.479 434.312 115.278 432.811 116.875C431.31 118.472 430.559 120.74 430.559 123.679V137H423.036ZM448.29 137V114.287H442.635V108.25H448.433V98.6667H455.669V108.25H461.706V114.287H455.813V137H448.29ZM469.852 137V114.287H464.198V108.25H469.996V100.679C469.996 97.325 470.97 94.7854 472.919 93.0604C474.867 91.3035 477.263 90.425 480.106 90.425C481.16 90.425 482.183 90.5528 483.173 90.8083C484.195 91.0319 485.106 91.3993 485.904 91.9104L484.371 98.2354C483.317 96.9896 482.087 96.3667 480.681 96.3667C479.851 96.3667 479.068 96.6701 478.333 97.2771C477.599 97.8521 477.231 98.9542 477.231 100.583V108.25H483.269V114.287H477.375V137H469.852ZM500.493 137.863C497.65 137.863 495.047 137.176 492.683 135.802C490.351 134.428 488.498 132.592 487.125 130.292C485.751 127.992 485.064 125.436 485.064 122.625C485.064 119.814 485.751 117.258 487.125 114.958C488.498 112.658 490.351 110.822 492.683 109.448C495.047 108.074 497.634 107.387 500.445 107.387C503.32 107.387 505.924 108.074 508.256 109.448C510.588 110.822 512.441 112.658 513.814 114.958C515.22 117.226 515.923 119.782 515.923 122.625C515.923 125.404 515.22 127.96 513.814 130.292C512.441 132.592 510.588 134.428 508.256 135.802C505.924 137.176 503.336 137.863 500.493 137.863ZM500.445 131.058C502.011 131.058 503.416 130.675 504.662 129.908C505.908 129.142 506.898 128.119 507.633 126.842C508.368 125.564 508.735 124.158 508.735 122.625C508.735 121.06 508.368 119.654 507.633 118.408C506.898 117.131 505.908 116.108 504.662 115.342C503.416 114.575 502.011 114.192 500.445 114.192C498.912 114.192 497.523 114.575 496.277 115.342C495.031 116.108 494.041 117.131 493.306 118.408C492.571 119.654 492.204 121.06 492.204 122.625C492.204 124.158 492.571 125.564 493.306 126.842C494.041 128.119 495.031 129.142 496.277 129.908C497.523 130.675 498.912 131.058 500.445 131.058ZM521.463 137V91H528.986V137H521.463ZM536.152 137V108.25H543.675V137H536.152ZM539.938 103.842C538.756 103.842 537.75 103.442 536.919 102.644C536.12 101.813 535.721 100.807 535.721 99.625C535.721 98.4111 536.12 97.4049 536.919 96.6062C537.75 95.8076 538.756 95.4083 539.938 95.4083C541.152 95.4083 542.158 95.8076 542.957 96.6062C543.755 97.4049 544.154 98.4111 544.154 99.625C544.154 100.807 543.755 101.813 542.957 102.644C542.158 103.442 541.152 103.842 539.938 103.842ZM564.642 137.863C561.799 137.863 559.195 137.176 556.831 135.802C554.499 134.428 552.647 132.592 551.273 130.292C549.899 127.992 549.213 125.436 549.213 122.625C549.213 119.814 549.899 117.258 551.273 114.958C552.647 112.658 554.499 110.822 556.831 109.448C559.195 108.074 561.783 107.387 564.594 107.387C567.469 107.387 570.072 108.074 572.404 109.448C574.736 110.822 576.589 112.658 577.963 114.958C579.368 117.226 580.071 119.782 580.071 122.625C580.071 125.404 579.368 127.96 577.963 130.292C576.589 132.592 574.736 134.428 572.404 135.802C570.072 137.176 567.485 137.863 564.642 137.863ZM564.594 131.058C566.159 131.058 567.565 130.675 568.811 129.908C570.056 129.142 571.047 128.119 571.781 126.842C572.516 125.564 572.883 124.158 572.883 122.625C572.883 121.06 572.516 119.654 571.781 118.408C571.047 117.131 570.056 116.108 568.811 115.342C567.565 114.575 566.159 114.192 564.594 114.192C563.061 114.192 561.671 114.575 560.425 115.342C559.179 116.108 558.189 117.131 557.454 118.408C556.72 119.654 556.352 121.06 556.352 122.625C556.352 124.158 556.72 125.564 557.454 126.842C558.189 128.119 559.179 129.142 560.425 129.908C561.671 130.675 563.061 131.058 564.594 131.058ZM81.5729 213.863C78.9854 213.863 76.5417 213.367 74.2417 212.377C71.9736 211.387 70.1688 210.189 68.8271 208.783L70.9833 199.967C72.0375 201.883 73.5549 203.512 75.5354 204.854C77.516 206.164 79.6243 206.819 81.8604 206.819C83.7451 206.819 85.2465 206.292 86.3646 205.237C87.4826 204.151 88.0417 202.826 88.0417 201.26C88.0417 200.015 87.7542 198.992 87.1792 198.194C86.6042 197.395 85.9333 196.756 85.1667 196.277C84.4 195.766 83.7451 195.383 83.2021 195.127L78.075 192.54C76.7653 191.869 75.4556 191.07 74.1458 190.144C72.8361 189.185 71.734 187.972 70.8396 186.502C69.9771 185.001 69.5458 183.148 69.5458 180.944C69.5458 178.58 70.0889 176.503 71.175 174.715C72.2611 172.926 73.7785 171.536 75.7271 170.546C77.7076 169.524 79.9917 169.013 82.5792 169.013C85.0708 169.013 87.291 169.428 89.2396 170.258C91.1882 171.057 92.7535 171.919 93.9354 172.846L91.875 181.471C90.725 179.906 89.2875 178.596 87.5625 177.542C85.8375 176.487 84.0646 175.96 82.2437 175.96C80.5826 175.96 79.2889 176.408 78.3625 177.302C77.4681 178.165 77.0208 179.251 77.0208 180.56C77.0208 181.423 77.2125 182.174 77.5958 182.812C78.0111 183.451 78.5382 184.01 79.1771 184.49C79.8479 184.937 80.5667 185.352 81.3333 185.735L86.5563 188.323C87.3549 188.706 88.2493 189.217 89.2396 189.856C90.2618 190.495 91.2521 191.31 92.2104 192.3C93.1688 193.258 93.9514 194.44 94.5583 195.846C95.1972 197.219 95.5167 198.865 95.5167 200.781C95.5167 203.273 94.9257 205.509 93.7438 207.49C92.5938 209.438 90.9806 210.987 88.9042 212.137C86.8597 213.288 84.416 213.863 81.5729 213.863ZM101.148 213V167H108.671V186.885C109.694 185.735 110.907 184.873 112.313 184.298C113.719 183.691 115.204 183.387 116.769 183.387C118.814 183.387 120.714 183.883 122.471 184.873C124.26 185.863 125.698 187.301 126.784 189.185C127.87 191.038 128.413 193.306 128.413 195.99V213H120.89V196.996C120.89 195.207 120.363 193.626 119.309 192.252C118.255 190.878 116.753 190.192 114.805 190.192C113.207 190.192 111.786 190.751 110.54 191.869C109.294 192.955 108.671 194.616 108.671 196.852V213H101.148ZM148.755 213.863C145.912 213.863 143.309 213.176 140.945 211.802C138.613 210.428 136.76 208.592 135.386 206.292C134.013 203.992 133.326 201.436 133.326 198.625C133.326 195.814 134.013 193.258 135.386 190.958C136.76 188.658 138.613 186.822 140.945 185.448C143.309 184.074 145.896 183.387 148.707 183.387C151.582 183.387 154.186 184.074 156.518 185.448C158.85 186.822 160.702 188.658 162.076 190.958C163.481 193.226 164.184 195.782 164.184 198.625C164.184 201.404 163.481 203.96 162.076 206.292C160.702 208.592 158.85 210.428 156.518 211.802C154.186 213.176 151.598 213.863 148.755 213.863ZM148.707 207.058C150.272 207.058 151.678 206.675 152.924 205.908C154.17 205.142 155.16 204.119 155.895 202.842C156.629 201.564 156.997 200.158 156.997 198.625C156.997 197.06 156.629 195.654 155.895 194.408C155.16 193.131 154.17 192.108 152.924 191.342C151.678 190.575 150.272 190.192 148.707 190.192C147.174 190.192 145.784 190.575 144.538 191.342C143.293 192.108 142.302 193.131 141.568 194.408C140.833 195.654 140.465 197.06 140.465 198.625C140.465 200.158 140.833 201.564 141.568 202.842C142.302 204.119 143.293 205.142 144.538 205.908C145.784 206.675 147.174 207.058 148.707 207.058ZM179.946 214.438L165.571 184.25H173.717L178.508 194.312C178.956 195.207 179.387 196.149 179.802 197.14C180.249 198.13 180.681 199.28 181.096 200.59C181.575 199.312 182.038 198.226 182.485 197.331C182.933 196.405 183.38 195.494 183.827 194.6L189.337 183.196L194.992 194.6C195.407 195.431 195.838 196.309 196.285 197.235C196.733 198.162 197.164 199.28 197.579 200.59C198.026 199.184 198.458 198.018 198.873 197.092C199.32 196.133 199.751 195.207 200.167 194.312L204.958 184.25H212.721L198.346 214.438L191.973 202.937C191.462 202.011 190.983 201.085 190.535 200.158C190.088 199.232 189.625 198.21 189.146 197.092C188.699 198.21 188.235 199.232 187.756 200.158C187.309 201.085 186.814 202.011 186.271 202.937L179.946 214.438ZM228.021 213.671C225.37 213.671 222.958 213 220.786 211.658C218.614 210.285 216.873 208.464 215.563 206.196C214.285 203.896 213.646 201.372 213.646 198.625C213.646 195.878 214.285 193.37 215.563 191.102C216.873 188.802 218.614 186.981 220.786 185.64C222.958 184.266 225.37 183.579 228.021 183.579C229.65 183.579 231.152 183.835 232.525 184.346C233.931 184.857 235.193 185.56 236.311 186.454V167H243.834V213H237.269V209.933C236.151 211.083 234.793 211.994 233.196 212.665C231.599 213.335 229.874 213.671 228.021 213.671ZM228.884 207.01C230.417 207.01 231.791 206.627 233.005 205.86C234.25 205.094 235.241 204.087 235.975 202.842C236.71 201.564 237.077 200.158 237.077 198.625C237.077 197.092 236.71 195.702 235.975 194.456C235.241 193.178 234.25 192.156 233.005 191.39C231.791 190.623 230.433 190.24 228.932 190.24C227.398 190.24 226.009 190.623 224.763 191.39C223.549 192.156 222.575 193.178 221.84 194.456C221.105 195.702 220.738 197.092 220.738 198.625C220.738 200.158 221.105 201.564 221.84 202.842C222.575 204.087 223.549 205.094 224.763 205.86C226.009 206.627 227.382 207.01 228.884 207.01ZM264.788 213.863C261.945 213.863 259.342 213.176 256.978 211.802C254.646 210.428 252.793 208.592 251.42 206.292C250.046 203.992 249.359 201.436 249.359 198.625C249.359 195.814 250.046 193.258 251.42 190.958C252.793 188.658 254.646 186.822 256.978 185.448C259.342 184.074 261.929 183.387 264.74 183.387C267.615 183.387 270.219 184.074 272.551 185.448C274.883 186.822 276.736 188.658 278.109 190.958C279.515 193.226 280.217 195.782 280.217 198.625C280.217 201.404 279.515 203.96 278.109 206.292C276.736 208.592 274.883 210.428 272.551 211.802C270.219 213.176 267.631 213.863 264.788 213.863ZM264.74 207.058C266.306 207.058 267.711 206.675 268.957 205.908C270.203 205.142 271.193 204.119 271.928 202.842C272.663 201.564 273.03 200.158 273.03 198.625C273.03 197.06 272.663 195.654 271.928 194.408C271.193 193.131 270.203 192.108 268.957 191.342C267.711 190.575 266.306 190.192 264.74 190.192C263.207 190.192 261.817 190.575 260.572 191.342C259.326 192.108 258.336 193.131 257.601 194.408C256.866 195.654 256.499 197.06 256.499 198.625C256.499 200.158 256.866 201.564 257.601 202.842C258.336 204.119 259.326 205.142 260.572 205.908C261.817 206.675 263.207 207.058 264.74 207.058ZM295.979 214.438L281.604 184.25H289.75L294.542 194.312C294.989 195.207 295.42 196.149 295.835 197.14C296.283 198.13 296.714 199.28 297.129 200.59C297.608 199.312 298.071 198.226 298.519 197.331C298.966 196.405 299.413 195.494 299.86 194.6L305.371 183.196L311.025 194.6C311.44 195.431 311.871 196.309 312.319 197.235C312.766 198.162 313.197 199.28 313.612 200.59C314.06 199.184 314.491 198.018 314.906 197.092C315.353 196.133 315.785 195.207 316.2 194.312L320.992 184.25H328.754L314.379 214.438L308.006 202.937C307.495 202.011 307.016 201.085 306.569 200.158C306.121 199.232 305.658 198.21 305.179 197.092C304.732 198.21 304.269 199.232 303.789 200.158C303.342 201.085 302.847 202.011 302.304 202.937L295.979 214.438ZM332.676 213V184.25H339.432V187.796C340.486 186.358 341.78 185.272 343.313 184.537C344.847 183.771 346.508 183.387 348.297 183.387C350.341 183.387 352.242 183.883 353.999 184.873C355.788 185.863 357.225 187.301 358.311 189.185C359.397 191.038 359.94 193.306 359.94 195.99V213H352.417V196.996C352.417 195.207 351.89 193.626 350.836 192.252C349.782 190.878 348.281 190.192 346.332 190.192C344.735 190.192 343.313 190.751 342.067 191.869C340.822 192.955 340.199 194.616 340.199 196.852V213H332.676Z" fill="white"/>
<path d="M426.971 175C422.498 175 419.319 176.441 416.218 178.522L393 194.066L416.218 209.593C419.351 211.658 422.639 213.115 426.971 213.115C437.209 213.115 445.514 204.583 445.514 194.066C445.514 183.548 437.209 175 426.971 175Z" fill="#38D200"/>
<path d="M18.8529 58.2681C23.396 58.2681 26.6252 56.86 29.7753 54.8261L53.3612 39.6341L29.7753 24.4421C26.5935 22.4238 23.2535 21 18.8529 21C8.43712 21.0156 0 29.3548 0 39.6341C0 49.9133 8.43712 58.2681 18.8529 58.2525" fill="#0473EA"/>
</svg>
