<svg width="593" height="327" viewBox="0 0 593 327" fill="none" xmlns="http://www.w3.org/2000/svg">
<path d="M76.7257 315.729L68.2917 293.125H71.1111L76.0694 306.25C76.2477 306.704 76.3935 307.141 76.5069 307.562C76.6204 307.968 76.7419 308.454 76.8715 309.021C77.0012 308.454 77.1227 307.968 77.2361 307.562C77.3657 307.141 77.5116 306.704 77.6736 306.25L82.6806 292.396L87.6632 306.25C87.809 306.655 87.9468 307.068 88.0764 307.49C88.2222 307.895 88.3519 308.405 88.4653 309.021C88.5949 308.405 88.7245 307.895 88.8542 307.49C88.9838 307.068 89.1296 306.655 89.2917 306.25L94.25 293.125H96.875L88.4653 315.729L83.4097 301.535C83.2639 301.113 83.1262 300.708 82.9965 300.319C82.8669 299.914 82.7373 299.404 82.6076 298.788C82.478 299.404 82.3484 299.914 82.2188 300.319C82.0891 300.708 81.9514 301.113 81.8056 301.535L76.7257 315.729ZM103.548 315.194C102.219 315.194 101.004 314.862 99.9018 314.198C98.7999 313.517 97.9168 312.61 97.2525 311.476C96.6043 310.341 96.2803 309.086 96.2803 307.708C96.2803 306.331 96.6043 305.075 97.2525 303.941C97.9168 302.807 98.7999 301.907 99.9018 301.243C101.004 300.562 102.219 300.222 103.548 300.222C104.552 300.222 105.492 300.409 106.367 300.781C107.258 301.154 108.028 301.672 108.676 302.337V300.417H111.107V315H108.676V313.08C108.028 313.728 107.258 314.247 106.367 314.635C105.492 315.008 104.552 315.194 103.548 315.194ZM103.888 312.812C104.812 312.812 105.646 312.586 106.391 312.132C107.153 311.662 107.752 311.046 108.19 310.285C108.644 309.507 108.871 308.648 108.871 307.708C108.871 306.769 108.644 305.918 108.19 305.156C107.752 304.378 107.153 303.763 106.391 303.309C105.646 302.839 104.812 302.604 103.888 302.604C102.964 302.604 102.122 302.839 101.36 303.309C100.615 303.763 100.015 304.378 99.5615 305.156C99.124 305.918 98.9053 306.769 98.9053 307.708C98.9053 308.648 99.124 309.507 99.5615 310.285C100.015 311.046 100.615 311.662 101.36 312.132C102.122 312.586 102.964 312.812 103.888 312.812ZM115.758 315V300.417H118.383V315H115.758ZM117.071 297.792C116.585 297.792 116.171 297.622 115.831 297.281C115.491 296.941 115.321 296.528 115.321 296.042C115.321 295.539 115.491 295.126 115.831 294.802C116.171 294.462 116.585 294.292 117.071 294.292C117.573 294.292 117.986 294.462 118.31 294.802C118.65 295.126 118.821 295.539 118.821 296.042C118.821 296.528 118.65 296.941 118.31 297.281C117.986 297.622 117.573 297.792 117.071 297.792ZM124.74 315V302.604H121.434V300.417H124.813V295.556H127.292V300.417H130.913V302.604H127.365V315H124.74ZM146.822 315.292C145.801 315.292 144.845 315.041 143.954 314.538C143.063 314.02 142.342 313.274 141.791 312.302C141.24 311.33 140.965 310.163 140.965 308.802V300.417H143.59V308.438C143.59 309.588 143.93 310.609 144.61 311.5C145.307 312.375 146.279 312.812 147.527 312.812C148.548 312.812 149.455 312.448 150.249 311.719C151.059 310.973 151.465 309.904 151.465 308.51V300.417H154.09V315H151.659V312.642C151.124 313.501 150.427 314.157 149.569 314.611C148.726 315.065 147.811 315.292 146.822 315.292ZM158.756 315V300.417H161.187V302.774C161.721 301.916 162.41 301.259 163.253 300.806C164.112 300.352 165.035 300.125 166.024 300.125C167.061 300.125 168.017 300.384 168.892 300.903C169.783 301.405 170.504 302.142 171.055 303.115C171.606 304.071 171.881 305.237 171.881 306.615V315H169.256V306.979C169.256 305.829 168.908 304.816 168.211 303.941C167.53 303.05 166.566 302.604 165.319 302.604C164.298 302.604 163.382 302.977 162.572 303.722C161.778 304.451 161.381 305.513 161.381 306.906V315H158.756ZM177.479 315V302.604H174.174V300.417H177.552V295.556H180.031V300.417H183.653V302.604H180.104V315H177.479ZM186.715 315V300.417H189.34V315H186.715ZM188.028 297.792C187.542 297.792 187.128 297.622 186.788 297.281C186.448 296.941 186.278 296.528 186.278 296.042C186.278 295.539 186.448 295.126 186.788 294.802C187.128 294.462 187.542 294.292 188.028 294.292C188.53 294.292 188.943 294.462 189.267 294.802C189.608 295.126 189.778 295.539 189.778 296.042C189.778 296.528 189.608 296.941 189.267 297.281C188.943 297.622 188.53 297.792 188.028 297.792ZM193.995 315V291.667H196.62V315H193.995ZM214.803 315.194C213.474 315.194 212.259 314.862 211.157 314.198C210.055 313.517 209.172 312.61 208.507 311.476C207.859 310.341 207.535 309.086 207.535 307.708C207.535 306.331 207.859 305.075 208.507 303.941C209.172 302.807 210.055 301.907 211.157 301.243C212.259 300.562 213.474 300.222 214.803 300.222C215.807 300.222 216.747 300.409 217.622 300.781C218.513 301.154 219.283 301.672 219.931 302.337V300.417H222.362V315H219.931V313.08C219.283 313.728 218.513 314.247 217.622 314.635C216.747 315.008 215.807 315.194 214.803 315.194ZM215.143 312.812C216.066 312.812 216.901 312.586 217.646 312.132C218.408 311.662 219.007 311.046 219.445 310.285C219.899 309.507 220.125 308.648 220.125 307.708C220.125 306.769 219.899 305.918 219.445 305.156C219.007 304.378 218.408 303.763 217.646 303.309C216.901 302.839 216.066 302.604 215.143 302.604C214.219 302.604 213.377 302.839 212.615 303.309C211.87 303.763 211.27 304.378 210.816 305.156C210.379 305.918 210.16 306.769 210.16 307.708C210.16 308.648 210.379 309.507 210.816 310.285C211.27 311.046 211.87 311.662 212.615 312.132C213.377 312.586 214.219 312.812 215.143 312.812ZM227.013 315V291.667H229.638V315H227.013ZM234.293 315V291.667H236.918V315H234.293ZM248.854 322.292V300.417H251.284V302.337C251.949 301.672 252.718 301.154 253.593 300.781C254.468 300.409 255.408 300.222 256.413 300.222C257.758 300.222 258.973 300.562 260.059 301.243C261.161 301.907 262.036 302.807 262.684 303.941C263.348 305.075 263.68 306.331 263.68 307.708C263.68 309.086 263.348 310.341 262.684 311.476C262.036 312.61 261.161 313.517 260.059 314.198C258.973 314.862 257.758 315.194 256.413 315.194C255.457 315.194 254.558 315.024 253.715 314.684C252.872 314.344 252.127 313.874 251.479 313.274V322.292H248.854ZM256.073 312.812C256.996 312.812 257.831 312.586 258.576 312.132C259.338 311.662 259.937 311.046 260.375 310.285C260.828 309.507 261.055 308.648 261.055 307.708C261.055 306.769 260.828 305.918 260.375 305.156C259.937 304.378 259.338 303.763 258.576 303.309C257.831 302.839 256.996 302.604 256.073 302.604C255.149 302.604 254.306 302.839 253.545 303.309C252.799 303.763 252.2 304.378 251.746 305.156C251.309 305.918 251.09 306.769 251.09 307.708C251.09 308.648 251.309 309.507 251.746 310.285C252.2 311.046 252.799 311.662 253.545 312.132C254.306 312.586 255.149 312.812 256.073 312.812ZM273.557 315.194C272.229 315.194 271.013 314.862 269.912 314.198C268.81 313.517 267.927 312.61 267.262 311.476C266.614 310.341 266.29 309.086 266.29 307.708C266.29 306.331 266.614 305.075 267.262 303.941C267.927 302.807 268.81 301.907 269.912 301.243C271.013 300.562 272.229 300.222 273.557 300.222C274.562 300.222 275.502 300.409 276.377 300.781C277.268 301.154 278.038 301.672 278.686 302.337V300.417H281.116V315H278.686V313.08C278.038 313.728 277.268 314.247 276.377 314.635C275.502 315.008 274.562 315.194 273.557 315.194ZM273.898 312.812C274.821 312.812 275.656 312.586 276.401 312.132C277.163 311.662 277.762 311.046 278.2 310.285C278.653 309.507 278.88 308.648 278.88 307.708C278.88 306.769 278.653 305.918 278.2 305.156C277.762 304.378 277.163 303.763 276.401 303.309C275.656 302.839 274.821 302.604 273.898 302.604C272.974 302.604 272.131 302.839 271.37 303.309C270.625 303.763 270.025 304.378 269.571 305.156C269.134 305.918 268.915 306.769 268.915 307.708C268.915 308.648 269.134 309.507 269.571 310.285C270.025 311.046 270.625 311.662 271.37 312.132C272.131 312.586 272.974 312.812 273.898 312.812ZM285.768 315V300.417H288.198V303.09C288.717 302.231 289.406 301.551 290.264 301.049C291.123 300.53 292.144 300.271 293.327 300.271L293.983 302.896C293.675 302.799 293.319 302.75 292.914 302.75C291.553 302.75 290.459 303.188 289.632 304.062C288.806 304.921 288.393 306.153 288.393 307.757V315H285.768ZM298.407 315V302.604H295.101V300.417H298.48V295.556H300.959V300.417H304.58V302.604H301.032V315H298.407ZM307.643 315V300.417H310.268V315H307.643ZM308.955 297.792C308.469 297.792 308.056 297.622 307.716 297.281C307.376 296.941 307.205 296.528 307.205 296.042C307.205 295.539 307.376 295.126 307.716 294.802C308.056 294.462 308.469 294.292 308.955 294.292C309.458 294.292 309.871 294.462 310.195 294.802C310.535 295.126 310.705 295.539 310.705 296.042C310.705 296.528 310.535 296.941 310.195 297.281C309.871 297.622 309.458 297.792 308.955 297.792ZM321.632 315.292C320.206 315.292 318.909 314.951 317.743 314.271C316.576 313.59 315.644 312.675 314.947 311.524C314.251 310.374 313.902 309.102 313.902 307.708C313.902 306.315 314.251 305.043 314.947 303.892C315.644 302.742 316.576 301.826 317.743 301.146C318.909 300.465 320.206 300.125 321.632 300.125C322.685 300.125 323.673 300.311 324.597 300.684C325.52 301.057 326.331 301.551 327.027 302.167L326.225 305.472C325.82 304.662 325.204 303.981 324.378 303.431C323.568 302.88 322.644 302.604 321.607 302.604C320.667 302.604 319.809 302.839 319.031 303.309C318.269 303.763 317.662 304.378 317.208 305.156C316.754 305.918 316.527 306.769 316.527 307.708C316.527 308.632 316.754 309.483 317.208 310.26C317.662 311.038 318.269 311.662 319.031 312.132C319.809 312.586 320.667 312.812 321.607 312.812C322.644 312.812 323.568 312.545 324.378 312.01C325.204 311.476 325.82 310.787 326.225 309.944L327.027 313.25C326.331 313.866 325.52 314.36 324.597 314.733C323.673 315.105 322.685 315.292 321.632 315.292ZM330.236 315V300.417H332.861V315H330.236ZM331.548 297.792C331.062 297.792 330.649 297.622 330.309 297.281C329.968 296.941 329.798 296.528 329.798 296.042C329.798 295.539 329.968 295.126 330.309 294.802C330.649 294.462 331.062 294.292 331.548 294.292C332.05 294.292 332.464 294.462 332.788 294.802C333.128 295.126 333.298 295.539 333.298 296.042C333.298 296.528 333.128 296.941 332.788 297.281C332.464 297.622 332.05 297.792 331.548 297.792ZM337.516 322.292V300.417H339.947V302.337C340.611 301.672 341.381 301.154 342.256 300.781C343.131 300.409 344.07 300.222 345.075 300.222C346.42 300.222 347.635 300.562 348.721 301.243C349.823 301.907 350.698 302.807 351.346 303.941C352.01 305.075 352.342 306.331 352.342 307.708C352.342 309.086 352.01 310.341 351.346 311.476C350.698 312.61 349.823 313.517 348.721 314.198C347.635 314.862 346.42 315.194 345.075 315.194C344.119 315.194 343.22 315.024 342.377 314.684C341.534 314.344 340.789 313.874 340.141 313.274V322.292H337.516ZM344.735 312.812C345.658 312.812 346.493 312.586 347.238 312.132C348 311.662 348.599 311.046 349.037 310.285C349.49 309.507 349.717 308.648 349.717 307.708C349.717 306.769 349.49 305.918 349.037 305.156C348.599 304.378 348 303.763 347.238 303.309C346.493 302.839 345.658 302.604 344.735 302.604C343.811 302.604 342.968 302.839 342.207 303.309C341.462 303.763 340.862 304.378 340.408 305.156C339.971 305.918 339.752 306.769 339.752 307.708C339.752 308.648 339.971 309.507 340.408 310.285C340.862 311.046 341.462 311.662 342.207 312.132C342.968 312.586 343.811 312.812 344.735 312.812ZM362.22 315.194C360.891 315.194 359.676 314.862 358.574 314.198C357.472 313.517 356.589 312.61 355.924 311.476C355.276 310.341 354.952 309.086 354.952 307.708C354.952 306.331 355.276 305.075 355.924 303.941C356.589 302.807 357.472 301.907 358.574 301.243C359.676 300.562 360.891 300.222 362.22 300.222C363.224 300.222 364.164 300.409 365.039 300.781C365.93 301.154 366.7 301.672 367.348 302.337V300.417H369.779V315H367.348V313.08C366.7 313.728 365.93 314.247 365.039 314.635C364.164 315.008 363.224 315.194 362.22 315.194ZM362.56 312.812C363.483 312.812 364.318 312.586 365.063 312.132C365.825 311.662 366.424 311.046 366.862 310.285C367.316 309.507 367.542 308.648 367.542 307.708C367.542 306.769 367.316 305.918 366.862 305.156C366.424 304.378 365.825 303.763 365.063 303.309C364.318 302.839 363.483 302.604 362.56 302.604C361.636 302.604 360.794 302.839 360.032 303.309C359.287 303.763 358.687 304.378 358.233 305.156C357.796 305.918 357.577 306.769 357.577 307.708C357.577 308.648 357.796 309.507 358.233 310.285C358.687 311.046 359.287 311.662 360.032 312.132C360.794 312.586 361.636 312.812 362.56 312.812ZM374.43 315V300.417H376.861V302.774C377.395 301.916 378.084 301.259 378.927 300.806C379.785 300.352 380.709 300.125 381.697 300.125C382.734 300.125 383.69 300.384 384.565 300.903C385.457 301.405 386.178 302.142 386.729 303.115C387.28 304.071 387.555 305.237 387.555 306.615V315H384.93V306.979C384.93 305.829 384.582 304.816 383.885 303.941C383.204 303.05 382.24 302.604 380.993 302.604C379.972 302.604 379.056 302.977 378.246 303.722C377.452 304.451 377.055 305.513 377.055 306.906V315H374.43ZM393.153 315V302.604H389.847V300.417H393.226V295.556H395.705V300.417H399.326V302.604H395.778V315H393.153ZM406.156 315.292C405.411 315.292 404.609 315.154 403.75 314.878C402.908 314.587 402.178 314.109 401.563 313.444L402.292 310.576C402.745 311.338 403.329 311.946 404.042 312.399C404.755 312.837 405.516 313.056 406.326 313.056C407.104 313.056 407.688 312.869 408.076 312.497C408.465 312.108 408.66 311.638 408.66 311.087C408.66 310.455 408.449 309.993 408.028 309.701C407.623 309.41 407.258 309.207 406.934 309.094L404.965 308.34C404.609 308.194 404.18 307.984 403.677 307.708C403.175 307.417 402.737 307.003 402.365 306.469C401.992 305.934 401.806 305.237 401.806 304.378C401.806 303.601 401.992 302.888 402.365 302.24C402.737 301.591 403.264 301.081 403.945 300.708C404.625 300.319 405.427 300.125 406.351 300.125C407.08 300.125 407.842 300.255 408.636 300.514C409.43 300.773 410.102 301.211 410.653 301.826L409.924 304.694C409.535 303.981 409.008 303.414 408.344 302.993C407.68 302.572 406.991 302.361 406.278 302.361C405.614 302.361 405.087 302.547 404.698 302.92C404.325 303.293 404.139 303.722 404.139 304.208C404.139 304.597 404.269 304.946 404.528 305.253C404.787 305.561 405.176 305.813 405.695 306.007L407.663 306.76C408.02 306.89 408.457 307.101 408.976 307.392C409.511 307.684 409.98 308.105 410.386 308.656C410.791 309.207 410.993 309.953 410.993 310.892C410.993 312.205 410.531 313.266 409.608 314.076C408.7 314.887 407.55 315.292 406.156 315.292ZM428.323 315.194C426.994 315.194 425.779 314.862 424.677 314.198C423.575 313.517 422.692 312.61 422.028 311.476C421.38 310.341 421.056 309.086 421.056 307.708C421.056 306.331 421.38 305.075 422.028 303.941C422.692 302.807 423.575 301.907 424.677 301.243C425.779 300.562 426.994 300.222 428.323 300.222C429.328 300.222 430.267 300.409 431.142 300.781C432.034 301.154 432.803 301.672 433.451 302.337V300.417H435.882V315H433.451V313.08C432.803 313.728 432.034 314.247 431.142 314.635C430.267 315.008 429.328 315.194 428.323 315.194ZM428.663 312.812C429.587 312.812 430.421 312.586 431.167 312.132C431.928 311.662 432.528 311.046 432.965 310.285C433.419 309.507 433.646 308.648 433.646 307.708C433.646 306.769 433.419 305.918 432.965 305.156C432.528 304.378 431.928 303.763 431.167 303.309C430.421 302.839 429.587 302.604 428.663 302.604C427.74 302.604 426.897 302.839 426.136 303.309C425.39 303.763 424.791 304.378 424.337 305.156C423.899 305.918 423.681 306.769 423.681 307.708C423.681 308.648 423.899 309.507 424.337 310.285C424.791 311.046 425.39 311.662 426.136 312.132C426.897 312.586 427.74 312.812 428.663 312.812ZM440.534 315V300.417H442.964V303.09C443.483 302.231 444.171 301.551 445.03 301.049C445.889 300.53 446.91 300.271 448.093 300.271L448.749 302.896C448.441 302.799 448.084 302.75 447.679 302.75C446.318 302.75 445.225 303.188 444.398 304.062C443.572 304.921 443.159 306.153 443.159 307.757V315H440.534ZM457.944 315.292C456.421 315.292 455.052 314.951 453.836 314.271C452.637 313.59 451.689 312.667 450.993 311.5C450.312 310.317 449.972 309.005 449.972 307.562C449.972 306.185 450.304 304.937 450.968 303.819C451.633 302.685 452.524 301.786 453.642 301.122C454.776 300.457 456.024 300.125 457.385 300.125C458.73 300.125 459.961 300.449 461.079 301.097C462.197 301.729 463.089 302.588 463.753 303.674C464.417 304.759 464.749 305.991 464.749 307.368V308.438H455.222C454.8 308.438 454.371 308.421 453.933 308.389C453.496 308.356 453.067 308.308 452.645 308.243C452.824 309.539 453.407 310.625 454.395 311.5C455.4 312.375 456.591 312.812 457.968 312.812C458.892 312.812 459.751 312.602 460.545 312.181C461.339 311.759 461.979 311.2 462.465 310.503L463.194 313.493C462.497 314.06 461.695 314.506 460.788 314.83C459.896 315.138 458.949 315.292 457.944 315.292ZM452.572 306.469C453.447 306.323 454.33 306.25 455.222 306.25H460.058C460.415 306.25 460.763 306.266 461.104 306.299C461.46 306.315 461.817 306.339 462.173 306.372C461.946 305.237 461.379 304.306 460.472 303.576C459.564 302.831 458.535 302.458 457.385 302.458C456.202 302.458 455.165 302.855 454.274 303.649C453.383 304.427 452.815 305.367 452.572 306.469ZM475.534 315V300.417H477.964V303.09C478.483 302.231 479.171 301.551 480.03 301.049C480.889 300.53 481.91 300.271 483.093 300.271L483.749 302.896C483.441 302.799 483.084 302.75 482.679 302.75C481.318 302.75 480.225 303.188 479.398 304.062C478.572 304.921 478.159 306.153 478.159 307.757V315H475.534ZM492.944 315.292C491.421 315.292 490.052 314.951 488.836 314.271C487.637 313.59 486.689 312.667 485.993 311.5C485.312 310.317 484.972 309.005 484.972 307.562C484.972 306.185 485.304 304.937 485.968 303.819C486.633 302.685 487.524 301.786 488.642 301.122C489.776 300.457 491.024 300.125 492.385 300.125C493.73 300.125 494.961 300.449 496.079 301.097C497.197 301.729 498.089 302.588 498.753 303.674C499.417 304.759 499.749 305.991 499.749 307.368V308.438H490.222C489.8 308.438 489.371 308.421 488.933 308.389C488.496 308.356 488.067 308.308 487.645 308.243C487.824 309.539 488.407 310.625 489.395 311.5C490.4 312.375 491.591 312.812 492.968 312.812C493.892 312.812 494.751 312.602 495.545 312.181C496.339 311.759 496.979 311.2 497.465 310.503L498.194 313.493C497.497 314.06 496.695 314.506 495.788 314.83C494.896 315.138 493.949 315.292 492.944 315.292ZM487.572 306.469C488.447 306.323 489.33 306.25 490.222 306.25H495.058C495.415 306.25 495.763 306.266 496.104 306.299C496.46 306.315 496.817 306.339 497.173 306.372C496.946 305.237 496.379 304.306 495.472 303.576C494.564 302.831 493.535 302.458 492.385 302.458C491.202 302.458 490.165 302.855 489.274 303.649C488.383 304.427 487.815 305.367 487.572 306.469ZM509.5 315.194C508.171 315.194 506.956 314.862 505.854 314.198C504.752 313.517 503.869 312.61 503.205 311.476C502.556 310.341 502.232 309.086 502.232 307.708C502.232 306.331 502.556 305.075 503.205 303.941C503.869 302.807 504.752 301.907 505.854 301.243C506.956 300.562 508.171 300.222 509.5 300.222C510.504 300.222 511.444 300.409 512.319 300.781C513.21 301.154 513.98 301.672 514.628 302.337V300.417H517.059V315H514.628V313.08C513.98 313.728 513.21 314.247 512.319 314.635C511.444 315.008 510.504 315.194 509.5 315.194ZM509.84 312.812C510.764 312.812 511.598 312.586 512.344 312.132C513.105 311.662 513.705 311.046 514.142 310.285C514.596 309.507 514.823 308.648 514.823 307.708C514.823 306.769 514.596 305.918 514.142 305.156C513.705 304.378 513.105 303.763 512.344 303.309C511.598 302.839 510.764 302.604 509.84 302.604C508.916 302.604 508.074 302.839 507.312 303.309C506.567 303.763 505.967 304.378 505.514 305.156C505.076 305.918 504.857 306.769 504.857 307.708C504.857 308.648 505.076 309.507 505.514 310.285C505.967 311.046 506.567 311.662 507.312 312.132C508.074 312.586 508.916 312.812 509.84 312.812ZM527.957 315.194C526.628 315.194 525.413 314.862 524.311 314.198C523.209 313.517 522.326 312.61 521.662 311.476C521.014 310.341 520.689 309.086 520.689 307.708C520.689 306.331 521.014 305.075 521.662 303.941C522.326 302.807 523.209 301.907 524.311 301.243C525.413 300.562 526.628 300.222 527.957 300.222C528.913 300.222 529.812 300.392 530.655 300.733C531.497 301.073 532.243 301.543 532.891 302.142V291.667H535.516V315H533.085V313.08C532.437 313.728 531.667 314.247 530.776 314.635C529.901 315.008 528.961 315.194 527.957 315.194ZM528.297 312.812C529.221 312.812 530.055 312.586 530.801 312.132C531.562 311.662 532.162 311.046 532.599 310.285C533.053 309.507 533.28 308.648 533.28 307.708C533.28 306.769 533.053 305.918 532.599 305.156C532.162 304.378 531.562 303.763 530.801 303.309C530.055 302.839 529.221 302.604 528.297 302.604C527.373 302.604 526.531 302.839 525.769 303.309C525.024 303.763 524.424 304.378 523.971 305.156C523.533 305.918 523.314 306.769 523.314 307.708C523.314 308.648 523.533 309.507 523.971 310.285C524.424 311.046 525.024 311.662 525.769 312.132C526.531 312.586 527.373 312.812 528.297 312.812ZM539.56 322.292L544.299 312.861L538.126 300.417H541.091L544.202 306.736C544.478 307.303 544.745 307.862 545.004 308.413C545.263 308.964 545.523 309.628 545.782 310.406C546.057 309.628 546.317 308.964 546.56 308.413C546.819 307.846 547.094 307.287 547.386 306.736L550.546 300.417H553.341L542.403 322.292H539.56Z" fill="white"/>
<path d="M91.3479 61.8625C88.2174 61.8625 85.2944 61.2875 82.5792 60.1375C79.8639 58.9556 77.4681 57.3424 75.3917 55.2979C73.3472 53.2215 71.75 50.8417 70.6 48.1583C69.45 45.4431 68.875 42.5361 68.875 39.4375C68.875 36.3389 69.45 33.4479 70.6 30.7646C71.7819 28.0493 73.3951 25.6694 75.4396 23.625C77.516 21.5486 79.9118 19.9354 82.6271 18.7854C85.3424 17.6035 88.2653 17.0125 91.3958 17.0125C94.4625 17.0125 97.3375 17.5875 100.021 18.7375C102.704 19.8556 105.068 21.4049 107.113 23.3854L105.531 29.9979C104.062 27.634 102.081 25.7493 99.5896 24.3438C97.1299 22.9062 94.3986 22.1875 91.3958 22.1875C88.2333 22.1875 85.3743 22.9701 82.8188 24.5354C80.2951 26.0687 78.2826 28.1451 76.7812 30.7646C75.2799 33.3521 74.5292 36.2431 74.5292 39.4375C74.5292 42.5681 75.2639 45.4431 76.7333 48.0625C78.2347 50.6819 80.2472 52.7743 82.7708 54.3396C85.3264 55.9049 88.1854 56.6875 91.3479 56.6875C93.1368 56.6875 94.8299 56.4799 96.4271 56.0646C98.0563 55.6174 99.5417 54.9944 100.883 54.1958V42.8875H89V38H106.154V56.975C104.206 58.6042 101.938 59.834 99.35 60.6646C96.7944 61.4632 94.1271 61.8625 91.3479 61.8625ZM129.316 61.575C126.313 61.575 123.614 60.9042 121.218 59.5625C118.854 58.2208 116.985 56.4 115.612 54.1C114.27 51.7681 113.599 49.1806 113.599 46.3375C113.599 43.6222 114.254 41.1625 115.564 38.9583C116.874 36.7222 118.63 34.9493 120.835 33.6396C123.071 32.3299 125.53 31.675 128.214 31.675C130.865 31.675 133.293 32.3139 135.497 33.5917C137.701 34.8375 139.458 36.5306 140.768 38.6708C142.078 40.8111 142.733 43.2389 142.733 45.9542V48.0625H123.949C123.119 48.0625 122.272 48.0306 121.41 47.9667C120.547 47.9028 119.701 47.8069 118.87 47.6792C119.221 50.2347 120.371 52.375 122.32 54.1C124.301 55.825 126.649 56.6875 129.364 56.6875C131.185 56.6875 132.878 56.2722 134.443 55.4417C136.008 54.6111 137.27 53.509 138.228 52.1354L139.666 58.0292C138.292 59.1472 136.711 60.0257 134.922 60.6646C133.165 61.2715 131.296 61.575 129.316 61.575ZM118.726 44.1812C120.451 43.8937 122.192 43.75 123.949 43.75H133.485C134.187 43.75 134.874 43.7819 135.545 43.8458C136.248 43.8778 136.951 43.9257 137.653 43.9896C137.206 41.7535 136.088 39.9167 134.299 38.4792C132.51 37.0097 130.482 36.275 128.214 36.275C125.882 36.275 123.837 37.0576 122.08 38.6229C120.324 40.1562 119.205 42.009 118.726 44.1812ZM152.994 61V36.5625H146.478V32.25H153.138V22.6667H158.025V32.25H165.165V36.5625H158.169V61H152.994ZM187.136 61V17.875H197.965C200.681 17.875 203.013 18.4181 204.961 19.5042C206.91 20.5903 208.411 22.0278 209.465 23.8167C210.552 25.5736 211.095 27.5062 211.095 29.6146C211.095 31.9785 210.424 34.1028 209.082 35.9875C207.74 37.8722 205.904 39.2618 203.572 40.1562L218.043 61H211.67L197.965 41.1625H192.599V61H187.136ZM192.599 36.5625H197.965C199.818 36.5625 201.32 36.2271 202.47 35.5562C203.652 34.8535 204.514 33.975 205.057 32.9208C205.632 31.8347 205.92 30.7326 205.92 29.6146C205.92 27.6021 205.185 25.9569 203.715 24.6792C202.278 23.4014 200.361 22.7625 197.965 22.7625H192.599V36.5625ZM234.77 61.575C231.767 61.575 229.068 60.9042 226.672 59.5625C224.308 58.2208 222.439 56.4 221.066 54.1C219.724 51.7681 219.053 49.1806 219.053 46.3375C219.053 43.6222 219.708 41.1625 221.018 38.9583C222.328 36.7222 224.085 34.9493 226.289 33.6396C228.525 32.3299 230.985 31.675 233.668 31.675C236.319 31.675 238.747 32.3139 240.951 33.5917C243.155 34.8375 244.912 36.5306 246.222 38.6708C247.532 40.8111 248.187 43.2389 248.187 45.9542V48.0625H229.403C228.573 48.0625 227.726 48.0306 226.864 47.9667C226.001 47.9028 225.155 47.8069 224.324 47.6792C224.676 50.2347 225.826 52.375 227.774 54.1C229.755 55.825 232.103 56.6875 234.818 56.6875C236.639 56.6875 238.332 56.2722 239.897 55.4417C241.462 54.6111 242.724 53.509 243.682 52.1354L245.12 58.0292C243.746 59.1472 242.165 60.0257 240.376 60.6646C238.619 61.2715 236.751 61.575 234.77 61.575ZM224.18 44.1812C225.905 43.8937 227.646 43.75 229.403 43.75H238.939C239.642 43.75 240.328 43.7819 240.999 43.8458C241.702 43.8778 242.405 43.9257 243.107 43.9896C242.66 41.7535 241.542 39.9167 239.753 38.4792C237.964 37.0097 235.936 36.275 233.668 36.275C231.336 36.275 229.292 37.0576 227.535 38.6229C225.778 40.1562 224.66 42.009 224.18 44.1812ZM267.409 61.3833C264.789 61.3833 262.393 60.7285 260.221 59.4187C258.049 58.0771 256.308 56.2882 254.998 54.0521C253.721 51.816 253.082 49.3403 253.082 46.625C253.082 43.9097 253.721 41.434 254.998 39.1979C256.308 36.9618 258.049 35.1889 260.221 33.8792C262.393 32.5375 264.789 31.8667 267.409 31.8667C269.389 31.8667 271.242 32.234 272.967 32.9688C274.724 33.7035 276.241 34.7257 277.519 36.0354V32.25H282.311V61H277.519V57.2146C276.241 58.4924 274.724 59.5146 272.967 60.2812C271.242 61.016 269.389 61.3833 267.409 61.3833ZM268.08 56.6875C269.9 56.6875 271.546 56.2403 273.015 55.3458C274.516 54.4194 275.698 53.2056 276.561 51.7042C277.455 50.1708 277.902 48.4778 277.902 46.625C277.902 44.7722 277.455 43.0951 276.561 41.5938C275.698 40.0604 274.516 38.8465 273.015 37.9521C271.546 37.0257 269.9 36.5625 268.08 36.5625C266.259 36.5625 264.598 37.0257 263.096 37.9521C261.627 38.8465 260.445 40.0604 259.55 41.5938C258.688 43.0951 258.257 44.7722 258.257 46.625C258.257 48.4778 258.688 50.1708 259.55 51.7042C260.445 53.2056 261.627 54.4194 263.096 55.3458C264.598 56.2403 266.259 56.6875 268.08 56.6875ZM303.795 61.3833C301.176 61.3833 298.78 60.7285 296.608 59.4187C294.436 58.0771 292.695 56.2882 291.385 54.0521C290.107 51.816 289.468 49.3403 289.468 46.625C289.468 43.9097 290.107 41.434 291.385 39.1979C292.695 36.9618 294.436 35.1889 296.608 33.8792C298.78 32.5375 301.176 31.8667 303.795 31.8667C305.68 31.8667 307.453 32.2021 309.114 32.8729C310.775 33.5437 312.245 34.4701 313.523 35.6521V15H318.698V61H313.906V57.2146C312.628 58.4924 311.111 59.5146 309.354 60.2812C307.629 61.016 305.776 61.3833 303.795 61.3833ZM304.466 56.6875C306.287 56.6875 307.932 56.2403 309.402 55.3458C310.903 54.4194 312.085 53.2056 312.948 51.7042C313.842 50.1708 314.289 48.4778 314.289 46.625C314.289 44.7722 313.842 43.0951 312.948 41.5938C312.085 40.0604 310.903 38.8465 309.402 37.9521C307.932 37.0257 306.287 36.5625 304.466 36.5625C302.645 36.5625 300.984 37.0257 299.483 37.9521C298.013 38.8465 296.832 40.0604 295.937 41.5938C295.075 43.0951 294.643 44.7722 294.643 46.625C294.643 48.4778 295.075 50.1708 295.937 51.7042C296.832 53.2056 298.013 54.4194 299.483 55.3458C300.984 56.2403 302.645 56.6875 304.466 56.6875ZM326.67 75.375L336.013 56.7833L323.843 32.25H329.688L335.822 44.7083C336.365 45.8264 336.892 46.9285 337.403 48.0146C337.914 49.1007 338.425 50.4104 338.936 51.9437C339.479 50.4104 339.99 49.1007 340.47 48.0146C340.981 46.8965 341.524 45.7944 342.099 44.7083L348.328 32.25H353.838L332.276 75.375H326.67ZM376.705 61V36.5625H370.188V32.25H376.849V24.0083C376.849 20.8778 377.775 18.4979 379.628 16.8687C381.481 15.2396 383.685 14.425 386.241 14.425C387.199 14.425 388.173 14.5368 389.163 14.7604C390.186 14.984 391.144 15.3674 392.038 15.9104L390.793 20.9417C389.451 19.4722 387.886 18.7375 386.097 18.7375C385.011 18.7375 384.004 19.1049 383.078 19.8396C382.184 20.5743 381.736 21.9958 381.736 24.1042V32.25H388.876V36.5625H381.88V61H376.705ZM406.628 61.575C403.848 61.575 401.309 60.9042 399.009 59.5625C396.709 58.2208 394.872 56.416 393.498 54.1479C392.157 51.8799 391.486 49.3722 391.486 46.625C391.486 43.8458 392.157 41.3382 393.498 39.1021C394.872 36.834 396.709 35.0292 399.009 33.6875C401.309 32.3458 403.848 31.675 406.628 31.675C409.439 31.675 411.978 32.3458 414.246 33.6875C416.546 35.0292 418.367 36.834 419.709 39.1021C421.082 41.3382 421.769 43.8458 421.769 46.625C421.769 49.3722 421.082 51.8799 419.709 54.1479C418.367 56.416 416.546 58.2208 414.246 59.5625C411.978 60.9042 409.439 61.575 406.628 61.575ZM406.628 56.6875C408.48 56.6875 410.157 56.2403 411.659 55.3458C413.16 54.4194 414.358 53.2056 415.253 51.7042C416.147 50.1708 416.594 48.4778 416.594 46.625C416.594 44.7722 416.147 43.0951 415.253 41.5938C414.358 40.0604 413.16 38.8465 411.659 37.9521C410.157 37.0257 408.48 36.5625 406.628 36.5625C404.775 36.5625 403.098 37.0257 401.596 37.9521C400.095 38.8465 398.897 40.0604 398.003 41.5938C397.108 43.0951 396.661 44.7722 396.661 46.625C396.661 48.4778 397.108 50.1708 398.003 51.7042C398.897 53.2056 400.095 54.4194 401.596 55.3458C403.098 56.2403 404.775 56.6875 406.628 56.6875ZM428.942 61V32.25H433.733V37.5208C434.756 35.8278 436.113 34.4861 437.806 33.4958C439.499 32.4736 441.512 31.9625 443.844 31.9625L445.138 37.1375C444.531 36.9458 443.828 36.85 443.029 36.85C440.346 36.85 438.19 37.7125 436.561 39.4375C434.931 41.1306 434.117 43.5583 434.117 46.7208V61H428.942ZM68.1083 100.919V93.875H97.6729V100.919H86.8917V137H78.8896V100.919H68.1083ZM103.305 137V91H110.828V110.885C111.85 109.735 113.064 108.873 114.469 108.298C115.875 107.691 117.36 107.387 118.925 107.387C120.97 107.387 122.871 107.883 124.628 108.873C126.416 109.863 127.854 111.301 128.94 113.185C130.026 115.038 130.569 117.306 130.569 119.99V137H123.046V120.996C123.046 119.207 122.519 117.626 121.465 116.252C120.411 114.878 118.909 114.192 116.961 114.192C115.364 114.192 113.942 114.751 112.696 115.869C111.45 116.955 110.828 118.616 110.828 120.852V137H103.305ZM151.63 137.863C148.468 137.863 145.656 137.192 143.197 135.85C140.769 134.508 138.868 132.672 137.495 130.34C136.153 127.976 135.482 125.308 135.482 122.337C135.482 119.494 136.137 116.955 137.447 114.719C138.788 112.451 140.593 110.662 142.861 109.352C145.129 108.042 147.637 107.387 150.384 107.387C153.195 107.387 155.703 108.042 157.907 109.352C160.143 110.63 161.916 112.371 163.226 114.575C164.536 116.779 165.19 119.287 165.19 122.098V124.829H147.318C146.519 124.829 145.736 124.781 144.97 124.685C144.203 124.59 143.436 124.478 142.67 124.35C143.053 126.426 144.059 128.135 145.688 129.477C147.318 130.819 149.362 131.49 151.822 131.49C153.643 131.49 155.288 131.106 156.757 130.34C158.227 129.573 159.44 128.615 160.399 127.465L162.124 134.508C160.686 135.626 159.073 136.457 157.284 137C155.495 137.575 153.611 137.863 151.63 137.863ZM142.478 119.702C144.107 119.383 145.72 119.223 147.318 119.223H153.499C154.361 119.223 155.176 119.255 155.943 119.319C156.709 119.383 157.444 119.478 158.147 119.606C157.668 117.753 156.725 116.268 155.32 115.15C153.946 114.032 152.285 113.473 150.336 113.473C148.42 113.473 146.759 114.048 145.353 115.198C143.947 116.348 142.989 117.849 142.478 119.702ZM206.888 137.863C203.662 137.863 200.643 137.303 197.832 136.185C195.053 135.067 192.609 133.502 190.501 131.49C188.393 129.445 186.748 127.065 185.566 124.35C184.416 121.635 183.841 118.68 183.841 115.485C183.841 112.323 184.416 109.384 185.566 106.669C186.748 103.922 188.393 101.542 190.501 99.5292C192.609 97.4847 195.053 95.8875 197.832 94.7375C200.611 93.5875 203.614 93.0125 206.841 93.0125C209.811 93.0125 212.591 93.5076 215.178 94.4979C217.766 95.4562 220.066 96.8299 222.078 98.6187L219.826 107.627C218.548 105.551 216.791 103.826 214.555 102.452C212.351 101.078 209.779 100.392 206.841 100.392C203.998 100.392 201.458 101.062 199.222 102.404C196.986 103.714 195.213 105.519 193.903 107.819C192.625 110.087 191.986 112.642 191.986 115.485C191.986 118.392 192.625 120.98 193.903 123.248C195.213 125.516 196.986 127.321 199.222 128.662C201.458 129.972 203.982 130.627 206.793 130.627C208.23 130.627 209.572 130.483 210.818 130.196C212.063 129.876 213.182 129.429 214.172 128.854V119.75H204.636V113.138H221.359V133.598C219.411 134.94 217.191 135.994 214.699 136.76C212.239 137.495 209.636 137.863 206.888 137.863ZM229.041 137V108.25H235.797V113.281C236.819 111.62 238.097 110.326 239.631 109.4C241.196 108.442 243.049 107.962 245.189 107.962L246.866 114.767C246.259 114.575 245.572 114.479 244.806 114.479C242.314 114.479 240.317 115.278 238.816 116.875C237.315 118.472 236.564 120.74 236.564 123.679V137H229.041ZM264.564 137.863C261.401 137.863 258.59 137.192 256.13 135.85C253.703 134.508 251.802 132.672 250.428 130.34C249.087 127.976 248.416 125.308 248.416 122.337C248.416 119.494 249.071 116.955 250.38 114.719C251.722 112.451 253.527 110.662 255.795 109.352C258.063 108.042 260.571 107.387 263.318 107.387C266.129 107.387 268.637 108.042 270.841 109.352C273.077 110.63 274.85 112.371 276.16 114.575C277.469 116.779 278.124 119.287 278.124 122.098V124.829H260.251C259.453 124.829 258.67 124.781 257.903 124.685C257.137 124.59 256.37 124.478 255.603 124.35C255.987 126.426 256.993 128.135 258.622 129.477C260.251 130.819 262.296 131.49 264.755 131.49C266.576 131.49 268.221 131.106 269.691 130.34C271.16 129.573 272.374 128.615 273.332 127.465L275.057 134.508C273.62 135.626 272.007 136.457 270.218 137C268.429 137.575 266.544 137.863 264.564 137.863ZM255.412 119.702C257.041 119.383 258.654 119.223 260.251 119.223H266.432C267.295 119.223 268.11 119.255 268.876 119.319C269.643 119.383 270.378 119.478 271.08 119.606C270.601 117.753 269.659 116.268 268.253 115.15C266.88 114.032 265.219 113.473 263.27 113.473C261.353 113.473 259.692 114.048 258.287 115.198C256.881 116.348 255.923 117.849 255.412 119.702ZM296.03 137.671C293.411 137.671 291.015 137 288.842 135.658C286.67 134.285 284.929 132.464 283.62 130.196C282.342 127.896 281.703 125.372 281.703 122.625C281.703 119.878 282.342 117.37 283.62 115.102C284.929 112.802 286.67 110.981 288.842 109.64C291.015 108.266 293.411 107.579 296.03 107.579C297.915 107.579 299.656 107.915 301.253 108.585C302.85 109.256 304.208 110.199 305.326 111.412V108.25H311.89V137H305.326V133.837C304.208 135.019 302.85 135.962 301.253 136.665C299.656 137.335 297.915 137.671 296.03 137.671ZM296.94 131.01C298.474 131.01 299.847 130.627 301.061 129.86C302.307 129.094 303.297 128.087 304.032 126.842C304.767 125.564 305.134 124.158 305.134 122.625C305.134 121.092 304.767 119.702 304.032 118.456C303.297 117.178 302.307 116.156 301.061 115.39C299.847 114.623 298.49 114.24 296.988 114.24C295.455 114.24 294.065 114.623 292.82 115.39C291.606 116.156 290.631 117.178 289.897 118.456C289.162 119.702 288.795 121.092 288.795 122.625C288.795 124.158 289.162 125.564 289.897 126.842C290.631 128.087 291.606 129.094 292.82 129.86C294.065 130.627 295.439 131.01 296.94 131.01ZM322.351 137V114.287H316.697V108.25H322.495V98.6667H329.73V108.25H335.768V114.287H329.874V137H322.351ZM356.35 137V93.875H368.76C371.731 93.875 374.238 94.3222 376.283 95.2167C378.359 96.0792 380.02 97.2451 381.266 98.7146C382.544 100.152 383.47 101.717 384.045 103.41C384.62 105.072 384.908 106.733 384.908 108.394C384.908 109.991 384.62 111.636 384.045 113.329C383.502 114.99 382.592 116.556 381.314 118.025C380.036 119.462 378.375 120.628 376.331 121.523C374.286 122.385 371.763 122.817 368.76 122.817H363.92V137H356.35ZM363.92 116.012H368.329C370.533 116.012 372.258 115.629 373.504 114.862C374.781 114.096 375.692 113.137 376.235 111.987C376.81 110.806 377.097 109.592 377.097 108.346C377.097 107.164 376.826 105.982 376.283 104.8C375.772 103.618 374.877 102.644 373.6 101.877C372.322 101.078 370.565 100.679 368.329 100.679H363.92V116.012ZM402.114 137.863C399.271 137.863 396.668 137.176 394.304 135.802C391.972 134.428 390.119 132.592 388.746 130.292C387.372 127.992 386.685 125.436 386.685 122.625C386.685 119.814 387.372 117.258 388.746 114.958C390.119 112.658 391.972 110.822 394.304 109.448C396.668 108.074 399.255 107.387 402.067 107.387C404.942 107.387 407.545 108.074 409.877 109.448C412.209 110.822 414.062 112.658 415.435 114.958C416.841 117.226 417.544 119.782 417.544 122.625C417.544 125.404 416.841 127.96 415.435 130.292C414.062 132.592 412.209 134.428 409.877 135.802C407.545 137.176 404.958 137.863 402.114 137.863ZM402.067 131.058C403.632 131.058 405.037 130.675 406.283 129.908C407.529 129.142 408.519 128.119 409.254 126.842C409.989 125.564 410.356 124.158 410.356 122.625C410.356 121.06 409.989 119.654 409.254 118.408C408.519 117.131 407.529 116.108 406.283 115.342C405.037 114.575 403.632 114.192 402.067 114.192C400.533 114.192 399.144 114.575 397.898 115.342C396.652 116.108 395.662 117.131 394.927 118.408C394.192 119.654 393.825 121.06 393.825 122.625C393.825 124.158 394.192 125.564 394.927 126.842C395.662 128.119 396.652 129.142 397.898 129.908C399.144 130.675 400.533 131.058 402.067 131.058ZM423.036 137V108.25H429.792V113.281C430.815 111.62 432.092 110.326 433.626 109.4C435.191 108.442 437.044 107.962 439.184 107.962L440.861 114.767C440.254 114.575 439.567 114.479 438.801 114.479C436.309 114.479 434.312 115.278 432.811 116.875C431.31 118.472 430.559 120.74 430.559 123.679V137H423.036ZM448.29 137V114.287H442.635V108.25H448.433V98.6667H455.669V108.25H461.706V114.287H455.813V137H448.29ZM469.852 137V114.287H464.198V108.25H469.996V100.679C469.996 97.325 470.97 94.7854 472.919 93.0604C474.867 91.3035 477.263 90.425 480.106 90.425C481.16 90.425 482.183 90.5528 483.173 90.8083C484.195 91.0319 485.106 91.3993 485.904 91.9104L484.371 98.2354C483.317 96.9896 482.087 96.3667 480.681 96.3667C479.851 96.3667 479.068 96.6701 478.333 97.2771C477.599 97.8521 477.231 98.9542 477.231 100.583V108.25H483.269V114.287H477.375V137H469.852ZM500.493 137.863C497.65 137.863 495.047 137.176 492.683 135.802C490.351 134.428 488.498 132.592 487.125 130.292C485.751 127.992 485.064 125.436 485.064 122.625C485.064 119.814 485.751 117.258 487.125 114.958C488.498 112.658 490.351 110.822 492.683 109.448C495.047 108.074 497.634 107.387 500.445 107.387C503.32 107.387 505.924 108.074 508.256 109.448C510.588 110.822 512.441 112.658 513.814 114.958C515.22 117.226 515.923 119.782 515.923 122.625C515.923 125.404 515.22 127.96 513.814 130.292C512.441 132.592 510.588 134.428 508.256 135.802C505.924 137.176 503.336 137.863 500.493 137.863ZM500.445 131.058C502.011 131.058 503.416 130.675 504.662 129.908C505.908 129.142 506.898 128.119 507.633 126.842C508.368 125.564 508.735 124.158 508.735 122.625C508.735 121.06 508.368 119.654 507.633 118.408C506.898 117.131 505.908 116.108 504.662 115.342C503.416 114.575 502.011 114.192 500.445 114.192C498.912 114.192 497.523 114.575 496.277 115.342C495.031 116.108 494.041 117.131 493.306 118.408C492.571 119.654 492.204 121.06 492.204 122.625C492.204 124.158 492.571 125.564 493.306 126.842C494.041 128.119 495.031 129.142 496.277 129.908C497.523 130.675 498.912 131.058 500.445 131.058ZM521.463 137V91H528.986V137H521.463ZM536.152 137V108.25H543.675V137H536.152ZM539.938 103.842C538.756 103.842 537.75 103.442 536.919 102.644C536.12 101.813 535.721 100.807 535.721 99.625C535.721 98.4111 536.12 97.4049 536.919 96.6062C537.75 95.8076 538.756 95.4083 539.938 95.4083C541.152 95.4083 542.158 95.8076 542.957 96.6062C543.755 97.4049 544.154 98.4111 544.154 99.625C544.154 100.807 543.755 101.813 542.957 102.644C542.158 103.442 541.152 103.842 539.938 103.842ZM564.642 137.863C561.799 137.863 559.195 137.176 556.831 135.802C554.499 134.428 552.647 132.592 551.273 130.292C549.899 127.992 549.213 125.436 549.213 122.625C549.213 119.814 549.899 117.258 551.273 114.958C552.647 112.658 554.499 110.822 556.831 109.448C559.195 108.074 561.783 107.387 564.594 107.387C567.469 107.387 570.072 108.074 572.404 109.448C574.736 110.822 576.589 112.658 577.963 114.958C579.368 117.226 580.071 119.782 580.071 122.625C580.071 125.404 579.368 127.96 577.963 130.292C576.589 132.592 574.736 134.428 572.404 135.802C570.072 137.176 567.485 137.863 564.642 137.863ZM564.594 131.058C566.159 131.058 567.565 130.675 568.811 129.908C570.056 129.142 571.047 128.119 571.781 126.842C572.516 125.564 572.883 124.158 572.883 122.625C572.883 121.06 572.516 119.654 571.781 118.408C571.047 117.131 570.056 116.108 568.811 115.342C567.565 114.575 566.159 114.192 564.594 114.192C563.061 114.192 561.671 114.575 560.425 115.342C559.179 116.108 558.189 117.131 557.454 118.408C556.72 119.654 556.352 121.06 556.352 122.625C556.352 124.158 556.72 125.564 557.454 126.842C558.189 128.119 559.179 129.142 560.425 129.908C561.671 130.675 563.061 131.058 564.594 131.058ZM81.5729 213.863C78.9854 213.863 76.5417 213.367 74.2417 212.377C71.9736 211.387 70.1688 210.189 68.8271 208.783L70.9833 199.967C72.0375 201.883 73.5549 203.512 75.5354 204.854C77.516 206.164 79.6243 206.819 81.8604 206.819C83.7451 206.819 85.2465 206.292 86.3646 205.237C87.4826 204.151 88.0417 202.826 88.0417 201.26C88.0417 200.015 87.7542 198.992 87.1792 198.194C86.6042 197.395 85.9333 196.756 85.1667 196.277C84.4 195.766 83.7451 195.383 83.2021 195.127L78.075 192.54C76.7653 191.869 75.4556 191.07 74.1458 190.144C72.8361 189.185 71.734 187.972 70.8396 186.502C69.9771 185.001 69.5458 183.148 69.5458 180.944C69.5458 178.58 70.0889 176.503 71.175 174.715C72.2611 172.926 73.7785 171.536 75.7271 170.546C77.7076 169.524 79.9917 169.013 82.5792 169.013C85.0708 169.013 87.291 169.428 89.2396 170.258C91.1882 171.057 92.7535 171.919 93.9354 172.846L91.875 181.471C90.725 179.906 89.2875 178.596 87.5625 177.542C85.8375 176.487 84.0646 175.96 82.2437 175.96C80.5826 175.96 79.2889 176.408 78.3625 177.302C77.4681 178.165 77.0208 179.251 77.0208 180.56C77.0208 181.423 77.2125 182.174 77.5958 182.812C78.0111 183.451 78.5382 184.01 79.1771 184.49C79.8479 184.937 80.5667 185.352 81.3333 185.735L86.5563 188.323C87.3549 188.706 88.2493 189.217 89.2396 189.856C90.2618 190.495 91.2521 191.31 92.2104 192.3C93.1688 193.258 93.9514 194.44 94.5583 195.846C95.1972 197.219 95.5167 198.865 95.5167 200.781C95.5167 203.273 94.9257 205.509 93.7438 207.49C92.5938 209.438 90.9806 210.987 88.9042 212.137C86.8597 213.288 84.416 213.863 81.5729 213.863ZM101.148 213V167H108.671V186.885C109.694 185.735 110.907 184.873 112.313 184.298C113.719 183.691 115.204 183.387 116.769 183.387C118.814 183.387 120.714 183.883 122.471 184.873C124.26 185.863 125.698 187.301 126.784 189.185C127.87 191.038 128.413 193.306 128.413 195.99V213H120.89V196.996C120.89 195.207 120.363 193.626 119.309 192.252C118.255 190.878 116.753 190.192 114.805 190.192C113.207 190.192 111.786 190.751 110.54 191.869C109.294 192.955 108.671 194.616 108.671 196.852V213H101.148ZM148.755 213.863C145.912 213.863 143.309 213.176 140.945 211.802C138.613 210.428 136.76 208.592 135.386 206.292C134.013 203.992 133.326 201.436 133.326 198.625C133.326 195.814 134.013 193.258 135.386 190.958C136.76 188.658 138.613 186.822 140.945 185.448C143.309 184.074 145.896 183.387 148.707 183.387C151.582 183.387 154.186 184.074 156.518 185.448C158.85 186.822 160.702 188.658 162.076 190.958C163.481 193.226 164.184 195.782 164.184 198.625C164.184 201.404 163.481 203.96 162.076 206.292C160.702 208.592 158.85 210.428 156.518 211.802C154.186 213.176 151.598 213.863 148.755 213.863ZM148.707 207.058C150.272 207.058 151.678 206.675 152.924 205.908C154.17 205.142 155.16 204.119 155.895 202.842C156.629 201.564 156.997 200.158 156.997 198.625C156.997 197.06 156.629 195.654 155.895 194.408C155.16 193.131 154.17 192.108 152.924 191.342C151.678 190.575 150.272 190.192 148.707 190.192C147.174 190.192 145.784 190.575 144.538 191.342C143.293 192.108 142.302 193.131 141.568 194.408C140.833 195.654 140.465 197.06 140.465 198.625C140.465 200.158 140.833 201.564 141.568 202.842C142.302 204.119 143.293 205.142 144.538 205.908C145.784 206.675 147.174 207.058 148.707 207.058ZM179.946 214.438L165.571 184.25H173.717L178.508 194.312C178.956 195.207 179.387 196.149 179.802 197.14C180.249 198.13 180.681 199.28 181.096 200.59C181.575 199.312 182.038 198.226 182.485 197.331C182.933 196.405 183.38 195.494 183.827 194.6L189.337 183.196L194.992 194.6C195.407 195.431 195.838 196.309 196.285 197.235C196.733 198.162 197.164 199.28 197.579 200.59C198.026 199.184 198.458 198.018 198.873 197.092C199.32 196.133 199.751 195.207 200.167 194.312L204.958 184.25H212.721L198.346 214.438L191.973 202.937C191.462 202.011 190.983 201.085 190.535 200.158C190.088 199.232 189.625 198.21 189.146 197.092C188.699 198.21 188.235 199.232 187.756 200.158C187.309 201.085 186.814 202.011 186.271 202.937L179.946 214.438ZM228.021 213.671C225.37 213.671 222.958 213 220.786 211.658C218.614 210.285 216.873 208.464 215.563 206.196C214.285 203.896 213.646 201.372 213.646 198.625C213.646 195.878 214.285 193.37 215.563 191.102C216.873 188.802 218.614 186.981 220.786 185.64C222.958 184.266 225.37 183.579 228.021 183.579C229.65 183.579 231.152 183.835 232.525 184.346C233.931 184.857 235.193 185.56 236.311 186.454V167H243.834V213H237.269V209.933C236.151 211.083 234.793 211.994 233.196 212.665C231.599 213.335 229.874 213.671 228.021 213.671ZM228.884 207.01C230.417 207.01 231.791 206.627 233.005 205.86C234.25 205.094 235.241 204.087 235.975 202.842C236.71 201.564 237.077 200.158 237.077 198.625C237.077 197.092 236.71 195.702 235.975 194.456C235.241 193.178 234.25 192.156 233.005 191.39C231.791 190.623 230.433 190.24 228.932 190.24C227.398 190.24 226.009 190.623 224.763 191.39C223.549 192.156 222.575 193.178 221.84 194.456C221.105 195.702 220.738 197.092 220.738 198.625C220.738 200.158 221.105 201.564 221.84 202.842C222.575 204.087 223.549 205.094 224.763 205.86C226.009 206.627 227.382 207.01 228.884 207.01ZM264.788 213.863C261.945 213.863 259.342 213.176 256.978 211.802C254.646 210.428 252.793 208.592 251.42 206.292C250.046 203.992 249.359 201.436 249.359 198.625C249.359 195.814 250.046 193.258 251.42 190.958C252.793 188.658 254.646 186.822 256.978 185.448C259.342 184.074 261.929 183.387 264.74 183.387C267.615 183.387 270.219 184.074 272.551 185.448C274.883 186.822 276.736 188.658 278.109 190.958C279.515 193.226 280.217 195.782 280.217 198.625C280.217 201.404 279.515 203.96 278.109 206.292C276.736 208.592 274.883 210.428 272.551 211.802C270.219 213.176 267.631 213.863 264.788 213.863ZM264.74 207.058C266.306 207.058 267.711 206.675 268.957 205.908C270.203 205.142 271.193 204.119 271.928 202.842C272.663 201.564 273.03 200.158 273.03 198.625C273.03 197.06 272.663 195.654 271.928 194.408C271.193 193.131 270.203 192.108 268.957 191.342C267.711 190.575 266.306 190.192 264.74 190.192C263.207 190.192 261.817 190.575 260.572 191.342C259.326 192.108 258.336 193.131 257.601 194.408C256.866 195.654 256.499 197.06 256.499 198.625C256.499 200.158 256.866 201.564 257.601 202.842C258.336 204.119 259.326 205.142 260.572 205.908C261.817 206.675 263.207 207.058 264.74 207.058ZM295.979 214.438L281.604 184.25H289.75L294.542 194.312C294.989 195.207 295.42 196.149 295.835 197.14C296.283 198.13 296.714 199.28 297.129 200.59C297.608 199.312 298.071 198.226 298.519 197.331C298.966 196.405 299.413 195.494 299.86 194.6L305.371 183.196L311.025 194.6C311.44 195.431 311.871 196.309 312.319 197.235C312.766 198.162 313.197 199.28 313.612 200.59C314.06 199.184 314.491 198.018 314.906 197.092C315.353 196.133 315.785 195.207 316.2 194.312L320.992 184.25H328.754L314.379 214.438L308.006 202.937C307.495 202.011 307.016 201.085 306.569 200.158C306.121 199.232 305.658 198.21 305.179 197.092C304.732 198.21 304.269 199.232 303.789 200.158C303.342 201.085 302.847 202.011 302.304 202.937L295.979 214.438ZM332.676 213V184.25H339.432V187.796C340.486 186.358 341.78 185.272 343.313 184.537C344.847 183.771 346.508 183.387 348.297 183.387C350.341 183.387 352.242 183.883 353.999 184.873C355.788 185.863 357.225 187.301 358.311 189.185C359.397 191.038 359.94 193.306 359.94 195.99V213H352.417V196.996C352.417 195.207 351.89 193.626 350.836 192.252C349.782 190.878 348.281 190.192 346.332 190.192C344.735 190.192 343.313 190.751 342.067 191.869C340.822 192.955 340.199 194.616 340.199 196.852V213H332.676Z" fill="white"/>
<path d="M426.971 175C422.498 175 419.319 176.441 416.218 178.522L393 194.066L416.218 209.593C419.351 211.658 422.639 213.115 426.971 213.115C437.209 213.115 445.514 204.583 445.514 194.066C445.514 183.548 437.209 175 426.971 175Z" fill="#38D200"/>
<path d="M18.8529 58.2681C23.396 58.2681 26.6252 56.86 29.7753 54.8261L53.3612 39.6341L29.7753 24.4421C26.5935 22.4238 23.2535 21 18.8529 21C8.43712 21.0156 0 29.3548 0 39.6341C0 49.9133 8.43712 58.2681 18.8529 58.2525" fill="#0473EA"/>
</svg>
